<mxfile host="Electron" modified="2023-04-11T01:58:29.075Z" agent="Mozilla/5.0 (Windows NT 10.0; Win64; x64) AppleWebKit/537.36 (KHTML, like Gecko) draw.io/21.1.2 Chrome/106.0.5249.199 Electron/21.4.3 Safari/537.36" etag="dI72vZFnScZ-1DLBqd00" version="21.1.2" type="device" pages="3">
  <diagram name="grouproject" id="CbAU38sldphQ0hgXHr-o">
    <mxGraphModel dx="1404" dy="814" grid="1" gridSize="10" guides="1" tooltips="1" connect="1" arrows="1" fold="1" page="1" pageScale="1" pageWidth="1169" pageHeight="827" math="0" shadow="0">
      <root>
        <mxCell id="0" />
        <mxCell id="1" parent="0" />
        <mxCell id="n8W1tCkEyLnp9JM3cszV-3" value="" style="edgeStyle=orthogonalEdgeStyle;rounded=1;orthogonalLoop=1;jettySize=auto;html=1;labelBackgroundColor=none;strokeColor=#E07A5F;fontColor=default;" parent="1" source="n8W1tCkEyLnp9JM3cszV-1" target="n8W1tCkEyLnp9JM3cszV-2" edge="1">
          <mxGeometry relative="1" as="geometry" />
        </mxCell>
        <mxCell id="n8W1tCkEyLnp9JM3cszV-1" value="Void setup" style="rounded=1;whiteSpace=wrap;html=1;labelBackgroundColor=none;fillColor=#dae8fc;strokeColor=#6c8ebf;fontSize=13;" parent="1" vertex="1">
          <mxGeometry x="80" y="40" width="120" height="60" as="geometry" />
        </mxCell>
        <mxCell id="n8W1tCkEyLnp9JM3cszV-5" value="" style="edgeStyle=orthogonalEdgeStyle;rounded=1;orthogonalLoop=1;jettySize=auto;html=1;labelBackgroundColor=none;strokeColor=#E07A5F;fontColor=default;" parent="1" source="n8W1tCkEyLnp9JM3cszV-2" target="n8W1tCkEyLnp9JM3cszV-4" edge="1">
          <mxGeometry relative="1" as="geometry" />
        </mxCell>
        <mxCell id="n8W1tCkEyLnp9JM3cszV-2" value="init_setup" style="whiteSpace=wrap;html=1;rounded=1;labelBackgroundColor=none;fillColor=#ffe6cc;strokeColor=#d79b00;fontSize=13;" parent="1" vertex="1">
          <mxGeometry x="280" y="40" width="120" height="60" as="geometry" />
        </mxCell>
        <mxCell id="n8W1tCkEyLnp9JM3cszV-7" value="" style="edgeStyle=orthogonalEdgeStyle;rounded=1;orthogonalLoop=1;jettySize=auto;html=1;labelBackgroundColor=none;strokeColor=#E07A5F;fontColor=default;" parent="1" source="n8W1tCkEyLnp9JM3cszV-4" target="n8W1tCkEyLnp9JM3cszV-6" edge="1">
          <mxGeometry relative="1" as="geometry" />
        </mxCell>
        <mxCell id="n8W1tCkEyLnp9JM3cszV-4" value="gyro_setup" style="whiteSpace=wrap;html=1;rounded=1;labelBackgroundColor=none;fillColor=#ffe6cc;strokeColor=#d79b00;fontSize=13;" parent="1" vertex="1">
          <mxGeometry x="280" y="130" width="120" height="60" as="geometry" />
        </mxCell>
        <mxCell id="n8W1tCkEyLnp9JM3cszV-23" style="edgeStyle=orthogonalEdgeStyle;rounded=1;orthogonalLoop=1;jettySize=auto;html=1;exitX=0;exitY=0.75;exitDx=0;exitDy=0;strokeColor=#E07A5F;fontColor=#393C56;fillColor=#F2CC8F;" parent="1" source="n8W1tCkEyLnp9JM3cszV-6" target="n8W1tCkEyLnp9JM3cszV-8" edge="1">
          <mxGeometry relative="1" as="geometry" />
        </mxCell>
        <mxCell id="n8W1tCkEyLnp9JM3cszV-6" value="selfcheck" style="whiteSpace=wrap;html=1;rounded=1;labelBackgroundColor=none;fillColor=#ffe6cc;strokeColor=#d79b00;fontSize=14;" parent="1" vertex="1">
          <mxGeometry x="280" y="210" width="120" height="60" as="geometry" />
        </mxCell>
        <mxCell id="n8W1tCkEyLnp9JM3cszV-12" value="" style="edgeStyle=orthogonalEdgeStyle;rounded=1;orthogonalLoop=1;jettySize=auto;html=1;strokeColor=#E07A5F;fontColor=#393C56;fillColor=#F2CC8F;" parent="1" source="n8W1tCkEyLnp9JM3cszV-8" target="n8W1tCkEyLnp9JM3cszV-11" edge="1">
          <mxGeometry relative="1" as="geometry" />
        </mxCell>
        <mxCell id="n8W1tCkEyLnp9JM3cszV-8" value="Void loop" style="rounded=1;whiteSpace=wrap;html=1;labelBackgroundColor=none;fillColor=#dae8fc;strokeColor=#6c8ebf;fontSize=13;" parent="1" vertex="1">
          <mxGeometry x="80" y="170" width="120" height="60" as="geometry" />
        </mxCell>
        <mxCell id="n8W1tCkEyLnp9JM3cszV-14" value="" style="edgeStyle=orthogonalEdgeStyle;rounded=1;orthogonalLoop=1;jettySize=auto;html=1;strokeColor=#E07A5F;fontColor=#393C56;fillColor=#F2CC8F;" parent="1" source="n8W1tCkEyLnp9JM3cszV-11" target="n8W1tCkEyLnp9JM3cszV-13" edge="1">
          <mxGeometry relative="1" as="geometry" />
        </mxCell>
        <mxCell id="n8W1tCkEyLnp9JM3cszV-16" value="" style="edgeStyle=orthogonalEdgeStyle;rounded=1;orthogonalLoop=1;jettySize=auto;html=1;strokeColor=#E07A5F;fontColor=#393C56;fillColor=#F2CC8F;" parent="1" source="n8W1tCkEyLnp9JM3cszV-11" target="n8W1tCkEyLnp9JM3cszV-15" edge="1">
          <mxGeometry relative="1" as="geometry" />
        </mxCell>
        <mxCell id="n8W1tCkEyLnp9JM3cszV-18" value="" style="edgeStyle=orthogonalEdgeStyle;rounded=1;orthogonalLoop=1;jettySize=auto;html=1;strokeColor=#E07A5F;fontColor=#393C56;fillColor=#F2CC8F;" parent="1" source="n8W1tCkEyLnp9JM3cszV-11" target="n8W1tCkEyLnp9JM3cszV-17" edge="1">
          <mxGeometry relative="1" as="geometry">
            <Array as="points">
              <mxPoint x="240" y="310" />
              <mxPoint x="240" y="380" />
            </Array>
          </mxGeometry>
        </mxCell>
        <mxCell id="n8W1tCkEyLnp9JM3cszV-11" value="read switch value" style="rounded=1;whiteSpace=wrap;html=1;labelBackgroundColor=none;fillColor=#0050ef;strokeColor=#001DBC;fontColor=#ffffff;fontSize=13;" parent="1" vertex="1">
          <mxGeometry x="80" y="260" width="120" height="60" as="geometry" />
        </mxCell>
        <mxCell id="n8W1tCkEyLnp9JM3cszV-13" value="transfer" style="whiteSpace=wrap;html=1;fillColor=#ffe6cc;strokeColor=#d79b00;rounded=1;labelBackgroundColor=none;fontSize=13;" parent="1" vertex="1">
          <mxGeometry x="80" y="340" width="120" height="60" as="geometry" />
        </mxCell>
        <mxCell id="n8W1tCkEyLnp9JM3cszV-20" value="" style="edgeStyle=orthogonalEdgeStyle;rounded=1;orthogonalLoop=1;jettySize=auto;html=1;strokeColor=#E07A5F;fontColor=#393C56;fillColor=#F2CC8F;" parent="1" source="n8W1tCkEyLnp9JM3cszV-15" target="n8W1tCkEyLnp9JM3cszV-19" edge="1">
          <mxGeometry relative="1" as="geometry" />
        </mxCell>
        <mxCell id="n8W1tCkEyLnp9JM3cszV-15" value="if switch value = left" style="rounded=1;whiteSpace=wrap;html=1;labelBackgroundColor=none;fillColor=#d5e8d4;strokeColor=#82b366;fontSize=15;" parent="1" vertex="1">
          <mxGeometry x="270" y="275" width="200" height="60" as="geometry" />
        </mxCell>
        <mxCell id="n8W1tCkEyLnp9JM3cszV-22" value="" style="edgeStyle=orthogonalEdgeStyle;rounded=1;orthogonalLoop=1;jettySize=auto;html=1;strokeColor=#E07A5F;fontColor=#393C56;fillColor=#F2CC8F;" parent="1" source="n8W1tCkEyLnp9JM3cszV-17" target="n8W1tCkEyLnp9JM3cszV-21" edge="1">
          <mxGeometry relative="1" as="geometry" />
        </mxCell>
        <mxCell id="n8W1tCkEyLnp9JM3cszV-17" value="if switch value = right" style="rounded=1;whiteSpace=wrap;html=1;labelBackgroundColor=none;fillColor=#d5e8d4;strokeColor=#82b366;fontSize=15;" parent="1" vertex="1">
          <mxGeometry x="270" y="350" width="200" height="60" as="geometry" />
        </mxCell>
        <mxCell id="n8W1tCkEyLnp9JM3cszV-19" value="&lt;p style=&quot;font-family: Consolas, &amp;quot;Courier New&amp;quot;, monospace; font-size: 14px; line-height: 27px;&quot;&gt;switch_value_manual&lt;/p&gt;" style="rounded=1;whiteSpace=wrap;html=1;labelBackgroundColor=none;fillColor=#ffe6cc;strokeColor=#d79b00;fontSize=14;fontStyle=0" parent="1" vertex="1">
          <mxGeometry x="630" y="260" width="160" height="75" as="geometry" />
        </mxCell>
        <mxCell id="n8W1tCkEyLnp9JM3cszV-21" value="switch_value_mode" style="rounded=1;whiteSpace=wrap;html=1;labelBackgroundColor=none;fillColor=#ffe6cc;strokeColor=#d79b00;fontStyle=0;fontSize=14;" parent="1" vertex="1">
          <mxGeometry x="630" y="350" width="160" height="70" as="geometry" />
        </mxCell>
        <mxCell id="n8W1tCkEyLnp9JM3cszV-24" value="&lt;h1&gt;Group project.ino&lt;/h1&gt;&lt;p style=&quot;font-size: 14px;&quot; class=&quot;MsoListParagraph&quot;&gt;&lt;span style=&quot;&quot; lang=&quot;EN-GB&quot;&gt;&lt;font style=&quot;font-size: 14px;&quot;&gt;In this file, it included the basic running code.&amp;nbsp;&lt;/font&gt;&lt;/span&gt;&lt;/p&gt;&lt;p style=&quot;font-size: 14px;&quot; class=&quot;MsoListParagraph&quot;&gt;&lt;span style=&quot;&quot; lang=&quot;EN-GB&quot;&gt;&lt;font style=&quot;font-size: 14px;&quot;&gt;This code can be used to run all the functions&lt;/font&gt;&lt;span style=&quot;font-size: 13px;&quot;&gt;.&lt;/span&gt;&lt;/span&gt;&lt;/p&gt;" style="text;html=1;strokeColor=none;fillColor=none;spacing=5;spacingTop=-20;whiteSpace=wrap;overflow=hidden;rounded=1;fontColor=#393C56;" parent="1" vertex="1">
          <mxGeometry x="430" y="40" width="310" height="150" as="geometry" />
        </mxCell>
        <mxCell id="n8W1tCkEyLnp9JM3cszV-49" value="" style="group" parent="1" vertex="1" connectable="0">
          <mxGeometry x="920" y="20" width="140" height="150" as="geometry" />
        </mxCell>
        <mxCell id="n8W1tCkEyLnp9JM3cszV-27" value="Legend" style="swimlane;fontStyle=0;childLayout=stackLayout;horizontal=1;startSize=30;horizontalStack=0;resizeParent=1;resizeParentMax=0;resizeLast=0;collapsible=1;marginBottom=0;whiteSpace=wrap;html=1;rounded=1;movable=1;resizable=1;rotatable=1;deletable=1;editable=1;locked=0;connectable=1;" parent="n8W1tCkEyLnp9JM3cszV-49" vertex="1">
          <mxGeometry width="140" height="120" as="geometry">
            <mxRectangle x="720" y="240" width="80" height="30" as="alternateBounds" />
          </mxGeometry>
        </mxCell>
        <mxCell id="n8W1tCkEyLnp9JM3cszV-28" value="main function" style="text;strokeColor=#6c8ebf;fillColor=#dae8fc;align=left;verticalAlign=middle;spacingLeft=4;spacingRight=4;overflow=hidden;points=[[0,0.5],[1,0.5]];portConstraint=eastwest;rotatable=0;whiteSpace=wrap;html=1;" parent="n8W1tCkEyLnp9JM3cszV-27" vertex="1">
          <mxGeometry y="30" width="140" height="30" as="geometry" />
        </mxCell>
        <mxCell id="n8W1tCkEyLnp9JM3cszV-29" value="sub function" style="text;strokeColor=#d79b00;fillColor=#ffe6cc;align=left;verticalAlign=middle;spacingLeft=4;spacingRight=4;overflow=hidden;points=[[0,0.5],[1,0.5]];portConstraint=eastwest;rotatable=0;whiteSpace=wrap;html=1;" parent="n8W1tCkEyLnp9JM3cszV-27" vertex="1">
          <mxGeometry y="60" width="140" height="30" as="geometry" />
        </mxCell>
        <mxCell id="n8W1tCkEyLnp9JM3cszV-30" value="Read function" style="text;strokeColor=#001DBC;fillColor=#0050ef;align=left;verticalAlign=middle;spacingLeft=4;spacingRight=4;overflow=hidden;points=[[0,0.5],[1,0.5]];portConstraint=eastwest;rotatable=0;whiteSpace=wrap;html=1;fontColor=#ffffff;" parent="n8W1tCkEyLnp9JM3cszV-27" vertex="1">
          <mxGeometry y="90" width="140" height="30" as="geometry" />
        </mxCell>
        <mxCell id="n8W1tCkEyLnp9JM3cszV-48" value="If function" style="text;strokeColor=#82b366;fillColor=#d5e8d4;align=left;verticalAlign=middle;spacingLeft=4;spacingRight=4;overflow=hidden;points=[[0,0.5],[1,0.5]];portConstraint=eastwest;rotatable=1;whiteSpace=wrap;html=1;movable=1;resizable=1;deletable=1;editable=1;locked=0;connectable=1;" parent="n8W1tCkEyLnp9JM3cszV-49" vertex="1">
          <mxGeometry y="120" width="140" height="30" as="geometry" />
        </mxCell>
        <mxCell id="n8W1tCkEyLnp9JM3cszV-52" value="" style="shape=image;html=1;verticalLabelPosition=bottom;verticalAlign=top;imageAspect=1;aspect=fixed;image=data:image/png,iVBORw0KGgoAAAANSUhEUgAAAQAAAAEACAYAAABccqhmAAAABHNCSVQICAgIfAhkiAAAAAlwSFlzAABJ0gAASdIBqEWK+AAAABl0RVh0U29mdHdhcmUAd3d3Lmlua3NjYXBlLm9yZ5vuPBoAACAASURBVHic7J13nBTXle9/91bo7onAwMwAA0OURJCQNGQJCQuEEMqyLDmu7fXa6/h2vev31l6H57XW4X3W3l3b+/GuZcmybNmyZBCyAgIFLJBQAIEAiSRynIEhTehU4d73R1f13K6pztXTPVBfPv2hu6a7+nbVPeeec+655xJcmFAAdOrUqTQcDlPTNIlpmoQxRgDA+b/PxQ2llDv/lySJS5LEq6ur2c6dOxkA+3FBcSEIAGlra5NPnz4txWIxyTAMWu4G+Vy4yLLMgsGgOXz4cHPz5s0GAF7uNhXDYFQABIDU2toqeyHwnPPBeA18PIIQUpQA2wrh8OHDBgATg0whDKbOL7e2tsqRSETOxXSvr6+nhmFQwzAo55wwxijnnNgCHwqFBtNv9ykx0WiUAwmFQAjhlFJGCOGyLDNZlllXV1dW859SyquqqgxLGRglb7QHVLoQ0EmTJildXV1KJqHnnJOamhpJ13XJNE0pGAz6boCP58RiMSZJkqkoitnb22tmsh4opby+vl7ft2+fjgqOHVSqAqAtLS2BaDQqp3tDfX09jcVismEYcjECL1oFPhcX9mhf6OdjsRiTZdkIBoNGJgshFAoZx44di6MCFUGldXyppaVFTSf4nHMSDAaVXIXeNvsZY9R6TgOBAPGF3seJrQzi8TgnhDBKKbPdAEppVsG1lUEsFtPTKRVLEWhIxAoqgkoRgowjfnV1tRyPx5VAICBlOgljjJqmKTHGJEVRJF/IfbyAEMJ1XTcppaYkSWY2hRCPx81AIKCHw2HXOEAlWQTlFhAyadIk9dy5c6rbH6urq+VYLKZmGu0Nw5BN05QLEXjh/cTx2ucCRhihueN1zp/Xdd2UJMmQZTltsC8Wi7FgMKilUwRDhw7V9u3bp6GMMwfl7PDyiBEjgm7BvVAopMTjcTVdpN40TckwDFlRFDmb0Frmvj0DQBVFST736of4DH4IIcwSbGY/t//P8jmu67ohy7IhSZKraR+NRnkgENCi0aju/BullHd2dsZQplmDcigA0tLSEnQz96urq+VoNBpwE3zOOdF1XVEURWaMpRVey+eXOOdUlmXJF3SfYiCEMMMwTCsukC3yz3RdNxRFcY0DRKNRHgqF4m4WgeUWxDDA1sBAKwBpxIgRIeeozzknqqoGVFXtpxRswZdlWUk32nPOKWNMkiRJzkfg1Uun1dFxLQ20dkg1qa6qpoGqGhKQq4mshkB8d+CCghPODS3K40bYjMXCiPT2sp7zYXbo2Bltz47uXE9DCGGmaRqWMnD14Qkh3DAMPZ0i0DTN0DQt7vybZQ1EMYBBwgHr5FOnTlVPnjwZcB4PBAKqLMv9YgCcc6JpmprOzLdHekmSlGxCr0y/cmhw/jVXS8OGTKRVNeNoIDBWUuTRRJKGFPerfC4EuGmeN3XjOIvHj7BI7yHz7Pn9sdc3bNHf23ou0+csZaCnswxs90BVVc3t74ZhaPF4XHMeb2pqiu/cubPf8VIwEAqAjBw5MqRpWkoEv76+nvb29gbdAny6riuSJKlpBJ+apqlIkpQ2R0CaNKm2avGSuUpT82yppvYqSVXH88QCIR+fnCAAMzXtoNnb845+smNj5KUX3jT37etJ937TNA1JknQ3q4AQwk3T1BRF6RcDiMVirKamJubMI1BV1Wxvb4+ixC5BqRUAbWpqCjnz9aurq2UAQeebTdOUKKUBNx+fMSYxxuR0gi+3tlbV3HnPMmlU8zIpWDWD+ALv4yEcYGYsss080bGq96nlq4zDhyNu77PcA4NS2s+Mp5Qyxlg8TbAw5owNyLLMTp48GUUJpwtLqQDoiBEjqpz+vqqqAUVRFPGYbe7LsqzAAeecUkpVxli/HABZlmn1pz9zrdI6/jZSU3MNAQl5/zN8fFLh4FHe27tBP3zwmfDDD71mGEY/AaWUmowxzc0iMAxDd3MLdF3XNU2LO87DOzs7IyiREiiVAugX7OOcE1mWQ06TP92ozzknlqnfTylItbVy7d98/i5l9OhPQJbHlOg3+PhkxzCO6seP/67nwf9Zafb09Ivum6apW66BM+Dnag3EYjFmGEZUfH8pg4OlUAByQ0NDykhcX19Pe3p6Qs7pPV3XFUppv8CgaZqyWwxAaW4Jhv7qEx9Rmpo+TCS5sQRt9/EpCG4ap/STJ/8Y/e3vHtM7jsXEv9kxAEmS+ikIxljcGRuIRqO8trY26owLnDlzJgqP8wW8VgBSQ0NDlXjATfgtkz8gy3KKP885J5Y1kGruKwqp/crf3SePHvO3lPqRe5/KhTHzvHH86C97fv7Tx6HrzlHfZIz1m/4zDMNQVTXleAYlEIGHloCXCqCfz19TUyNxzlOsAcYYJYQEnSZ/ulG/6oP3TgvMnP3PJBiY6mFbfXxKCo/Fd8bf3viDyIondojH01kDlFLGOY851xkQQqK9vb2m8D5PYwJeKYCchR9AyCnkhmGoTl8/OHlyjfqRT/ydPHTo3fAj+j6DE2acO/ek9tjvfhrbu7dX/INpmrosyylz/ZYFEB1IJeCFAiBNTU1V4lSfm/CbpikRQoKi8Kcz+avv/cgMddasH0JSRnrQPh+f8mLq7dqmTd8IP/HYNvGwm0tACOGc85gzOOhUAtYUYQRF5glkXF6bCyNHjqzSdT15nvr6ehoOh0OKoiQFPY3wU+tYShvq/vc/fUq6bOr9oLS+2Lb5+FQElNbS0WNuCcy4Qo+/vmGrfdiSAYlzLi46IoQQmTHG7CrFABCNRuW6ujozHo9zIFHResiQIVJvb2+/5KJ8KEoBTJo0KRAOh5Omu5W3XyUG/LIIf9JqUC+dVlf9d//4Y9LQcC9I8YrJx6eiIJBIbd3cwDXXT+cn2jeYZzrt+X5CCJE552YmJaAoCgmHwzJjzCAkIUqmadLRo0eTs2fPFhwULEbQJEJISjafLMtVoVAoKdRWwC/F52eMSZTSFIUQWrx4bOBD9/4ageD0Itrj41P5qMpY+corb6Tc3GAcONBlHU0KvFMJiIpBURTCGJM558lRPxaLSdFotOBqxIUqADJixIgqUYgVRQmKFXvcAn6W8AfEY8G77pqqXL/4l5DlpgLb4uMzuKC0jo6fdBOtrXrb2L270zpKKKVSNiUgyzIBQBljyVmEmpoaORKJFOQKFKQAWlpaQqLfX11dLUuSlFzRxzkn1shPhWPUOfJX/dWn5koz5/ycSJLv7/tcXFAaoi1jl8ojR+7Ut209Zh0llFLJ6Q5QSiUASdNfkiSqqirTdZ0BCXlraGig3d3deScJ5a0A2tralNOnTyeFvb6+njLGUiL+8Xg8ZDUaVgOpMw4Q+tznF9Ep039MCPXz930uTghR0di8RB4/7qCx+e2DyaOOUd9KnJMc5cfkqqoqww4KGoZBp06dytvb2/OaGsxXARDDMFLMesMwQpZZAgBwLuqxrIGUgF/wE5+cR6dO/zEhxLUWoI/PRQOBhGENH5Cam98ztm9LWgLW7IApjvqGYUCcHoxEIpIYD+ju7pbydQXyUgCTJk1KqdwbCARUsYqPtbAnJTDodAWCd90zlbTN+jlxvM/H56KFEAmNTQvlmto3jd07kzEBQogEIfffdg/smQFZlgmlFKZpmkBisB09ejTymRXIRwFQQvqW29bX11MIa/otqyAEIbnIMAyVEJJUEOoHFo+Vrv/AA6BSXR7f6+Nz4UOISkeNvoGY7C/mob7ZAdM0iVhbwJKnZDyAUiqJroA1K5DzpqU5K4CRI0eGTNNMjuSmaQZlWU6+1jQtKPr9dm6//Vq5/PIh0p0f/DWXJX8Vn4+PC5ySEBk/4XpyqmMVO3UqBiQEnDEmbk5CdF2nYjwgGo2mzArkkyCUa469JJb0qq6ulsUpP9M0JXFlH+ecisIPAPSej3wfsjwqx+/z8bk4keVR9J6PfF88ZC2So31vkWXTNJPyFwgEJKvKFgDAktWcBvec3iSO/lahjpRUX2eyjzXXn2yw8g//+zNk6LAP5vJdPj4XPYoyhl5+hcHeeP0d6wihlFI44gGEkOQoH41GJTFLcMiQITQXKyCXxUApa/ydVXw1TVPF0d40TVks8kHvu+8q6erZD4ixgEqGcYAPri3efXKEgIAOkmLvnHPD3LLxc+zxx20lAKuCUFIJmKapqaqaXFHorDKcS+2ArJejpaUlJEb+KaXVdq6/M9tPSAAiAEAnXlpHP/OZJ0gFZPlxDhicQWd9D4NxMG49AHDuC/7FACEEFAAlBJQQyJRAoTT5kAkFqQBFwQ3jJHvooXvZ/j3dQHKlYLJcmHP5cDQa5YyxsP15a7ORaKbvyOYCSIqiJEfzUCikiNN+mqapjsCfak1dAADoF778dRKqmpnbz/UWDo6YydCrG+jSNJyNx9Gj64gYBmKmCZ0xmJbw+2J/8cEBMM5hcg6dMcRMExHDQI+uo0vTrD6S6BkSISjLJlqU1mDS5KH81XXrrCPENE0IswLEMAzIsmwCibUCsixzu0ipYRg02zqBjAqgtbU1IAb/GGNJ399O8BH+JommP7n7Q1fQiRP/CQN45QzO0WvoOK9pOBePI2wYiJsmTH9k98kTk3PETRNhw0CPpiNmmmDgkOjAuhEkGLiE19W/iV07TwLJXIDkegE7FmD7/rFYLCU5qLGxEV1dXWlThDMqAFVVk+m7LqN/QBz9xcAfl2VKP/zRn0KShxf0q/OAcY6IYeKcpuF8PKG5fYH38RqTc8RMEz26jpiZmJGTKAEpva9A0DhiGnt13ZOEJUwSSZIIhICgruskkxUQiUTS7jKUSQHIoVBITOkN2im/diUfWKO7VdEnGQikX/77j5EhQ28r5NfmisEZuuIJ0z7qC73PAGJyjqhpolfXYTAOmVLQUhq6ktxALpvai7fe2A4kptlFK0CSJAohOSgej1PbCuCck2g0ypCmfFhaBdDS0hKwy3zV19dTSmlSwHVdT8nwSxn9x0+uIdcv/HcQ9Cv37QU64zhvjfY6K9mGKT4+OaGzRJxJ55YiKJUeqK65nB849Cdy/qwG9LMCiLhOQJZlImYHNjQ0kHQrBdMpAKIoipirr4jmvuX7u47++OvPfBo1NdcU9CMzYDCO83ENXZoGwxd8nwrDYAxhw4DOGBQqgXrtGhASwNgxGnnj9c2AuxUg5gVomsbtNQJWMNA1J8A1E7CtrS1lzl7X9aQrYBhGym69YjVfMnxkgA8bfh/niWk3rx7dmo7OaBQxc8B2TfbxKYiYaaIzGkW3pnsqA5wDfNjw+8jwkUnLWpQ9zjkxDCMpt6LMAv1lOnkO14OSlDT/a2pqJHF5r67rqpWVZGuhviSgz3z2w7S+flH+l82dmGnibDyOuC/4PoMMjTFEDQMSpZCpN1XtCaUhc1zrebrxzXeBhPwBSNYNME0T9hoBRVFIIBAwNU3jABCPx+HmBri2LB6PJxWDpmlijj9RFEWcFuwr+lFXJ5HGpo9zFP/P5Bzn4nGci8f94J7PoMXZj734RxqbPs7r6lxlUFEUSbTORdkVZVrETQFQcYMPcdGBi/mf/AJ2z703cElqLtbM0UyGM7GYb+77XDDETBNnYjFoJiveDZCkZnbPvTfY5xZl0OkGiLJryXQ/ee93YOrUqSknFHfzNU2zT+AZk1Jq/o1quZUjkXJU6CNsGDjrj/o+FyAm5zhrJacVKyd8VMut9nk551S0AkQZDQaDVBywRdm26acAuru7kyerqalJMRtUVRVLfvfNCkyZMoSHQvMKNWsY5+jSNPTqRe1x4ONT8fRaqcasGJcgFJpHpkxJbpIryqIoo0CqDIuybdNPAaTz/03TTPEvxPX/8RtuXMZBlEJMGlv4/UCfz8VC3DT7lEAhbgCIEr/hxmX2+Ry1OIho+meLAzgVAEnn/4vPreh/30Tn8MZbCrkQjHM/ocfnokRnDOfjCSVQEILMcc6J6I6nk1tLtlMSFJwKQKzjT8QtvkQzQ9zaW581t4mrytR8zRiDM5zXNN/f97loMXkiq9XgLH83QFWm6rPmJpfZizIpymooFCKO3bhTZD7lRVtbW/J1bW1tijIQp//EDT35lTPm5GvCmIyjW9ML134+PhcIjCdkwWQFuANXzphjn0eUSed0oCjLoowDDgXQ1dUlmhEpCkB8nyzLfdbA0IaZ+UQwGefo0X3h9/GxEWUiL1ka2pCstSHKJJAqs6IsizIOACnTArFYTDQjiJXwZ2/yaZ+YQvAjWHXVzERzcoADPbrum/0+Pg5MSwnUKkrOFTR4dV+xHUvgKSGEAQmZtSsFiXE9UcYBhwVgmqbo89Nsz815C1o4lUfmarL0GoYv/D4+aTA5R69h5O4CUHmkOW9Bi/35nGRWkHHAoQBETSF+SIwwQtBP+tSpV+f642Km6a/i8/HJgmGVJ8sVhwwmZVOUWYcySHXnxRfiH0UfQlVVyizhTTlxXe14noP5bzDuz/P7+ORI3DQhWcVKs8Hqasfbz0XZFBOCRFl2KoC0y5TEKUBHAlCfOREItmZP9AGiRt67Fvv4XNREDSNRoj7bjFog2Gp/RpTNlJ24BVl2ktYFEHHMAvRpE0Udly1SGbVyn318fHJHlJ2MMwGKOk74mOugLZLJAnD9sPN5cg+AUIhClloyJStozK/V5+NTKCZPyFAmGYMstfBQKLlrVybZFU7dt4tXnm3qW2s8a25Lpvx/xgHd9IN+Pj7FoJsssysAomiz5rYIH8mrFpmrAhgyZEhWU8IcMmRophNrpumb/j4+RcKRkKVMpJNFUXZFmRbJul+f04ywE4JYIFCVbgbA5Nw3/X18PMLkibUzUppCoywUrLafizKabvAWKXjDTh5Qq9PJuG/6+/h4i24yUMm9iDdXlCrXP+RAXgpA1C6mEqhyk39/rz0fH+/hSFgCbuXGTSWQVAC5jPoihVsAilTtJup+tp+PT2kwGIMi9Q/bcUWqdnl7ThSuAIgccroA1sSEj49PCbBX0xJHoJ8TOVToOYspWN7vsybzxd/Hp5SkkbGC5bhgCwCEE3G8T8xJ+vj4lJKkFZCS1pOf3y9SsAJgLCH0ydf+tJ+Pz4DAOE/ZjbiYsFsxFkCKyPvi7+MzMNjrAJKQwkffwhVAIu+44I/7+PgUTors5Tn1J1L4LADzR30fn3KRYn0X4QIUPgvA3ZcO+/j4DDBFyKI3+xb7+PgMSnwF4ONzEeMrAB+fi5giYgCFRx59fHw8pAhZLFwBkDSLk318fAaWImSx8DyAiwxKCEYEg2iuCqG5qgoNwQC6NR0dkQg6IlGcjEb9XY4HCIVSNIVCyXtRpyo4E4sn70VnLOZnpuZIwQqAFDP5WKFIhGBOUyM+MGokJtTVYmRVldXJQmgMhdJWZAES87Jn7U4YjaIjEk12yKO9Ybxw7DjOxeMD92MGMUMDASxpGY0xNdVJIW+uCqE5lHg+LBjIWPjO5BynkvcgivZIBAe6e/CXE+146+SpC65aVTGyeNFbAA3BAG4a04Jbxo7B0rEtGBYIFHQeYp2rIRjANPQv0WYwhg0dp/DM4SN49vAR7DnfVWTLLywuHVKPW1vH4rbWsbimuREyLdw7lQjByKoqjKzqXyjnbDyO1UeO4bkjR7Hm6DGciV3cSrmIVODBGwO4cngDlo1NCP2cpsaMI7tXyJTi+lHNuH5UM348bzb2dnXj2cNH8MzhI3i1/eRFV0hFphQLRjbhttaxuLV1LCbX1w3I9w4LBPDRyRPx0ckTYXKOt06ewnNHjmLVkWPYevrMgLTBc4qQxYvKArh93Fj86+yZuHxYxoLGA8Lk+jp89Yrp+OoV09GlaXj+yDE8uGsPXj5+otxNKymLRo/C30y5FDePbUG9qpa1LRIhmN/chPnNTfj+7Jl49+w5fGvj23j60JGytmsguSgUwNIxLfjerKsxq3FEuZviSr2q4sOTJuDDkybgxWPH8fU3N2HLYB2N0nD18Ab8aO4s3NgyutxNScvlw4biz0tvxKZTnfjOpi1YffRYuZtUci5oBXDD6FG4f9bVmN/cVO6m5MyNLaOx+J7ReGL/AXxr42bs6+oud5OKYlJ9Hf51dhvunTghvx0rysisxhF4/pab8HrHSXx70xasvYCtsgtSAVzb3IT7Z7dh4aiR5W5KQRAA902cgLvHj8ODu/bge5vfQUckWu5m5UVzVQjfabsKfzPlUihFBPTKyfzmJrx828145UQ7vr1xM17rOFnuJnnOBaUAahUFv7z+Gnxk0sRyN8UTFErxhWlT8FeXTsZ/bn8PP972Ls7HtXI3KyNDAiq+NuNy/P0V01EtXxjda+GokXj1zlvx2L79+Nt1G9Cj6+VukmcMTtXswqVD6vHW3bdfMMIvUi3L+ObVV2LPh+/BvKbGcjcnLfOaGrHnw/fgm1dfecEIv8hHJk3EW3ffjkuH1Je7KZ5xQSiAO8a1YuPdd2DK0CHlbkpJaQyF8Modt+AL06aUuyn9+MK0KXjljlvQGCq4QvWgYMrQIdh49x24Y1xruZviCYNaAVBCcP+sNqxcuhh1qlLu5gwIKqX4xYL5+M0HrkNIdt8qaiAJyRJ+84Hr8IsF86EOUl8/X+pUBSuXLsb9s9pcd+oZTAzaOzY0EMCzNy/Bt9quHDTRZS/55KWTseHO2zC+trZsbRhfW4sNd96GT146uWxtKBcEwLfarsSzNy/B0AKzRyuBQakAZjQMw6YP3o6bx7Zkf/MFzFXDG/D2PXdg6ZiBvw5Lx7Tg7XvuwFXDGwb8uyuJm8e2YNMHb8eMhmHlbkpBDDoFMLamBmtuXYqJdQOTOlrpDAsE8NyyJfjGVTMG7Du/cdUMPLdsScHrJi40JtbVYc2tSzG2pqbcTcmbQaUA6lQFzy5bgqYLPNCUL5QQ/GDOTPzr7LaSf9e/zm7DD+bMHPS+r9c0hUJ4dtmSQReLGjRzNRIheOLGG8qex38mGkN7by86I1EMCQbQXF2NxuqqAVlQlI1vXn0lenUDP3pnW0nO//WrZuCbV19ZknPni8k5ToUj6AiHcT4Wx4iqEEbW1KAhFCxbmy4fNhRP3HgDbln1wqBZcjxoFMB/LZiPmwbQ123vDeP5/QfwwoGDOHS+C+29PejoDUMzzX7vpYRgRFUVmmtq0FxTjZE1NRg3ZAiWTBiHOaNGDuho+cM5M9Gr6/iv93Z6et4vT5+KH86Z6ek5s8E4x1sn2vHCgUM4dP48OsJhtPf0oqO3F52RiGvRD1WSrHtQi3FD6rFkwnjcPHECRtYUvIN2Xtw0pgX/tWA+vrB+w4B8X7EMCgXwD1dMx+enXlbS72CcY+OJdqzatx/P7d2Pdzo6ct74hHGOk+EwTobD2CZki3533XqMqKrCskkTcevkiVgyYQLqAqVfAfeza+ehV9fxmz17PTnfpy6djJ9dO8+Tc2WjO67hhQMH8Oze/Vi1bz86I5G8Pq+ZJo50deNIVzfeOn4cj+/YCQLgquZm3DJ5IpZNmojZJVbKn596Gfae78K/b3+vZN/hFRWvAO4c34p/mze7ZOdnnOMP7+3Ev7z6GvadPef5+TsjETyy/V08sv1dKJTi+tax+MqsNtx+SemmzgiABxcuQMQw8MT+g0Wd696J4/HgwgUln2p9+v29+PmmzVh3+IjnpdU4gC0dHdjS0YH7X92AScOG4v8uuBYfnT61ZIrg3+bNxoGeHjx18HBJzu8VYiYJqaqqUgEgGAwSxpgCAJxzCiD5nBAiA0DkqrZZZl1dSaNOVzQMw6plN0GVvE944QD+tHM37n3yKTzwzlacjcY8/w4njHMcOH8ef9yxC2sPHcaU4cPRUleaeXxKCO4c34otp89gb4ErCm9pHYMnbryhqOo82Xjz+Al89Kmn8f9efxMHzp8fkFp+Z6MxrNzzPv60azdGVFVj6ojhnis4QghuHzcWzx4+ipPR0i7kkrq7N1dt3fw2AHDOTUqprUENSikHAEqpHo/HOQBEo9HkgpKKngX4xYL5qCpBTvkze/fhygd+jfuefAq7yrTu/tUjRzHv4d/ig8tX4v2zZ0vyHQqlWL5kEWYXUAdhduMILF+yqGQr+d4/exYfXL4S8x7+LV49crQk35GNXafP4L4nn8KVD/waz+zd5/n5q2QZv1gw3/PzeknFKoB7JozHNR6v49cZw1fWvIjbH1+O7adO5fYhQgEqAZIMyErioaiAGkj8bx+T5MT7qJT4TI6m5ZO792Da/zyIL61+AeESrDILShKWL1mEhmDuc/YNwQCWL1mEYAksr7Cu40urX8C0/3kQT+7ek9uHCOm7D/ncC5Jb995+6hRuf3w5vrLmRc/dj2uam3DPhPGentNLKlIBqJTiR3O9jTh39IZxw+/+gP/atDnzGwlJdB5ZsTqWAsgyIEkApYmHLdyE9B2TpMT7ZDnxGUVNPCQ5a0c0GMMv3t6C2Q89gj1nvLcGxtRU4/eLFubk71JC8PtFCzGmBFHzPWfOYvZDj+AXb2/JXgOR0MS1s6+jfR/yuReKdQ9lxVIImX//f23ajBt+9wd09IY9+sUJfjR3ZsWuk6jIVn15+lRPM/1eP3YcVz/4MF7LVOJJ7GyynOhIxUJIojM6O2Iadp4+jVkP/QYrch0Z8+CmMS34TttVWd/37bYrSzLdumL3Hsx66DfYefp0+jc5Fa+UXWhzglJLIQhKOQ2vHT2Gqx98GK8fO17891pMrKvDl6dP9ex8XlJxCmBYIIBvtXmXbPLYjp1Y+Nvfo7231/0NkpTocF51tkyIHTGNIujRNNyzfCW+9tJazysFZxPuXJVEPhiM4WsvrcU9y1eiR0tTzIRK3ireTNhK2b7nLrT39mLhb3+Px3Z4l0vxrbYrKzJ1uuIUwLfbrvJsddX6I0fxqaefc/frqN0JyjATSoigCNxvwU/e3IhFjz6G8zHvZicymff5uAm5cj4Ww6JHH8NP3tyYpkG0T/DLkUkpyYk+4KKMdcbwqaefw3qPApRDAwF822Pl6gUVpQAm1dfhS9O9KXax9+w5kUNSawAAIABJREFU3PWnFf0z9wjp63S5QkifjylJgCxl9kfzOa8dyHKJE6w/chQ3P/YEetONnAXQEAzgT0sWpfikKqX4U56Bwmz0ahpufuwJdwEitC9oV8g1c4u7yFLfvbDvV67YytjxGc00cdefVmCvR/khX5o+BZMGaP+DXKkoBXD/rDZPpp3ORmO45Y9P9J/bt03NbJ1D9N0DAUBVE49kQNASfDHYpCiJ9wQCfZ/J1aQlxPJ5+yulN4+fwB1PrEDMMPK4ApmZ0zgCP5w7K/n6h3NnYY6HJdNjhoE7nliBN92q6UrW9cpFQG2XyXld7estC/dBEgKw9v0K5BFLsAcGhzWQti8VgEIp7p9V+gVb+VAxCiAoSbht3Niiz6MzhruXP9lfa9sjRTpss9zuPMX6o04louRwPskKgjn66tpDh3Hviqc8jQn8/eXTMLepEXObGvH3l0/z7LwGY7h3xVNYe8iRAUdgTdFlmVqkNHGt8hHebOdz3tdM53PpJ3vPnsPdy5/0ZIrwtnFjSzK9WigVowBubBntSSHJn27chHWHhZ1d0mj21L9bo0YpA4FUUAaZOiGlgNzfSnlm7z584s/PeJYpRwnBQwsX4KGFCzzz+xnn+MSfn+mfVENI4jelU4C28rWFPsNMSVEkA4BqZivExVJcd/gIfrpxU9FNqJblitocpWLWAtw1vvgii2eiUXz/tTdSD6bzM+1OV475WdtsNU3AzbS3lZZhAKwvhvHHHbtQqwbwwC1LPWnGVI+LqH5+1Rr8cceu1INUymx52WZ8Fq4fPQrzRjZnfM8b7R1Yl+smHpQmFAFjievsVKx2fEbvi798/7U38OkZV6ChyHoUd41vxTPiIFVGKkIBSITgdg+qrH5v/YbUqHk64Vfk4kYZO8jEOQCOnJcNOrEVgWEklIETWQYMpCiBX72zFZc3jsBXKsyX/PmmzfjVO1tTD2YSfimLYnBw87hW/NPMzFH0//f2O7krAJukIjAB3aGMbSVgJDI0z8di+N76DfjpTYvz+w4Ht49rhUReq4iaARXhAlw3qrnoCPTes+fw35u39B2QXEZ3QhI3OxfhJ7B8eNk9wJcMNgXSBArzcCdsH9XNGpH7K6t/fPFlvFVB21W9dfwE/vHFl1MPphN+W+ByFX7bbKc5XEtJcgQK7fuQw/dQyzVw3jNKU4Kz/715S9GzAg3BAK4bldmaGSgqQgHcNX5c0ef4+tpX+oI0VOpvVtodL5NQEpKYTrIF2xa+XKb4+k0V5hlQTM4EuCgnhxLQGcOHVjyF0xWwXdjpSBQfWvFUaoAsnfDbQdFs19I1cJdHV01OFdr3wZ6VyaKUkwOE47skKXn9dcbw9bWv5N6WNHjR572gIhTAnUWa/+29vVhpp88S2r/z2dND6ZBoX2eTPE5K6TcboGRWBrKcGLncjgtCcLS7Gx//89MDsnw2HYxzfPzPT+Not7Dc2O36A4nflGnUpzT1GnkdkCXESvyx73OGe2BbcSLC9V+5e0/6zNIcKbbPe0XZFcDMEcOLXnjy1J69fW6488bZZqAbSXO0gISUQrE7erYotJu1oigpSmDN/oO4/9XylZ66/9UNWCMWHCG0v6LN5nbZlk82xegltm+fzu0C+tw/EatvcST6XDGMqanGzBHDizqHF5RdAVyXJbKbCyv3WKO/c8WXLLl3PFvwc01IKQXZ2mALjqsS6Dv2vVc34IUDxVX9KYQXDhzE90TlYwuySLrfIL4/kxCK8Bzm4HN5Tz5toFbWp/h+qz8l+1wReNH3i6XsCqClyNH/fCyGVw5ZUyriSC+lBm+S2O5ABVTxBZA9KOYmQHKfoDHO8elnnkNXPF7CRqbSFY/j0888l+p+yGmE341MQc9yYCsC17iFnOouWH3slUNHil6nUWzf94Ky34HR1cVdhGf37k8EoESfkRKXDon0QbZKQEpj9gP9FRZJ/X0nenrxf17+ywA0MsH/efkvONEj+MBOF8rNGrCP2wlXlUgySOk4Lit9sxBWTEdnDM/u3V/U1xXb972g7HkAo6qrivr86v0HEk/s0d5OORWxFUKaUf9jkyfi+7MHtuT1omeex/5uR60+W0B0PZGgIh5XlMRxe9S1o9xWjsCvtmzFR6ZNxcLW4tOpM/HK4SP41RZhvt+eJXG21W06LU0gdurQIfjFgmsyfu+Euuy77nz0kkmY25zZrP7iqxuw89z59G+wVygaOsAcFo6uJQIAkgyYJlbvP4CPF5FGXWzf94LyK4Cq4i7C0e7u1CkiZxQ/Q8ezqVUUtNYO7LZOGRc9KUr/LMGkEtD6Eo9kGdA5wBk4gM899zy2f+4zCJagjiKQWOTzueee7wu4OiP+tpXVz2XJnO1Xp6q43oN58TE1NRiTZXuuunRuiYidiSkqYnsWwb4nhKbOfhRAsX3fC8ruAhSrBTt6w30jkD3lZkPTmKKDAdscFbE7pogsJ03WvWfP4bvrXytZk767/rW+JBgClxmXNEHLSjX5s6EIpj/gcDNp0aXDKsECKKsCGBYIFL0yqr23t08BpIxGLnGAwYab9eL0rwkBpL7XP3lzI7Z0dHjelHc6TqYW9pAcI73byD+QU3ulwuk62n2M0qJzAYKSVPYqQWW9O8VqwIiuo0c3UotE2FRSpL8Y3JSAnW0ovrZ+u8EY/ubZ5z1dOmwwhs88u6rvnM5rLUn9Bf1CEH6gv8IVir/06AYiRVZyLrcVUNY71FxV3KqqFPNfHP3zFf5yZNPl851uSkCWHeZpnyvwTsdJrNpXXIRaZNW+/Xinw9rzjCB1epUSF1cgT+EfyOtfyHc5lYBgBRTrBhQrA8VSVgUg5ZPf7YLJeV8Ovi3wbqPRhYCrEhCmrARX4MqmJiybNNGzr142aSKubLL2aBBNf7cZl0JG/kpXAECq1SX0uWJX9BUrA8VS1m/vyHPjRyfNNdV95r9NiSLgFYG9SMbGGeegFBKV8OCtN3u6nZdMKR689WZIzik/N//4QlS+NuK1t9yA5iKTeYqVgWIp6906UeSPr1VVVItR5gtZ+G3sGgI2lKakq3513hy0lSDFtG1kM746b07fAVnqHwcYrNH+fLD7mCShWlFQm8u0YgaKlYFiKavEnI5EoZlmUZt/NtfWYH8k2n8KMA/Wn2jHF9auK7gNhdARLeLGy3Ii791OVJFkwGSYUF+Hf7m2dHvR/cu18/Hk3n040NWdPQ6QB++dPYd5j6/I+J4vTp+CT0zLvLnG73bsxC/e25XxPe919+TdvhTsSk5I9L1i0EwzsaS7jMHqsioAzjnawxG0FrFDblIBFNEBd545i50nTxb8+YIIBIu78bIjKUhR8MubFqPKbSmxR1QpMn5502LcuPKZvoNucYA86dV1vNmeeeryzhwyHE/0hLOex5M1CLIM6HrRCqA9HAG341hlouw284ne3qIUQEtdHXCqs7ibyhigeb8xZ0bUQHE3PlmzLtHuT02bgsUlTgMGgMWtY/GpaVPwm527Ewe8WErNGJB174NcpjVzOI8XcQpKAWL1vSI4UWQegReUPWJzvKe4i7CkdUzpqshWOpb/31gVwk+y5NJ7yU8WXIPGqlD/OMDFBJUSfa8Iiu37XlDeu0cITvQU55PdPmECpIsh+JQOScbPFl6HYR7u6pONYcEAfrbwuvJsq1YhSJKE2ydMKOocJ3p6yp6sVnb1fazIoMzwUBDXtYwqrhGEJAJZA/nwiFtbx+K+yd7N+efKfZMn4lavXA47gJvpkVNlzxzO45HAXdcyCsNDwaLOUWzf94Iyq3CONzyobnv3+HH4y/H2wk9gLwEdSDzoiLWKgl8sKF3UPxu/WDAf6060o6fIdNjkHg2Z35TLibKfxyMFcPf4cUWfI9H3OXL7baWhvBYAB14/dhwnw8WlU945vrW4S8jMRPBoIB8eZL/9ZP6couspFsOYmmr8ZP6c7G/MBueJYGamR06bL+RwHg+uO0GizxXDyXAYrx87XvieEh5RdheAcY6n3y+uwGJLdTWWjk2/731WOBIdYyAfRfLxSybhs1MuLfo8xfLZKZfi45dMKu4knCdmAjI9crlmXp0nC0vHtqClyGo+T7+/t6wVnW3K6wIQAhBg5e738dmrrizqVD+aMwtrjh6viItaaqYNG4pfXjdwUf9s/PK6a/DO6TPY4dE22m58/S/r8fVsZc+ybUPmAZQQ/GjOrOxvzMLK3e8nTImLPQgIDrx86DB6ss4DZ+aKhmH45KWTPWpU5VKjKFi+5AZUVVDac5UsY/mSG1BTaPEVayDI+Mj5XNkexQncJy+djCsahhV1jh5Nw8uHDpfd/AcqQQFQCs00PVm+ev+sNoTkAqYE7S2lBvJRYEd8cOG1uGyIN5t6vn/2LN4/e9aTc102ZAgeXHhtYR8mxNq9J8Mjl6leScp+niIUQEiWcL8HezKu2rcfmmlWRA5FmYOAPHljV+5+v+jTja6uwlevmF70eSqVL0+fivsmFjf3bMMBfPbZ5/HZZ5/3bCC6b+IEfHl65nz9wcxXr5iO0R4U8Ej2dUkqTy0KgfKrIEIAQvu0YpF846oZmD5sqAcNqywWt4zyJuJu8cCWrVh/5CjWHzmKB7Zszf6BHPnJ/DlYXGxeRgUyfdhQfOOqGUWfJ2ntkhz2mxwAyp4JmGgFRY+mYY0HO9zUKAqeW7ak7JVWvOSa5ib8eemNUD0yGU/09OKfhIDaPznr/BeBSin+vPRGXNPc5Mn5kkhSYt1BpkeJMkKbq0J4btmSwmMcAmsOHEzEu8RCtmWkMiwA62J8+5X1nkTxx9bU4Jmbl1RUoKxQ2kYMx6plN3n6W760+oWUnYS64nF8afULnp2/SpaxatlNaPNy7zux7mO6RwmEqUqW8czNSzA2S7nxXGCc49uvrE+8KFF786X8FoDw2HbyFB7Z/q4np545Yjh+v2ghaC4X2a60M5CPHNo1fdhQrLllKepU76obP75zF57a0z/e8tSe9/H4zsxr6fOhTlWw5palublj4oap6R6ZdvO1kXI4Tx5WFCUEv1+00LNNPB/Z/i62nTzVr9+Xk/JbALbZZq3o+9Yr64uutGpz5/hW/Oc1c7PPIuWSi+71IwuT6+vw4q03o8HDRT77zp7D555b3XdAklMW9HzuudXY5+FcfkMwgBdvvRmT63NYNpttdM81FTjreXKDAPjPa+YWnfFnE9F1fCs5+lv3vwIWsZVfAdha0Lo5J3p68WOx/nyRfGX6VDy19EZPR9FSs2TMaLxx1+2exjGihoF7VqxEt236i0rPGoW643Hcs2IlouKOREXSXBXCG3fdjiVjRnt2zlJTpyp4aumN+IqHMxo/fnNjX5zFNv8vehcA6BN+4YL82xtvFV1uWeT2cWOx8e47MGWoN/PnpYIA+OerZ+D5ZTd5OvIDwJdXv5AwP23EKj7C820nT+HLHsYDgIQl8Pyym/DPV88ofM0GzWF092CV5ZShQ7Dx7jtw+zjviqt09Ibxb2+8lXghDni+AkBqLT/LNOrVNHxn3auefs2lQ+rx1t234y6PTDqvqVMVrFy6GN+fPTO3uEUe/Gbbu/j11u19B6hjWayw7z0A/HrrdvxmmzexmORXEoLvz56JlUsXF2aNUSkH/744k/qu8a146+7bcemQ+qLO4+Q7615Fr53pKpr/vgJAajBEuCi/3roN73V2evpVtYqCFTctxk+vmYsRRa7l9pIZDcOw6YN34I5x3iund0914ovPr+k7kG7prSMw+cXn1+DdU95efwC4Y1wrNn3wDswoMp3WS0aEgvjpNXOx4qbFqPV4L8n3Ojvx663bEi/EPu67ABZCLgCAZFDK5BxfWLXG0y2ugISZ/b8un4aDH7sPP5wzs6x7s11SX4/fL1qILffciUvqvR11gETO+T3LHT69Yx+BfnX+LaKGgXuWryx6jYYbl9TXY8s9d+L3ixaW5HfnyrBAAD+cMxMHP3Yf/tfl0zxflW8whi+sWtO3eYgdcK2QHAAAEG0mUlVVpQJAMBgkjDEFADjnFEDyOSFEBoDIVW2zzLq64hOjCUnucQ/GrNccAMeR7m6cjkRwy+Qil5u6oFKKa0c244vTpyAkS3jnzBnEPMhEzIWJdXX4j/lz8Mvrr8WMhmEgJegIjHN87Kln8NrRY30HJUdBTHtazP7dxFoxwxNK90w0ij1nzuJDUy7zvI2EEFzeMAxfnD4FE+pq8e7Zczgn5Cb0/0E5LOXNMdI/JKDin6+egT/eeAMWjR7lWYKVky+vfgFP2mm/4lbq9rZuHm1eK3V3b67auvltAOCcm5RSe9Q0KKUcACilejwe5wAQjUaTWr38CgDoWxVld0RKk0rh7fYO1AcCmNdSmihyQJJw/aiR+OK0qZjRMAxVsowT4QgiHkbCgYSPf9OYFnzjqhl44PprcPWI4Z77+jYciSm9P7y3o++g2AGBvuq4tikqbvxpKWAA2HX6DI739OK2SyaXpG4NJQRXDm/AF6dNwcS6OjBwtEciiJsOy69IBTA8GMQHJ4zDN66agV8suAZLxoxGoITTcP/x1iZ8/7XX+w6I+1Xam9l4pHiKUQCVkSpnj0L2pgt2UMpSAl97aS0mDB2COy4p3XLfOlXBhydNwIcnTQDjHBtPdWLVkWN44egxHO7tRWc0ltc+cAqlmNM4AjeOGY3Fo0dhduMIT7frysQ/vPAyHrL9TgCuO9yKnV+S+gpmAIn36n1Vix7aug21qor/WLKoZG2WKcUnL52MT146GQZj2HiqEy8dP4EXjx7HW6c6odsJVDkgEYIRoSBaa2qwZEwLlo1twezGESVTuE7+/P5efO2ltX0HxKBrMuBdfu8bqCQFACRusG0FSH0KgHGOj658Guv/6mMl2faqX3MIwdymRsxtasT3Zl2dbMOpaAwdkQg6olF0RKIgAKoVGTWKghpFQbUsJ/8fFgwgWIZEj/+77lX858ZNqQedpma6IKDo79sbj1j858ZNqAuo+JfrF3jYWndkSjG/uQnzm5vwnbarEDNNnI3FETYM9Op68v9eXUdYN8CRyDdoDoXQXFWFxlBwwITdyeb2Dnx05dOpKe1iP5AdcYAyUxkKALBMT5a4QIZhRUxlwEyY4hFdx22PL8dbf/1XGFPkhgwFNY+QRCer4EVGP3lzI7736obUg24beCZ397X+t3ensa+9/TdZAYy+rMzvvboBdYEA/nHu7BL+iv4EJQmjPFiGW2qOdnfjtseXp2aySsL1rjDhByphFsDGzvWWHOaSsH1ye28vbv3j8pJEpgc7v3pna6rZCSRMT7GzOU1/p1nt9Esp7Te3/rWX1uJX73i3fPhCoUfTcOsfl6Nd3O2HOLYUt5/nsq5hgKiglriYSUBq8ATA9lOncPvjy3E2GhvAxlU2j+3Yic+vWpN60Bn0c8YBbGF3KgXFzWJI7SafX7UGj+3Y6eEvGNycjcZw++PLsf2UkGnpvN4pW4uXfw2ATeUoAKBv9HGmdTrM2FcOH0HbQw9j60Bv6FlhMM7xzb+sw8ecPiehqZ0PSH1N0H9GgKR5r/1aUAKMc3xs5dP45l/WXRRFWDOx9eRJtD30MF45fKTvIHFM8dlpzEBFmf9ApSkAZ6e0cV5QAIfOd2H+w7/Do+/uwMXI6UgUSx97HD/Y8EZqSS/nyAP0X37sNv8sHnPLFnRYBhzADza8gaWPPZ7Y4voi5NF3d2D+w7/DofNdqX9wi7u4Pa8AKksBENLnHxHHnK6LEogaBj7x52fwd2te8jxjsJLZdKIdbQ89jBcPHEr9AyH9dzhyLj9ON1fuPO62bFlR+2WvvXjgENoeehibThSxM9Mgw2AMf7fmJXziz8/0XznpFH5K+6wnqTIWAIlUlgIAUjecdI5clLpuSPmzTW9j0aOPFb3D0GDggS1bseCRR3Gkqzv1Dy4Kst9I7mYdiLj6/44O67Id+JGubix45FFPawtWKifDYSx69DH8bNPb/f/ozLR0Xv8K3Ey18hSAGC1167CS5BpEWX/kKNoe/A02iKmvFxAxw8BfP7MKf7tqNeLOlGVb+FNW+CFzHCAdrv5/lu8CEDdN/O2q1fjrZ1Yh5nEWZaWw4egxtD34G6w/crT/H6mbxSRcpwpZ/eek8hQAkBqUSufTumjT4z09WPDIo/jQiqew6/SZ0rdzgFiz/yDmPvxbPLxte/8/phHIfuZ6jmXI3K0G1eU9Lt8J4OFt2zH34d9izf7iC7xWCrtOn8GHVjyFBY88iuNu29lLLlmKovA7g64VRGW2CkhcVHsksWv2iSOLrVFNPWWHFQ5g+a7deHL3Hnx0+lR897oFmFjhhUDS8crhI/j2K+tTF/SIpNsKS3UIv0T7j06ZkKTEgiA7H5+QxDnF/AtbMRhG32Iui20nT2HpY4/j2jEtuH/hdVjo1TbiA8z+c+fx3fWv4g/v7XSf7SAAJJc6g7LDFahA09+mcltmrwtILqW0NlEQzV9KAWJ1Qp4aBGSc49F3d+CPO3bh0zOuwLcXzC9LBmEhvHHsOL697lW8fPBQ+jdJsrtQO/14t9hALsgKwIRdjG1LzFmvUZYBkyQzNkVeO3oMH/jdH7Bo/Djcf/2Cki3o8pqj3d24/9XX8fC27emDy3aehdMKcgZPRZe2AqlcBQAkLrDY4WS5bwdYG7tjuoxEQCJi+6t3tuK329/F566+Et+4Zh5GelDiuRRsbu/Ad9a9mnmbtAzmt2vV22IKXChK6qhvV+91KgE7qchw33775YOH8PLBQ1g2aSK+d/2CAVnPUQjtvb344YY38MCWrf3jLCLpLC/bUhWpUNPfprJb52b6253S2dFkGWA0JXddJG6a+PmmzXhgy1Z8YFwrlk2aiFsmTcSEMrsHXfE4Xjl8BI9sexcrXcp1p5Bu1AHSC38xgSe3UT+dEkiuHehvjdms2rcfq/btx12XXoJPzrgcC1vHor6MBVkA4MC583jOatdfDh3OLPhA4je6TaOmi1VVWOKPk8pWAIC76a+qiQ7oNM8o7fNL03TCuGli9f4DWL3/AP7XmhdxWUNDQhlMnogFY8dAKfENi5smNhw9lhgVDx3G2yfac1tmnGnrazfh96rzuSnhTEoggzVms3LP+1i5531IhGDmqJFYNK4Vi8aPwzVjWkq6Rh8AdMbw6pGjeG5vQuh3n8kxWJxJ+drXQyTH8u/lpvIVAOBu+tsdzW1KTFES78+gCGx2nzmD3WfO4N/f2ohaVcWSCeNx44TxGFtfh+aaGjRXV6OxugpSgSOpyTk2t3dg7aHDeOngIWw4eiy/aTJ7esnt++3f2m+uPk18oFDsczmVgK2I3awxbsVwMigCk3O8dfwE3jp+Aj/Y8AaCsoxrxrRg8fhxuGFcK9pGNhd13U+FI+gIh9HR24sjXd148cBBvGBvzZUrmQQfsLYsc4iRmytQoQyOVgLupr89yrltJGILB2NWMDF7pmCPpmHF7j1YsXtPynFKCIZXhTCypjahFGqqMbyqChFdR1jX0Kvp6NUS/4c1zXquIazriOh6YfnymQQfcB91gNKNPG6WmD074GaN2dOJOSgCm5hhJOMFQOK6VykKqhUFNaqKGlVFtaqiRrVfK6hWVFQpCk5HIujoTQh7e28PTkeixa1TsFfyZbKi3CyvbMlWFcbgUQCAUKlGOJZpJLL/btcaMI2CtmNm1mhyKhzBtlIvQMo24gCALLlPLbmNRl5in9tpdSlK4toaLkIuKoIcLDIRxnlSmQ5YlqddhyKT4KezvNySryqcwaUA7LlnpwmXaSSyoRSgqlX6yrIIKmkhWy6CD6Tf367Uwm+TTglI1rLhdNu65emaDSgE1tqTHOr0pbO8ANe1EpXO4FIAQPr5aMAaicxUX9WJuOjFTnbhORSc9BpC+hY85RKsSzfqAAPvc7rFZOx2ZLLGgFQT2a5DWM7rLwmLdbKRKbZS7IxLmRh8CgDI3NFsv800+49STggFZFsZ8NQO6TWiwOezKYSdSJKu46VzB0pNOrPftsbs659JsFOUMe+7B6VSCKLCzUdYpQICsYOEwakAgNwCUHY2YS71/t0Eze6UKc+55TrYHVTI9073nBSwDJQgfbafTZ7bXXtOJrPfvpamacVespzLVoopCkF003j654kT9F13UcHmo2zT/YZ8A7GDiMGrAGwymf2FKALn5wdas+ci+JU06mQz+/NVBDaEAKRM8+jZBB/wfqq1TAx+BQD03SxDd+9gxSqCgSKXTjVQwb58sK0xt7wMG1ERVOpy4VwEnyB9NuAgpKieJF6msgfUk1mAurWzjQu2IpDlPn8/lx1nSoVt8lKSW6HISh917FmMTAJuCxkzE/epIq5/joFYezuvCrC8vGpB4QqA9jWi7MJvY08TMmZNNeURgBIVQimhBQSi7Ch/BXS8rCQXBhmZryWV+qpRVPr1tweOChv1k60volkFKwDKOUmJefEKUgS2X5pLJBroHwC0R6V+AUBkPpcY/LPPa7cn38iz/TkP95AbMJxZmNmE2nn9RYVgv06SpaO5Bf+cAcZ8fkcF5vQTpHYlynnBI0MRLgAFcdyIilEANoUGoHLpKOI6ea+p0BEnb8QszGwWmUg+gleK+5BLILaMEMAhe4X3k+KiScJFT1gBFacCEhSqCDLhC37u2BZZvoogFy4iwbfxcqv2whUA6W93UAAVlODZn2QAqgICgCKD1dTPF1ER5OIaDAT5BgLLDIVLAJAU3okLVwCmGXceooQMjp1iyhUATPl+ITPwYkO8/nbmnz0jMJDfX0hcpsy47nrsIou5UrACIJoecbt0EoAKnWV3xy0AmBIE9CC6OchGmQGFUgA00XEAb60zZ2bgIL/+Etyn/4imRwo9Z8EKQNK0qOEiGZQA5iAwAtKSrpO4zQjYOItwuj33yQ236y9e73TPgf6R/wsMak+3OZA0reC92fJSAIT0xR6JFouQNOkIMjgqNNercC7gjlXx+EoVMoB08ka0WNICEGU01/NmhBDCuaVpUxTYezQkAAAWOklEQVRALB5NZxvbgYrBbAj4+FQKBPZEn7tEJWTRei7KaA7KwNUhOn/+fPYPdnV1E6tx/R7kQllk4ONTfmRY3g3cH7TLuVFkf9LJdNaIiEOLJJ9X7dh+HBwMVpzM+aDoi+v4+PgUhgRLSNPIGThY1Y7tx4WPFGwBuH7Q+dx+zbq7dejxzkwnT/gtPj4+hUCQgyWtxztZd7cOpMqn/drtOQRZT7EAKKWuGsPtw4QQTmPR42ndAOsxuMsl+PiUDwWZZYsAoLHocUE+s47+ThlP6wJEo1HXkxmGYWdrcBqOHO/3QecXwlcCPj75oiC3DH9LBjmQIpspMivKcr/Pp7wQtIN4Ak3TxBMnn9OurmOZnBP7IYH78QAfnxyRAEg5yBXALRlMIMqmQ2b7TP5cLQCH/yDmaCaPKwcO7slmoiRdAc79eICPTxZEWclJrg4cFHexcZXZTMHAFAWgKErf6E6p6wns54QQM/DOpkMwzO5clBUBEPCVgI9PWlJkJBcDwDC7A+9sOkQIMYH0QT9RlkUZBxwKIBgMJv8oSZKrMqCUmkklYJqMdnftKOgH+vj4JClENmh31w5imgywgvKUJpfhiDIryrIo44BDAdTX12dVANaXMWvKgdHTne/mpq4SDwIOdTCsGPTxGUBUnpCNfGSJnu58V5RF8XzpFIAo44BDAWzevDn5x56enhQXQDyhYSR2gzBNk6m7dm7Ls92gnCPgKwEfHwCJkZ9ynpcMgQPqrp3bTMsCsGUSSAi/6AKIsizKONA/CJgi9OL0gaZppvC35FRgYPvWY9BiHbkGLeyHxDmCjPnugM9FCwEQZAxSHkE/+wEt1hHYvvUY+vJyxBmApKxGo1HuCAJmVABcnCaQJMl0e27FAZj9pXLHqXV5qy9wUHAEfCXgcxFCAAQYAy1AbgBuyVzSHWei/59Bbu0TJOk3DSjLMhOeu54IABhjuq0AAm+/sRaM80J+C+UcQWYWU9nYx2dQQYFEny/A7AcHwDgPvP3GWiChABhjKXuzibIqyrAo22JbUhg6dGhyKb+qqqLZz3VdF7WJYWkfU921qwPR8O78LkMfhAMB04TsxwV8LnBkzhEwzX4VtfMiGt6t7trVQQgxrdE/KbO6rpuiyS/KsCjbNv0UwM6dO5Mf6OrqYmIcQDQzDMMwADDTTOwFpRw7+kph6kyYHWAm1EooFOnjUwJUxqAyM+9ov/ORkDXAkj1mySKAVBmNRqO8q6srKVCibCff79JOM10cQFGUpKlBCOGiGxB8+cV1xDTDRf42yIwhZBoJ88jH5wKAco6QaUBmrCjZAAeIaYaDL7+Y9P8tGUwKiyijLv5/TgoAgUAg+UZVVZPaxekGSJKk202Tzp2L0o721UX/QnAQzhE0DSi+NeAzyFEYQ9A0rMrdxT9oR/tq6dy5qH3AkkEAruZ/UnZFmRZxVQB1dXXJN4fDYUN0AyRJMoAU7ZMMQoReXP0UDBb34HcCHFBMEyFDh8R9ReAzuJA4Q8jQoZimJ7IADsBg8dCLq58C+oLwohVuyyaQMP/D4XDytSjTIq4KYOfOnSnBAlmWDfG5XXiAEMI45/HkdOCJE930zKm13v3ihDUQMAwEDKOY/Q98fAaE/v3Vuwc9c2qtfOJEN5AYgG3Zs+XRKadiu5wybZNu9o2J0UMXNyBpBUiSpFnRSBMAguvWrgDnhoe/G+CAxBhCuo6A4ccHfCoPagl+SNcheeDr939wI7hu7QogsRCPEGJasscAQNd1I535b8myqxmddvp91KhRSd+it7fXjMVi4ooi3fpSbhgGY4zp9myAun9/p9zRsaoEVwAAh8RMBHUNAUP3FYFP2UkIvo6grkFiJkrV7+WOjlXq/v2dQCL6zxjTDcNguq5zIDX4F4vFWG9vb3IAF2XZSdo6He3t7byqqkq1X6uqSiilEpC0AighRKaUUgD2/yoASIcO7NKuuOoDoFJVLhexECjnkE0zGR/g4qYQPj4lhHAOmTGopgHFMEs/EOn66erHfvcjGo/blncMgE4p1QAYjDFNVAAAkgMyAOzfvz+W7tSZEvB4KBRKmhGxWEwXg4GKomiw1BOl1GSM6YwxDQCkrq6YunvHw6XShil+EWNQDR0hLY6ArkE27XlWHx/vIEgMOAFdQ0iLQzV0UMYwEH1c3b3jYamrKwYAjDGNMaZb8/0cALdkEUAi+BeLxZLKwJLhtAKRsVJXd3c3qqqqFAAghLhZAYRSGmCMgRBCJUkisKwAZd/eI/HpMy5DQB2Z9ep6BOUJF0ExDEiMgXAOApKwDnx88kRiDLJpQDUMqLoOiQ3AaO+AdPe8U/vH3//Wfk0pjQLQ7ei/aZoRR35Oyuh/8uTJODJs2p2tVB+rq6tTGGMESBQdVFU16RZYyw6Die8lMueccc5lQkhCSfR07zEmX7oIhAx4XVDCuXUDTSimAclkoIyB8sTMAiHwFYMPAIDyRN+QGYNsGFAMA6qhQzbM5EBSFhiLhl54/vvymdO9iZdMBxC1ov4apdSUJKlXDP5FIpEYsfq1LMssHA5n3Dk4a9nxkydPxhsaGkJActTXFUVRgIQCMAxDAyARQkzOOZEkKco5VwAg8P7udn3PJf9tTJn6DwVeAm/gAOXWgiOz358AQoT/faVwIUPAgWTZrcq+2/KeXf8deH93u/1akqQoY4xbssYZY5q4wEfX9ZSsQGv0z/wdObTDkGWZGYZBASAej2u2AgAAznmUUhpkjBkAZEtLxQkhAQCoee7pdd3DR1xhDh++OKdfXQ6EjlDJHcLHeyo1WiSdPv1SzXNPr7Nfc87jnHMdABhjBqWUM8ZSdgWOx+OaOPoD2ffozala92WXXYbz58/LQCIWQCmFHQuglHLDMBRKKSWE2JsB6bZrAADKgX1b9WmXz+WSXJ/L9/n4XMzQeOxI7R8f/QHpK+zBASQTgAghmhX5j9oCbxiGJvr+Y8eOjbe3t2dNoc1JAbS3t6fEAqx5SFmWZUIIga7rRJIkhTFGLCVg1yRTAYBomkkikfeM8eMWglJ/nxAfnzQQ04iE1r78XeXY0XPJY4SEOecGAHDONUqpYZpm1A7+xWIxput6cqpPlmW2d+/etFN/Ijnv1xEOh7k9IwAA1dXVDKmb/lBCiGRbAZxzE4nYgAwAcuepbqaq+8zmkdfCChL6+PgIMKYHtmz+Qejtje/bhyzTPwr0jf4AYpTSuF2nU1GUmKZpSW+ms7MzhgyRf5F8BJE1NDRIdizA+kIqSRK1GiKbpsk550mhh9MVOHL4JK+tP240Ns6D7277+Iiw4I4d/171ysubhGNJ0x9IjP6c86gkSYYkSXEA0DTNcM77d3d3a8iRvEbi7u5uVlNTo3DOk66AaZqKoihE0zQqyzJhjIFSqgJ2oJXbSgAAoBzYd9RobOphQ4bNzOe7fXwuZJSD+x+oef7ZteIxxli3netvrfyLyLKsG4ZhyLJsRqNRbhhGctqPUso7OjpiyCO2ma8pzseNG4dwOJwMCNqugFVwQKGUmpxzCZZ7IBQsDNgnCezZvVcfM5qxuvor8vx+H58LDvn4kd/XrVzxlHiMENIDQEzvjUmSFAEASZLihBCuqmpM1/Wkqd/Y2Kh1dnZmjfyL5O2Ld3Z2mmJAUNM0TimFJElU0zRJkiQKwKCUqpxzCgBWPIAKrgECO3fuMEY095pDh1xFfHfA5yKEA0w9cPDBuqdWrEw5znmMc54M4lk1/3rsgjyKouiGYWjRaFRc/ssOHTqUU+BPpKBgXDgcNsWFQmbC+Zes9ACFEMJN0zQopQH0CbdhxQeS3xl4f/f7rLa23RjWMMsPDPpcVDCmB3bv/Gnt6udeTD3MNEJI2H5tmf7ddq0/SZLiuq4buq6nJPl0dnZGUEBaQ6FCx6dOncrt3ACgTwkwxmQ7MChMBRLrx+hOJaAe2H8Yqvq+0dg8DySnxCQfn8EN47HQti0/qF73l7dSDieEvxfJBFXCKaW9VuQfuq6bpmnGDcNIzv8DwLhx42Lt7e2uFX+yUfCo297ezhobG6mmafbiINTV1ZmMMUUw9Q0kVhwmpwvdlIBy9EgHjUTe1keNuoJLUl2hbfLxqXSIFj9e/dr6fwlt3pRSRt8p/ABACIkCiNivKaVadXV1OB6PJ99TU1Oj79q1K+eov5OizO6uri6zrq5OtuMB8Xich0IhPR6PB61YANBn+idHd0JIP3dA7jx1Prh3z0ta6/gmHgi0FtMuH59KROrqWj9kxRP3K8eOnhGPC2Z/UrCtcl9hO7df13UzEAh0ifv8ybLMjh8/nrffn9KmYj4MJOIB4tSgpmlcURSTEJJcQGQHAa30YYLEDzVhrSK0z0U0zQy9u+0NY1jDGbO+fgYI9V0Cn8EPM+PqwQP/M2Tl8keF9F4ACUFHYoVfcptvzrkGICzW+CeEdEWj0eSsAKWUnzp1yq4OXDBeBN54JBIxxSxB0zRNVVUJ51wFEmnB1iomYo36xNJshvWcQpgJCOzfe0AKR97Um5rHc0Ue4UEbfXzKAo1Ed9VueO1fq996/R3Hn1ga4Y9zzmOyLIvCHo7FYhHxw6dPn44ix2y/THg5/Sbby4YBgHNOgsFgvZgERAgJmqapEkICtsWQOEyChBCVc95vxO++6ebF8THjPgnZjw34DCIMsztw9NAjdWuef8n5J8sF1qypvmTAj3MelyRJE6cAOeexWCzWJS7zPXPmTBQ5rPTLBU/n39va2pRDhw4lBT4UCimMsWpKaYBzTjjnhBASZIzJlhKw4wTEei3by4hFjIaGmu4bln7aGDbkBnB/H1GfCoaAyWfPr61bu/ph+cyZXuefLd/esEZ/W/gZ5zxOKTU45zG7zDdjLE4pDYum/7hx42KbN29OW+Qz/+Z6zNSpU9WTJ08mhViW5ZAsyyohJCgqASsIqDLG7FGfUEoVxphCKVWsbMIUIpdNGxO58qr7WG3NfMDPG/CpJLhJe3pfr9r6zuNVu3ccdf6VEGJatfx0q2YGBxJJPpxzzSrykRR+znnMMAzNMIzkmv+mpqb4zp07C474u1GSDDzREuCcE1mWQ6qqygBClhKgtkJgjMlW1qC9dkCyrABKCEnmEIhEx01sDLfNvMccUr8QROpnMfj4DBjcjEvnu16p3vz28tCh/afc3mEF9eyNPEwgubemZu2yzS3hZ5apH9U0zbDm+zng/chvU8oU3GRMoKamRuKchzjnJB6PBxVFkUQlYD13ugT232SapoaA3tRU3z1r3lKzYeh1XFZbSvhbfHxSIIZ2TDpzbn3dpjdWKydPdrm9xyrcmRRwOEx+W+Bt4bem+mwrIGrX9vfS5+/3O0pxUgFpxIgRIcYYCYVCipUaDE3TVEmSVKfgC+Y/QcIlkBljCgBkUgQA/n975/fbRm7E8eGQ+0OSbSUIVMFGYD9U7YMPh+tVb/fev7rvfXOvh8P5oU0fbAQ2VCNIZFtacskZ3oNJZbWVbcWJnLWzH8DQclcStMZ+hzNDcgiz738Yzf/057/x9s5P7WSilk0giC7x6vIf3f/8+++9X395c9v7ovABAILL7wAgxvUWES3AsiEgojJN0zJ83hRFYRHRX1xcFLBiV98vdk+b+uIKOBwOO845TJIkD6EAEJEMCcHoCVR7/3puIGVmCXC/IfBJgrMffvzO7O796La3v+Ms/yMsFy5paVkXi0b/V11d/Zadn/3c++Xn30Rl9V2dmvAp7JOxFOvDshegEZG99zpu5V2WpbPWaqUUTyaTLzLUdxePtQpPvH79Oi+KQimlOlmWRTGLsiwzKWUS9hdYJPa89zIkBWWlvZQrkFLKVcnCKpxlydVf/vq9+8Pw0GX5nk/TXUiSoReit8kbbnlaCO9nYO1ElOW5MvpM/W9yvP2vf/6KxtwZdwshiIioHtvHdtw0J7Yr5wwR2TRNTYzzjTHknCs6nY57+/btJ63rfyiPugw3JgerRgDgxhtAxKwsy1xKudRb32cIwjkVZhmuPURohsMd83p/nzqdHZ+mXZaqA0nSZSU7QmDW7ILRLZ+KAA/es0FHBZCdo3WFKMu5LIrL7O3paTaZXN7/LQuYmSn29gDrCR8AIIheM7OJvT7AR/FvKtl3G1/jKcfBYNAVQvTyPF8SbFmWKSLmMQFYvea9xzg8GJKDMrSr3yG89xg8g6XZhS0tn4EPcTqFWXvVBTschR6Sd1H4S657TPYxs46xfkRrzd77WVjSu1GXv85XE8jBwUGutd6pegIAH8OCJEm2qiFBhTh0qILIMSQLV60biAYB4zG0RqHlbnwUORFxXfARRHQhucfBCLhQuGPVe8lae1119yPGGMrz/PLk5OSzFvU8lK8tBrm3t/dCKZXWL4Revuu979W9gcp7UEqpmFl67zHkBdQthqOKgI81CxdTksPehi3PHCKKO29CRZCLc7eBiERELvT2XGmv7LWDRzATQszrwge4qeV/dnb2ATaY5b+PRjzwr1692kbEXqfT+b/fw8zIzFurwoIagpkXicFYmCSEDO304ZZPJozTExFxmLBDRESVnXlv+5wPGf7rWLq7SlEUnpln7969u9roDaxBIwwAAMBoNMq01j1jTLrKEBCRBICOcy6TUq6zTFgErwCllJKZVSUcwHCtMfff8vUIPTUDAEe3P2y+QcEIrAwD6hCRU0oZACiqCb5IURQ+y7Iyz/PZmzdv7t237zFomgDUYDDIO51OorVO60lCgBtDYK1NETFTSq3j7tepuv4xLwCVAiZN+5+0fFk8AAARLcptQ5ikU72+LohIzjnHzCZJknKV8LXWnOd5WRSFDZt2bGRW30No4sOOu7u7eVmWstfrKWNMUk8UAnw0BHFaMTNLpZR8gEFoaVmbIHhCRIrTd28TvjGGsiyzs9nMpWlK5+fna+/Y81g00QAAwE1I8P79+xTgprfudruqLMuk7hV470XYsVwxcyxDjuFYeO9RKRWPG3u/Lc0heAPeObdw/xExHgMisrXWJUli68k9rTWnaWrn87mL116+fFk2xeWv03RBLLyBeKLf76PWWjnnVN0YMDNaa5M0TWU0BnWqWf9au+UbpO76r8rWA9yIvixLSpLE1hN7WmtWSrk8z910Ol1ca2qvX+VJPPzj8Tg5PT3NYvHRiPdebG1tSWutJCJZNQjee+GcU8ws0zTF2wxCS8sqguAZEUkp5aqGQWvNUkpKkoSur6+pbjQQ0e/v75vHnNH3UJ6EAQiI0WiUxrDgNvr9Pjrn0DmHYQgRQ3myRTucwyzLRCxS8lg30dIcYvENY4wPmf/Fn9aaxU1dfkZEVkqxUoqrPfwqgru/WPTTdJ7igy9Go1E6nU6TukewDlHsL168WPosEbUhwTdA7K2llEsC/fDhw50hwF0gou/3+/YpCT/ylB92cXh4mFxcXKQPMQQtLZ8LIvrBYFAeHx8vSnw9NZ6LcNTBwYGaz+eqNQYtmwQRfbfbdScnJw4aNJ7/UJ6bWMR4PFaTyUQZY2RrDFq+BIjosyyj4XDojo6OVi74eao8d4Hg4eGhury8lK1BaFmXKPidnR06Pj520OBhvM/lWxOEAAAcj8c4nU5Ra41EJKJhqL+2PC8Q0ddfpZQ+z3Pu9/t8dHTEcCP2Z9PD38fviY2UjgEMGEEAAAAASUVORK5CYII=;rounded=1;" parent="1" vertex="1">
          <mxGeometry x="649" y="20" width="61" height="61" as="geometry" />
        </mxCell>
      </root>
    </mxGraphModel>
  </diagram>
  <diagram id="yhkTbp7g_Lfck807OxxO" name="gyro_setup">
    <mxGraphModel dx="1420" dy="830" grid="1" gridSize="10" guides="1" tooltips="1" connect="1" arrows="1" fold="1" page="1" pageScale="1" pageWidth="1169" pageHeight="827" math="0" shadow="0">
      <root>
        <mxCell id="0" />
        <mxCell id="1" parent="0" />
        <mxCell id="BQhlfXO4XIP7kFL3tKAZ-1" value="&lt;h1&gt;gyro.ino&lt;/h1&gt;&lt;p style=&quot;font-size: 14px;&quot; class=&quot;MsoListParagraph&quot;&gt;&lt;span style=&quot;&quot; lang=&quot;EN-GB&quot;&gt;&lt;font style=&quot;font-size: 14px;&quot;&gt;In this file,&lt;/font&gt;&lt;/span&gt;&lt;span style=&quot;text-indent: -21pt; background-color: initial;&quot; lang=&quot;EN-GB&quot;&gt;&amp;nbsp;it contains all function of GYRO including setup, display on the lcd screen, auto balence.&amp;nbsp;&lt;/span&gt;&lt;/p&gt;&lt;p class=&quot;MsoListParagraph&quot;&gt;&lt;span lang=&quot;EN-GB&quot;&gt;&lt;/span&gt;&lt;/p&gt;" style="text;html=1;strokeColor=none;fillColor=none;spacing=5;spacingTop=-20;whiteSpace=wrap;overflow=hidden;rounded=1;fontColor=#393C56;" parent="1" vertex="1">
          <mxGeometry x="430" y="40" width="310" height="150" as="geometry" />
        </mxCell>
        <mxCell id="BQhlfXO4XIP7kFL3tKAZ-8" value="" style="shape=image;html=1;verticalLabelPosition=bottom;verticalAlign=top;imageAspect=1;aspect=fixed;image=data:image/png,iVBORw0KGgoAAAANSUhEUgAAAQAAAAEACAYAAABccqhmAAAABHNCSVQICAgIfAhkiAAAAAlwSFlzAABJ0gAASdIBqEWK+AAAABl0RVh0U29mdHdhcmUAd3d3Lmlua3NjYXBlLm9yZ5vuPBoAACAASURBVHic7J13nBTXle9/91bo7onAwMwAA0OURJCQNGQJCQuEEMqyLDmu7fXa6/h2vev31l6H57XW4X3W3l3b+/GuZcmybNmyZBCyAgIFLJBQAIEAiSRynIEhTehU4d73R1f13K6pztXTPVBfPv2hu6a7+nbVPeeec+655xJcmFAAdOrUqTQcDlPTNIlpmoQxRgDA+b/PxQ2llDv/lySJS5LEq6ur2c6dOxkA+3FBcSEIAGlra5NPnz4txWIxyTAMWu4G+Vy4yLLMgsGgOXz4cHPz5s0GAF7uNhXDYFQABIDU2toqeyHwnPPBeA18PIIQUpQA2wrh8OHDBgATg0whDKbOL7e2tsqRSETOxXSvr6+nhmFQwzAo55wwxijnnNgCHwqFBtNv9ykx0WiUAwmFQAjhlFJGCOGyLDNZlllXV1dW859SyquqqgxLGRglb7QHVLoQ0EmTJildXV1KJqHnnJOamhpJ13XJNE0pGAz6boCP58RiMSZJkqkoitnb22tmsh4opby+vl7ft2+fjgqOHVSqAqAtLS2BaDQqp3tDfX09jcVismEYcjECL1oFPhcX9mhf6OdjsRiTZdkIBoNGJgshFAoZx44di6MCFUGldXyppaVFTSf4nHMSDAaVXIXeNvsZY9R6TgOBAPGF3seJrQzi8TgnhDBKKbPdAEppVsG1lUEsFtPTKRVLEWhIxAoqgkoRgowjfnV1tRyPx5VAICBlOgljjJqmKTHGJEVRJF/IfbyAEMJ1XTcppaYkSWY2hRCPx81AIKCHw2HXOEAlWQTlFhAyadIk9dy5c6rbH6urq+VYLKZmGu0Nw5BN05QLEXjh/cTx2ucCRhihueN1zp/Xdd2UJMmQZTltsC8Wi7FgMKilUwRDhw7V9u3bp6GMMwfl7PDyiBEjgm7BvVAopMTjcTVdpN40TckwDFlRFDmb0Frmvj0DQBVFST736of4DH4IIcwSbGY/t//P8jmu67ohy7IhSZKraR+NRnkgENCi0aju/BullHd2dsZQplmDcigA0tLSEnQz96urq+VoNBpwE3zOOdF1XVEURWaMpRVey+eXOOdUlmXJF3SfYiCEMMMwTCsukC3yz3RdNxRFcY0DRKNRHgqF4m4WgeUWxDDA1sBAKwBpxIgRIeeozzknqqoGVFXtpxRswZdlWUk32nPOKWNMkiRJzkfg1Uun1dFxLQ20dkg1qa6qpoGqGhKQq4mshkB8d+CCghPODS3K40bYjMXCiPT2sp7zYXbo2Bltz47uXE9DCGGmaRqWMnD14Qkh3DAMPZ0i0DTN0DQt7vybZQ1EMYBBwgHr5FOnTlVPnjwZcB4PBAKqLMv9YgCcc6JpmprOzLdHekmSlGxCr0y/cmhw/jVXS8OGTKRVNeNoIDBWUuTRRJKGFPerfC4EuGmeN3XjOIvHj7BI7yHz7Pn9sdc3bNHf23ou0+csZaCnswxs90BVVc3t74ZhaPF4XHMeb2pqiu/cubPf8VIwEAqAjBw5MqRpWkoEv76+nvb29gbdAny6riuSJKlpBJ+apqlIkpQ2R0CaNKm2avGSuUpT82yppvYqSVXH88QCIR+fnCAAMzXtoNnb845+smNj5KUX3jT37etJ937TNA1JknQ3q4AQwk3T1BRF6RcDiMVirKamJubMI1BV1Wxvb4+ixC5BqRUAbWpqCjnz9aurq2UAQeebTdOUKKUBNx+fMSYxxuR0gi+3tlbV3HnPMmlU8zIpWDWD+ALv4yEcYGYsss080bGq96nlq4zDhyNu77PcA4NS2s+Mp5Qyxlg8TbAw5owNyLLMTp48GUUJpwtLqQDoiBEjqpz+vqqqAUVRFPGYbe7LsqzAAeecUkpVxli/HABZlmn1pz9zrdI6/jZSU3MNAQl5/zN8fFLh4FHe27tBP3zwmfDDD71mGEY/AaWUmowxzc0iMAxDd3MLdF3XNU2LO87DOzs7IyiREiiVAugX7OOcE1mWQ06TP92ozzknlqnfTylItbVy7d98/i5l9OhPQJbHlOg3+PhkxzCO6seP/67nwf9Zafb09Ivum6apW66BM+Dnag3EYjFmGEZUfH8pg4OlUAByQ0NDykhcX19Pe3p6Qs7pPV3XFUppv8CgaZqyWwxAaW4Jhv7qEx9Rmpo+TCS5sQRt9/EpCG4ap/STJ/8Y/e3vHtM7jsXEv9kxAEmS+ikIxljcGRuIRqO8trY26owLnDlzJgqP8wW8VgBSQ0NDlXjATfgtkz8gy3KKP885J5Y1kGruKwqp/crf3SePHvO3lPqRe5/KhTHzvHH86C97fv7Tx6HrzlHfZIz1m/4zDMNQVTXleAYlEIGHloCXCqCfz19TUyNxzlOsAcYYJYQEnSZ/ulG/6oP3TgvMnP3PJBiY6mFbfXxKCo/Fd8bf3viDyIondojH01kDlFLGOY851xkQQqK9vb2m8D5PYwJeKYCchR9AyCnkhmGoTl8/OHlyjfqRT/ydPHTo3fAj+j6DE2acO/ek9tjvfhrbu7dX/INpmrosyylz/ZYFEB1IJeCFAiBNTU1V4lSfm/CbpikRQoKi8Kcz+avv/cgMddasH0JSRnrQPh+f8mLq7dqmTd8IP/HYNvGwm0tACOGc85gzOOhUAtYUYQRF5glkXF6bCyNHjqzSdT15nvr6ehoOh0OKoiQFPY3wU+tYShvq/vc/fUq6bOr9oLS+2Lb5+FQElNbS0WNuCcy4Qo+/vmGrfdiSAYlzLi46IoQQmTHG7CrFABCNRuW6ujozHo9zIFHResiQIVJvb2+/5KJ8KEoBTJo0KRAOh5Omu5W3XyUG/LIIf9JqUC+dVlf9d//4Y9LQcC9I8YrJx6eiIJBIbd3cwDXXT+cn2jeYZzrt+X5CCJE552YmJaAoCgmHwzJjzCAkIUqmadLRo0eTs2fPFhwULEbQJEJISjafLMtVoVAoKdRWwC/F52eMSZTSFIUQWrx4bOBD9/4ageD0Itrj41P5qMpY+corb6Tc3GAcONBlHU0KvFMJiIpBURTCGJM558lRPxaLSdFotOBqxIUqADJixIgqUYgVRQmKFXvcAn6W8AfEY8G77pqqXL/4l5DlpgLb4uMzuKC0jo6fdBOtrXrb2L270zpKKKVSNiUgyzIBQBljyVmEmpoaORKJFOQKFKQAWlpaQqLfX11dLUuSlFzRxzkn1shPhWPUOfJX/dWn5koz5/ycSJLv7/tcXFAaoi1jl8ojR+7Ut209Zh0llFLJ6Q5QSiUASdNfkiSqqirTdZ0BCXlraGig3d3deScJ5a0A2tralNOnTyeFvb6+njLGUiL+8Xg8ZDUaVgOpMw4Q+tznF9Ep039MCPXz930uTghR0di8RB4/7qCx+e2DyaOOUd9KnJMc5cfkqqoqww4KGoZBp06dytvb2/OaGsxXARDDMFLMesMwQpZZAgBwLuqxrIGUgF/wE5+cR6dO/zEhxLUWoI/PRQOBhGENH5Cam98ztm9LWgLW7IApjvqGYUCcHoxEIpIYD+ju7pbydQXyUgCTJk1KqdwbCARUsYqPtbAnJTDodAWCd90zlbTN+jlxvM/H56KFEAmNTQvlmto3jd07kzEBQogEIfffdg/smQFZlgmlFKZpmkBisB09ejTymRXIRwFQQvqW29bX11MIa/otqyAEIbnIMAyVEJJUEOoHFo+Vrv/AA6BSXR7f6+Nz4UOISkeNvoGY7C/mob7ZAdM0iVhbwJKnZDyAUiqJroA1K5DzpqU5K4CRI0eGTNNMjuSmaQZlWU6+1jQtKPr9dm6//Vq5/PIh0p0f/DWXJX8Vn4+PC5ySEBk/4XpyqmMVO3UqBiQEnDEmbk5CdF2nYjwgGo2mzArkkyCUa469JJb0qq6ulsUpP9M0JXFlH+ecisIPAPSej3wfsjwqx+/z8bk4keVR9J6PfF88ZC2So31vkWXTNJPyFwgEJKvKFgDAktWcBvec3iSO/lahjpRUX2eyjzXXn2yw8g//+zNk6LAP5vJdPj4XPYoyhl5+hcHeeP0d6wihlFI44gGEkOQoH41GJTFLcMiQITQXKyCXxUApa/ydVXw1TVPF0d40TVks8kHvu+8q6erZD4ixgEqGcYAPri3efXKEgIAOkmLvnHPD3LLxc+zxx20lAKuCUFIJmKapqaqaXFHorDKcS+2ArJejpaUlJEb+KaXVdq6/M9tPSAAiAEAnXlpHP/OZJ0gFZPlxDhicQWd9D4NxMG49AHDuC/7FACEEFAAlBJQQyJRAoTT5kAkFqQBFwQ3jJHvooXvZ/j3dQHKlYLJcmHP5cDQa5YyxsP15a7ORaKbvyOYCSIqiJEfzUCikiNN+mqapjsCfak1dAADoF778dRKqmpnbz/UWDo6YydCrG+jSNJyNx9Gj64gYBmKmCZ0xmJbw+2J/8cEBMM5hcg6dMcRMExHDQI+uo0vTrD6S6BkSISjLJlqU1mDS5KH81XXrrCPENE0IswLEMAzIsmwCibUCsixzu0ipYRg02zqBjAqgtbU1IAb/GGNJ399O8BH+JommP7n7Q1fQiRP/CQN45QzO0WvoOK9pOBePI2wYiJsmTH9k98kTk3PETRNhw0CPpiNmmmDgkOjAuhEkGLiE19W/iV07TwLJXIDkegE7FmD7/rFYLCU5qLGxEV1dXWlThDMqAFVVk+m7LqN/QBz9xcAfl2VKP/zRn0KShxf0q/OAcY6IYeKcpuF8PKG5fYH38RqTc8RMEz26jpiZmJGTKAEpva9A0DhiGnt13ZOEJUwSSZIIhICgruskkxUQiUTS7jKUSQHIoVBITOkN2im/diUfWKO7VdEnGQikX/77j5EhQ28r5NfmisEZuuIJ0z7qC73PAGJyjqhpolfXYTAOmVLQUhq6ktxALpvai7fe2A4kptlFK0CSJAohOSgej1PbCuCck2g0ypCmfFhaBdDS0hKwy3zV19dTSmlSwHVdT8nwSxn9x0+uIdcv/HcQ9Cv37QU64zhvjfY6K9mGKT4+OaGzRJxJ55YiKJUeqK65nB849Cdy/qwG9LMCiLhOQJZlImYHNjQ0kHQrBdMpAKIoipirr4jmvuX7u47++OvPfBo1NdcU9CMzYDCO83ENXZoGwxd8nwrDYAxhw4DOGBQqgXrtGhASwNgxGnnj9c2AuxUg5gVomsbtNQJWMNA1J8A1E7CtrS1lzl7X9aQrYBhGym69YjVfMnxkgA8bfh/niWk3rx7dmo7OaBQxc8B2TfbxKYiYaaIzGkW3pnsqA5wDfNjw+8jwkUnLWpQ9zjkxDCMpt6LMAv1lOnkO14OSlDT/a2pqJHF5r67rqpWVZGuhviSgz3z2w7S+flH+l82dmGnibDyOuC/4PoMMjTFEDQMSpZCpN1XtCaUhc1zrebrxzXeBhPwBSNYNME0T9hoBRVFIIBAwNU3jABCPx+HmBri2LB6PJxWDpmlijj9RFEWcFuwr+lFXJ5HGpo9zFP/P5Bzn4nGci8f94J7PoMXZj734RxqbPs7r6lxlUFEUSbTORdkVZVrETQFQcYMPcdGBi/mf/AJ2z703cElqLtbM0UyGM7GYb+77XDDETBNnYjFoJiveDZCkZnbPvTfY5xZl0OkGiLJryXQ/ee93YOrUqSknFHfzNU2zT+AZk1Jq/o1quZUjkXJU6CNsGDjrj/o+FyAm5zhrJacVKyd8VMut9nk551S0AkQZDQaDVBywRdm26acAuru7kyerqalJMRtUVRVLfvfNCkyZMoSHQvMKNWsY5+jSNPTqRe1x4ONT8fRaqcasGJcgFJpHpkxJbpIryqIoo0CqDIuybdNPAaTz/03TTPEvxPX/8RtuXMZBlEJMGlv4/UCfz8VC3DT7lEAhbgCIEr/hxmX2+Ry1OIho+meLAzgVAEnn/4vPreh/30Tn8MZbCrkQjHM/ocfnokRnDOfjCSVQEILMcc6J6I6nk1tLtlMSFJwKQKzjT8QtvkQzQ9zaW581t4mrytR8zRiDM5zXNN/f97loMXkiq9XgLH83QFWm6rPmJpfZizIpymooFCKO3bhTZD7lRVtbW/J1bW1tijIQp//EDT35lTPm5GvCmIyjW9ML134+PhcIjCdkwWQFuANXzphjn0eUSed0oCjLoowDDgXQ1dUlmhEpCkB8nyzLfdbA0IaZ+UQwGefo0X3h9/GxEWUiL1ka2pCstSHKJJAqs6IsizIOACnTArFYTDQjiJXwZ2/yaZ+YQvAjWHXVzERzcoADPbrum/0+Pg5MSwnUKkrOFTR4dV+xHUvgKSGEAQmZtSsFiXE9UcYBhwVgmqbo89Nsz815C1o4lUfmarL0GoYv/D4+aTA5R69h5O4CUHmkOW9Bi/35nGRWkHHAoQBETSF+SIwwQtBP+tSpV+f642Km6a/i8/HJgmGVJ8sVhwwmZVOUWYcySHXnxRfiH0UfQlVVyizhTTlxXe14noP5bzDuz/P7+ORI3DQhWcVKs8Hqasfbz0XZFBOCRFl2KoC0y5TEKUBHAlCfOREItmZP9AGiRt67Fvv4XNREDSNRoj7bjFog2Gp/RpTNlJ24BVl2ktYFEHHMAvRpE0Udly1SGbVyn318fHJHlJ2MMwGKOk74mOugLZLJAnD9sPN5cg+AUIhClloyJStozK/V5+NTKCZPyFAmGYMstfBQKLlrVybZFU7dt4tXnm3qW2s8a25Lpvx/xgHd9IN+Pj7FoJsssysAomiz5rYIH8mrFpmrAhgyZEhWU8IcMmRophNrpumb/j4+RcKRkKVMpJNFUXZFmRbJul+f04ywE4JYIFCVbgbA5Nw3/X18PMLkibUzUppCoywUrLafizKabvAWKXjDTh5Qq9PJuG/6+/h4i24yUMm9iDdXlCrXP+RAXgpA1C6mEqhyk39/rz0fH+/hSFgCbuXGTSWQVAC5jPoihVsAilTtJup+tp+PT2kwGIMi9Q/bcUWqdnl7ThSuAIgccroA1sSEj49PCbBX0xJHoJ8TOVToOYspWN7vsybzxd/Hp5SkkbGC5bhgCwCEE3G8T8xJ+vj4lJKkFZCS1pOf3y9SsAJgLCH0ydf+tJ+Pz4DAOE/ZjbiYsFsxFkCKyPvi7+MzMNjrAJKQwkffwhVAIu+44I/7+PgUTors5Tn1J1L4LADzR30fn3KRYn0X4QIUPgvA3ZcO+/j4DDBFyKI3+xb7+PgMSnwF4ONzEeMrAB+fi5giYgCFRx59fHw8pAhZLFwBkDSLk318fAaWImSx8DyAiwxKCEYEg2iuCqG5qgoNwQC6NR0dkQg6IlGcjEb9XY4HCIVSNIVCyXtRpyo4E4sn70VnLOZnpuZIwQqAFDP5WKFIhGBOUyM+MGokJtTVYmRVldXJQmgMhdJWZAES87Jn7U4YjaIjEk12yKO9Ybxw7DjOxeMD92MGMUMDASxpGY0xNdVJIW+uCqE5lHg+LBjIWPjO5BynkvcgivZIBAe6e/CXE+146+SpC65aVTGyeNFbAA3BAG4a04Jbxo7B0rEtGBYIFHQeYp2rIRjANPQv0WYwhg0dp/DM4SN49vAR7DnfVWTLLywuHVKPW1vH4rbWsbimuREyLdw7lQjByKoqjKzqXyjnbDyO1UeO4bkjR7Hm6DGciV3cSrmIVODBGwO4cngDlo1NCP2cpsaMI7tXyJTi+lHNuH5UM348bzb2dnXj2cNH8MzhI3i1/eRFV0hFphQLRjbhttaxuLV1LCbX1w3I9w4LBPDRyRPx0ckTYXKOt06ewnNHjmLVkWPYevrMgLTBc4qQxYvKArh93Fj86+yZuHxYxoLGA8Lk+jp89Yrp+OoV09GlaXj+yDE8uGsPXj5+otxNKymLRo/C30y5FDePbUG9qpa1LRIhmN/chPnNTfj+7Jl49+w5fGvj23j60JGytmsguSgUwNIxLfjerKsxq3FEuZviSr2q4sOTJuDDkybgxWPH8fU3N2HLYB2N0nD18Ab8aO4s3NgyutxNScvlw4biz0tvxKZTnfjOpi1YffRYuZtUci5oBXDD6FG4f9bVmN/cVO6m5MyNLaOx+J7ReGL/AXxr42bs6+oud5OKYlJ9Hf51dhvunTghvx0rysisxhF4/pab8HrHSXx70xasvYCtsgtSAVzb3IT7Z7dh4aiR5W5KQRAA902cgLvHj8ODu/bge5vfQUckWu5m5UVzVQjfabsKfzPlUihFBPTKyfzmJrx828145UQ7vr1xM17rOFnuJnnOBaUAahUFv7z+Gnxk0sRyN8UTFErxhWlT8FeXTsZ/bn8PP972Ls7HtXI3KyNDAiq+NuNy/P0V01EtXxjda+GokXj1zlvx2L79+Nt1G9Cj6+VukmcMTtXswqVD6vHW3bdfMMIvUi3L+ObVV2LPh+/BvKbGcjcnLfOaGrHnw/fgm1dfecEIv8hHJk3EW3ffjkuH1Je7KZ5xQSiAO8a1YuPdd2DK0CHlbkpJaQyF8Modt+AL06aUuyn9+MK0KXjljlvQGCq4QvWgYMrQIdh49x24Y1xruZviCYNaAVBCcP+sNqxcuhh1qlLu5gwIKqX4xYL5+M0HrkNIdt8qaiAJyRJ+84Hr8IsF86EOUl8/X+pUBSuXLsb9s9pcd+oZTAzaOzY0EMCzNy/Bt9quHDTRZS/55KWTseHO2zC+trZsbRhfW4sNd96GT146uWxtKBcEwLfarsSzNy/B0AKzRyuBQakAZjQMw6YP3o6bx7Zkf/MFzFXDG/D2PXdg6ZiBvw5Lx7Tg7XvuwFXDGwb8uyuJm8e2YNMHb8eMhmHlbkpBDDoFMLamBmtuXYqJdQOTOlrpDAsE8NyyJfjGVTMG7Du/cdUMPLdsScHrJi40JtbVYc2tSzG2pqbcTcmbQaUA6lQFzy5bgqYLPNCUL5QQ/GDOTPzr7LaSf9e/zm7DD+bMHPS+r9c0hUJ4dtmSQReLGjRzNRIheOLGG8qex38mGkN7by86I1EMCQbQXF2NxuqqAVlQlI1vXn0lenUDP3pnW0nO//WrZuCbV19ZknPni8k5ToUj6AiHcT4Wx4iqEEbW1KAhFCxbmy4fNhRP3HgDbln1wqBZcjxoFMB/LZiPmwbQ123vDeP5/QfwwoGDOHS+C+29PejoDUMzzX7vpYRgRFUVmmtq0FxTjZE1NRg3ZAiWTBiHOaNGDuho+cM5M9Gr6/iv93Z6et4vT5+KH86Z6ek5s8E4x1sn2vHCgUM4dP48OsJhtPf0oqO3F52RiGvRD1WSrHtQi3FD6rFkwnjcPHECRtYUvIN2Xtw0pgX/tWA+vrB+w4B8X7EMCgXwD1dMx+enXlbS72CcY+OJdqzatx/P7d2Pdzo6ct74hHGOk+EwTobD2CZki3533XqMqKrCskkTcevkiVgyYQLqAqVfAfeza+ehV9fxmz17PTnfpy6djJ9dO8+Tc2WjO67hhQMH8Oze/Vi1bz86I5G8Pq+ZJo50deNIVzfeOn4cj+/YCQLgquZm3DJ5IpZNmojZJVbKn596Gfae78K/b3+vZN/hFRWvAO4c34p/mze7ZOdnnOMP7+3Ev7z6GvadPef5+TsjETyy/V08sv1dKJTi+tax+MqsNtx+SemmzgiABxcuQMQw8MT+g0Wd696J4/HgwgUln2p9+v29+PmmzVh3+IjnpdU4gC0dHdjS0YH7X92AScOG4v8uuBYfnT61ZIrg3+bNxoGeHjx18HBJzu8VYiYJqaqqUgEgGAwSxpgCAJxzCiD5nBAiA0DkqrZZZl1dSaNOVzQMw6plN0GVvE944QD+tHM37n3yKTzwzlacjcY8/w4njHMcOH8ef9yxC2sPHcaU4cPRUleaeXxKCO4c34otp89gb4ErCm9pHYMnbryhqOo82Xjz+Al89Kmn8f9efxMHzp8fkFp+Z6MxrNzzPv60azdGVFVj6ojhnis4QghuHzcWzx4+ipPR0i7kkrq7N1dt3fw2AHDOTUqprUENSikHAEqpHo/HOQBEo9HkgpKKngX4xYL5qCpBTvkze/fhygd+jfuefAq7yrTu/tUjRzHv4d/ig8tX4v2zZ0vyHQqlWL5kEWYXUAdhduMILF+yqGQr+d4/exYfXL4S8x7+LV49crQk35GNXafP4L4nn8KVD/waz+zd5/n5q2QZv1gw3/PzeknFKoB7JozHNR6v49cZw1fWvIjbH1+O7adO5fYhQgEqAZIMyErioaiAGkj8bx+T5MT7qJT4TI6m5ZO792Da/zyIL61+AeESrDILShKWL1mEhmDuc/YNwQCWL1mEYAksr7Cu40urX8C0/3kQT+7ek9uHCOm7D/ncC5Jb995+6hRuf3w5vrLmRc/dj2uam3DPhPGentNLKlIBqJTiR3O9jTh39IZxw+/+gP/atDnzGwlJdB5ZsTqWAsgyIEkApYmHLdyE9B2TpMT7ZDnxGUVNPCQ5a0c0GMMv3t6C2Q89gj1nvLcGxtRU4/eLFubk71JC8PtFCzGmBFHzPWfOYvZDj+AXb2/JXgOR0MS1s6+jfR/yuReKdQ9lxVIImX//f23ajBt+9wd09IY9+sUJfjR3ZsWuk6jIVn15+lRPM/1eP3YcVz/4MF7LVOJJ7GyynOhIxUJIojM6O2Iadp4+jVkP/QYrch0Z8+CmMS34TttVWd/37bYrSzLdumL3Hsx66DfYefp0+jc5Fa+UXWhzglJLIQhKOQ2vHT2Gqx98GK8fO17891pMrKvDl6dP9ex8XlJxCmBYIIBvtXmXbPLYjp1Y+Nvfo7231/0NkpTocF51tkyIHTGNIujRNNyzfCW+9tJazysFZxPuXJVEPhiM4WsvrcU9y1eiR0tTzIRK3ireTNhK2b7nLrT39mLhb3+Px3Z4l0vxrbYrKzJ1uuIUwLfbrvJsddX6I0fxqaefc/frqN0JyjATSoigCNxvwU/e3IhFjz6G8zHvZicymff5uAm5cj4Ww6JHH8NP3tyYpkG0T/DLkUkpyYk+4KKMdcbwqaefw3qPApRDAwF822Pl6gUVpQAm1dfhS9O9KXax9+w5kUNSawAAIABJREFU3PWnFf0z9wjp63S5QkifjylJgCxl9kfzOa8dyHKJE6w/chQ3P/YEetONnAXQEAzgT0sWpfikKqX4U56Bwmz0ahpufuwJdwEitC9oV8g1c4u7yFLfvbDvV67YytjxGc00cdefVmCvR/khX5o+BZMGaP+DXKkoBXD/rDZPpp3ORmO45Y9P9J/bt03NbJ1D9N0DAUBVE49kQNASfDHYpCiJ9wQCfZ/J1aQlxPJ5+yulN4+fwB1PrEDMMPK4ApmZ0zgCP5w7K/n6h3NnYY6HJdNjhoE7nliBN92q6UrW9cpFQG2XyXld7estC/dBEgKw9v0K5BFLsAcGhzWQti8VgEIp7p9V+gVb+VAxCiAoSbht3Niiz6MzhruXP9lfa9sjRTpss9zuPMX6o04louRwPskKgjn66tpDh3Hviqc8jQn8/eXTMLepEXObGvH3l0/z7LwGY7h3xVNYe8iRAUdgTdFlmVqkNHGt8hHebOdz3tdM53PpJ3vPnsPdy5/0ZIrwtnFjSzK9WigVowBubBntSSHJn27chHWHhZ1d0mj21L9bo0YpA4FUUAaZOiGlgNzfSnlm7z584s/PeJYpRwnBQwsX4KGFCzzz+xnn+MSfn+mfVENI4jelU4C28rWFPsNMSVEkA4BqZivExVJcd/gIfrpxU9FNqJblitocpWLWAtw1vvgii2eiUXz/tTdSD6bzM+1OV475WdtsNU3AzbS3lZZhAKwvhvHHHbtQqwbwwC1LPWnGVI+LqH5+1Rr8cceu1INUymx52WZ8Fq4fPQrzRjZnfM8b7R1Yl+smHpQmFAFjievsVKx2fEbvi798/7U38OkZV6ChyHoUd41vxTPiIFVGKkIBSITgdg+qrH5v/YbUqHk64Vfk4kYZO8jEOQCOnJcNOrEVgWEklIETWQYMpCiBX72zFZc3jsBXKsyX/PmmzfjVO1tTD2YSfimLYnBw87hW/NPMzFH0//f2O7krAJukIjAB3aGMbSVgJDI0z8di+N76DfjpTYvz+w4Ht49rhUReq4iaARXhAlw3qrnoCPTes+fw35u39B2QXEZ3QhI3OxfhJ7B8eNk9wJcMNgXSBArzcCdsH9XNGpH7K6t/fPFlvFVB21W9dfwE/vHFl1MPphN+W+ByFX7bbKc5XEtJcgQK7fuQw/dQyzVw3jNKU4Kz/715S9GzAg3BAK4bldmaGSgqQgHcNX5c0ef4+tpX+oI0VOpvVtodL5NQEpKYTrIF2xa+XKb4+k0V5hlQTM4EuCgnhxLQGcOHVjyF0xWwXdjpSBQfWvFUaoAsnfDbQdFs19I1cJdHV01OFdr3wZ6VyaKUkwOE47skKXn9dcbw9bWv5N6WNHjR572gIhTAnUWa/+29vVhpp88S2r/z2dND6ZBoX2eTPE5K6TcboGRWBrKcGLncjgtCcLS7Gx//89MDsnw2HYxzfPzPT+Not7Dc2O36A4nflGnUpzT1GnkdkCXESvyx73OGe2BbcSLC9V+5e0/6zNIcKbbPe0XZFcDMEcOLXnjy1J69fW6488bZZqAbSXO0gISUQrE7erYotJu1oigpSmDN/oO4/9XylZ66/9UNWCMWHCG0v6LN5nbZlk82xegltm+fzu0C+tw/EatvcST6XDGMqanGzBHDizqHF5RdAVyXJbKbCyv3WKO/c8WXLLl3PFvwc01IKQXZ2mALjqsS6Dv2vVc34IUDxVX9KYQXDhzE90TlYwuySLrfIL4/kxCK8Bzm4HN5Tz5toFbWp/h+qz8l+1wReNH3i6XsCqClyNH/fCyGVw5ZUyriSC+lBm+S2O5ABVTxBZA9KOYmQHKfoDHO8elnnkNXPF7CRqbSFY/j0888l+p+yGmE341MQc9yYCsC17iFnOouWH3slUNHil6nUWzf94Ky34HR1cVdhGf37k8EoESfkRKXDon0QbZKQEpj9gP9FRZJ/X0nenrxf17+ywA0MsH/efkvONEj+MBOF8rNGrCP2wlXlUgySOk4Lit9sxBWTEdnDM/u3V/U1xXb972g7HkAo6qrivr86v0HEk/s0d5OORWxFUKaUf9jkyfi+7MHtuT1omeex/5uR60+W0B0PZGgIh5XlMRxe9S1o9xWjsCvtmzFR6ZNxcLW4tOpM/HK4SP41RZhvt+eJXG21W06LU0gdurQIfjFgmsyfu+Euuy77nz0kkmY25zZrP7iqxuw89z59G+wVygaOsAcFo6uJQIAkgyYJlbvP4CPF5FGXWzf94LyK4Cq4i7C0e7u1CkiZxQ/Q8ezqVUUtNYO7LZOGRc9KUr/LMGkEtD6Eo9kGdA5wBk4gM899zy2f+4zCJagjiKQWOTzueee7wu4OiP+tpXVz2XJnO1Xp6q43oN58TE1NRiTZXuuunRuiYidiSkqYnsWwb4nhKbOfhRAsX3fC8ruAhSrBTt6w30jkD3lZkPTmKKDAdscFbE7pogsJ03WvWfP4bvrXytZk767/rW+JBgClxmXNEHLSjX5s6EIpj/gcDNp0aXDKsECKKsCGBYIFL0yqr23t08BpIxGLnGAwYab9eL0rwkBpL7XP3lzI7Z0dHjelHc6TqYW9pAcI73byD+QU3ulwuk62n2M0qJzAYKSVPYqQWW9O8VqwIiuo0c3UotE2FRSpL8Y3JSAnW0ovrZ+u8EY/ubZ5z1dOmwwhs88u6rvnM5rLUn9Bf1CEH6gv8IVir/06AYiRVZyLrcVUNY71FxV3KqqFPNfHP3zFf5yZNPl851uSkCWHeZpnyvwTsdJrNpXXIRaZNW+/Xinw9rzjCB1epUSF1cgT+EfyOtfyHc5lYBgBRTrBhQrA8VSVgUg5ZPf7YLJeV8Ovi3wbqPRhYCrEhCmrARX4MqmJiybNNGzr142aSKubLL2aBBNf7cZl0JG/kpXAECq1SX0uWJX9BUrA8VS1m/vyHPjRyfNNdV95r9NiSLgFYG9SMbGGeegFBKV8OCtN3u6nZdMKR689WZIzik/N//4QlS+NuK1t9yA5iKTeYqVgWIp6906UeSPr1VVVItR5gtZ+G3sGgI2lKakq3513hy0lSDFtG1kM746b07fAVnqHwcYrNH+fLD7mCShWlFQm8u0YgaKlYFiKavEnI5EoZlmUZt/NtfWYH8k2n8KMA/Wn2jHF9auK7gNhdARLeLGy3Ii791OVJFkwGSYUF+Hf7m2dHvR/cu18/Hk3n040NWdPQ6QB++dPYd5j6/I+J4vTp+CT0zLvLnG73bsxC/e25XxPe919+TdvhTsSk5I9L1i0EwzsaS7jMHqsioAzjnawxG0FrFDblIBFNEBd545i50nTxb8+YIIBIu78bIjKUhR8MubFqPKbSmxR1QpMn5502LcuPKZvoNucYA86dV1vNmeeeryzhwyHE/0hLOex5M1CLIM6HrRCqA9HAG341hlouw284ne3qIUQEtdHXCqs7ibyhigeb8xZ0bUQHE3PlmzLtHuT02bgsUlTgMGgMWtY/GpaVPwm527Ewe8WErNGJB174NcpjVzOI8XcQpKAWL1vSI4UWQegReUPWJzvKe4i7CkdUzpqshWOpb/31gVwk+y5NJ7yU8WXIPGqlD/OMDFBJUSfa8Iiu37XlDeu0cITvQU55PdPmECpIsh+JQOScbPFl6HYR7u6pONYcEAfrbwuvJsq1YhSJKE2ydMKOocJ3p6yp6sVnb1fazIoMzwUBDXtYwqrhGEJAJZA/nwiFtbx+K+yd7N+efKfZMn4lavXA47gJvpkVNlzxzO45HAXdcyCsNDwaLOUWzf94Iyq3CONzyobnv3+HH4y/H2wk9gLwEdSDzoiLWKgl8sKF3UPxu/WDAf6060o6fIdNjkHg2Z35TLibKfxyMFcPf4cUWfI9H3OXL7baWhvBYAB14/dhwnw8WlU945vrW4S8jMRPBoIB8eZL/9ZP6couspFsOYmmr8ZP6c7G/MBueJYGamR06bL+RwHg+uO0GizxXDyXAYrx87XvieEh5RdheAcY6n3y+uwGJLdTWWjk2/731WOBIdYyAfRfLxSybhs1MuLfo8xfLZKZfi45dMKu4knCdmAjI9crlmXp0nC0vHtqClyGo+T7+/t6wVnW3K6wIQAhBg5e738dmrrizqVD+aMwtrjh6viItaaqYNG4pfXjdwUf9s/PK6a/DO6TPY4dE22m58/S/r8fVsZc+ybUPmAZQQ/GjOrOxvzMLK3e8nTImLPQgIDrx86DB6ss4DZ+aKhmH45KWTPWpU5VKjKFi+5AZUVVDac5UsY/mSG1BTaPEVayDI+Mj5XNkexQncJy+djCsahhV1jh5Nw8uHDpfd/AcqQQFQCs00PVm+ev+sNoTkAqYE7S2lBvJRYEd8cOG1uGyIN5t6vn/2LN4/e9aTc102ZAgeXHhtYR8mxNq9J8Mjl6leScp+niIUQEiWcL8HezKu2rcfmmlWRA5FmYOAPHljV+5+v+jTja6uwlevmF70eSqVL0+fivsmFjf3bMMBfPbZ5/HZZ5/3bCC6b+IEfHl65nz9wcxXr5iO0R4U8Ej2dUkqTy0KgfKrIEIAQvu0YpF846oZmD5sqAcNqywWt4zyJuJu8cCWrVh/5CjWHzmKB7Zszf6BHPnJ/DlYXGxeRgUyfdhQfOOqGUWfJ2ntkhz2mxwAyp4JmGgFRY+mYY0HO9zUKAqeW7ak7JVWvOSa5ib8eemNUD0yGU/09OKfhIDaPznr/BeBSin+vPRGXNPc5Mn5kkhSYt1BpkeJMkKbq0J4btmSwmMcAmsOHEzEu8RCtmWkMiwA62J8+5X1nkTxx9bU4Jmbl1RUoKxQ2kYMx6plN3n6W760+oWUnYS64nF8afULnp2/SpaxatlNaPNy7zux7mO6RwmEqUqW8czNSzA2S7nxXGCc49uvrE+8KFF786X8FoDw2HbyFB7Z/q4np545Yjh+v2ghaC4X2a60M5CPHNo1fdhQrLllKepU76obP75zF57a0z/e8tSe9/H4zsxr6fOhTlWw5palublj4oap6R6ZdvO1kXI4Tx5WFCUEv1+00LNNPB/Z/i62nTzVr9+Xk/JbALbZZq3o+9Yr64uutGpz5/hW/Oc1c7PPIuWSi+71IwuT6+vw4q03o8HDRT77zp7D555b3XdAklMW9HzuudXY5+FcfkMwgBdvvRmT63NYNpttdM81FTjreXKDAPjPa+YWnfFnE9F1fCs5+lv3vwIWsZVfAdha0Lo5J3p68WOx/nyRfGX6VDy19EZPR9FSs2TMaLxx1+2exjGihoF7VqxEt236i0rPGoW643Hcs2IlouKOREXSXBXCG3fdjiVjRnt2zlJTpyp4aumN+IqHMxo/fnNjX5zFNv8vehcA6BN+4YL82xtvFV1uWeT2cWOx8e47MGWoN/PnpYIA+OerZ+D5ZTd5OvIDwJdXv5AwP23EKj7C820nT+HLHsYDgIQl8Pyym/DPV88ofM0GzWF092CV5ZShQ7Dx7jtw+zjviqt09Ibxb2+8lXghDni+AkBqLT/LNOrVNHxn3auefs2lQ+rx1t234y6PTDqvqVMVrFy6GN+fPTO3uEUe/Gbbu/j11u19B6hjWayw7z0A/HrrdvxmmzexmORXEoLvz56JlUsXF2aNUSkH/744k/qu8a146+7bcemQ+qLO4+Q7615Fr53pKpr/vgJAajBEuCi/3roN73V2evpVtYqCFTctxk+vmYsRRa7l9pIZDcOw6YN34I5x3iund0914ovPr+k7kG7prSMw+cXn1+DdU95efwC4Y1wrNn3wDswoMp3WS0aEgvjpNXOx4qbFqPV4L8n3Ojvx663bEi/EPu67ABZCLgCAZFDK5BxfWLXG0y2ugISZ/b8un4aDH7sPP5wzs6x7s11SX4/fL1qILffciUvqvR11gETO+T3LHT69Yx+BfnX+LaKGgXuWryx6jYYbl9TXY8s9d+L3ixaW5HfnyrBAAD+cMxMHP3Yf/tfl0zxflW8whi+sWtO3eYgdcK2QHAAAEG0mUlVVpQJAMBgkjDEFADjnFEDyOSFEBoDIVW2zzLq64hOjCUnucQ/GrNccAMeR7m6cjkRwy+Qil5u6oFKKa0c244vTpyAkS3jnzBnEPMhEzIWJdXX4j/lz8Mvrr8WMhmEgJegIjHN87Kln8NrRY30HJUdBTHtazP7dxFoxwxNK90w0ij1nzuJDUy7zvI2EEFzeMAxfnD4FE+pq8e7Zczgn5Cb0/0E5LOXNMdI/JKDin6+egT/eeAMWjR7lWYKVky+vfgFP2mm/4lbq9rZuHm1eK3V3b67auvltAOCcm5RSe9Q0KKUcACilejwe5wAQjUaTWr38CgDoWxVld0RKk0rh7fYO1AcCmNdSmihyQJJw/aiR+OK0qZjRMAxVsowT4QgiHkbCgYSPf9OYFnzjqhl44PprcPWI4Z77+jYciSm9P7y3o++g2AGBvuq4tikqbvxpKWAA2HX6DI739OK2SyaXpG4NJQRXDm/AF6dNwcS6OjBwtEciiJsOy69IBTA8GMQHJ4zDN66agV8suAZLxoxGoITTcP/x1iZ8/7XX+w6I+1Xam9l4pHiKUQCVkSpnj0L2pgt2UMpSAl97aS0mDB2COy4p3XLfOlXBhydNwIcnTQDjHBtPdWLVkWN44egxHO7tRWc0ltc+cAqlmNM4AjeOGY3Fo0dhduMIT7frysQ/vPAyHrL9TgCuO9yKnV+S+gpmAIn36n1Vix7aug21qor/WLKoZG2WKcUnL52MT146GQZj2HiqEy8dP4EXjx7HW6c6odsJVDkgEYIRoSBaa2qwZEwLlo1twezGESVTuE7+/P5efO2ltX0HxKBrMuBdfu8bqCQFACRusG0FSH0KgHGOj658Guv/6mMl2faqX3MIwdymRsxtasT3Zl2dbMOpaAwdkQg6olF0RKIgAKoVGTWKghpFQbUsJ/8fFgwgWIZEj/+77lX858ZNqQedpma6IKDo79sbj1j858ZNqAuo+JfrF3jYWndkSjG/uQnzm5vwnbarEDNNnI3FETYM9Op68v9eXUdYN8CRyDdoDoXQXFWFxlBwwITdyeb2Dnx05dOpKe1iP5AdcYAyUxkKALBMT5a4QIZhRUxlwEyY4hFdx22PL8dbf/1XGFPkhgwFNY+QRCer4EVGP3lzI7736obUg24beCZ397X+t3ensa+9/TdZAYy+rMzvvboBdYEA/nHu7BL+iv4EJQmjPFiGW2qOdnfjtseXp2aySsL1rjDhByphFsDGzvWWHOaSsH1ye28vbv3j8pJEpgc7v3pna6rZCSRMT7GzOU1/p1nt9Esp7Te3/rWX1uJX73i3fPhCoUfTcOsfl6Nd3O2HOLYUt5/nsq5hgKiglriYSUBq8ATA9lOncPvjy3E2GhvAxlU2j+3Yic+vWpN60Bn0c8YBbGF3KgXFzWJI7SafX7UGj+3Y6eEvGNycjcZw++PLsf2UkGnpvN4pW4uXfw2ATeUoAKBv9HGmdTrM2FcOH0HbQw9j60Bv6FlhMM7xzb+sw8ecPiehqZ0PSH1N0H9GgKR5r/1aUAKMc3xs5dP45l/WXRRFWDOx9eRJtD30MF45fKTvIHFM8dlpzEBFmf9ApSkAZ6e0cV5QAIfOd2H+w7/Do+/uwMXI6UgUSx97HD/Y8EZqSS/nyAP0X37sNv8sHnPLFnRYBhzADza8gaWPPZ7Y4voi5NF3d2D+w7/DofNdqX9wi7u4Pa8AKksBENLnHxHHnK6LEogaBj7x52fwd2te8jxjsJLZdKIdbQ89jBcPHEr9AyH9dzhyLj9ON1fuPO62bFlR+2WvvXjgENoeehibThSxM9Mgw2AMf7fmJXziz8/0XznpFH5K+6wnqTIWAIlUlgIAUjecdI5clLpuSPmzTW9j0aOPFb3D0GDggS1bseCRR3Gkqzv1Dy4Kst9I7mYdiLj6/44O67Id+JGubix45FFPawtWKifDYSx69DH8bNPb/f/ozLR0Xv8K3Ey18hSAGC1167CS5BpEWX/kKNoe/A02iKmvFxAxw8BfP7MKf7tqNeLOlGVb+FNW+CFzHCAdrv5/lu8CEDdN/O2q1fjrZ1Yh5nEWZaWw4egxtD34G6w/crT/H6mbxSRcpwpZ/eek8hQAkBqUSufTumjT4z09WPDIo/jQiqew6/SZ0rdzgFiz/yDmPvxbPLxte/8/phHIfuZ6jmXI3K0G1eU9Lt8J4OFt2zH34d9izf7iC7xWCrtOn8GHVjyFBY88iuNu29lLLlmKovA7g64VRGW2CkhcVHsksWv2iSOLrVFNPWWHFQ5g+a7deHL3Hnx0+lR897oFmFjhhUDS8crhI/j2K+tTF/SIpNsKS3UIv0T7j06ZkKTEgiA7H5+QxDnF/AtbMRhG32Iui20nT2HpY4/j2jEtuH/hdVjo1TbiA8z+c+fx3fWv4g/v7XSf7SAAJJc6g7LDFahA09+mcltmrwtILqW0NlEQzV9KAWJ1Qp4aBGSc49F3d+CPO3bh0zOuwLcXzC9LBmEhvHHsOL697lW8fPBQ+jdJsrtQO/14t9hALsgKwIRdjG1LzFmvUZYBkyQzNkVeO3oMH/jdH7Bo/Djcf/2Cki3o8pqj3d24/9XX8fC27emDy3aehdMKcgZPRZe2AqlcBQAkLrDY4WS5bwdYG7tjuoxEQCJi+6t3tuK329/F566+Et+4Zh5GelDiuRRsbu/Ad9a9mnmbtAzmt2vV22IKXChK6qhvV+91KgE7qchw33775YOH8PLBQ1g2aSK+d/2CAVnPUQjtvb344YY38MCWrf3jLCLpLC/bUhWpUNPfprJb52b6253S2dFkGWA0JXddJG6a+PmmzXhgy1Z8YFwrlk2aiFsmTcSEMrsHXfE4Xjl8BI9sexcrXcp1p5Bu1AHSC38xgSe3UT+dEkiuHehvjdms2rcfq/btx12XXoJPzrgcC1vHor6MBVkA4MC583jOatdfDh3OLPhA4je6TaOmi1VVWOKPk8pWAIC76a+qiQ7oNM8o7fNL03TCuGli9f4DWL3/AP7XmhdxWUNDQhlMnogFY8dAKfENi5smNhw9lhgVDx3G2yfac1tmnGnrazfh96rzuSnhTEoggzVms3LP+1i5531IhGDmqJFYNK4Vi8aPwzVjWkq6Rh8AdMbw6pGjeG5vQuh3n8kxWJxJ+drXQyTH8u/lpvIVAOBu+tsdzW1KTFES78+gCGx2nzmD3WfO4N/f2ohaVcWSCeNx44TxGFtfh+aaGjRXV6OxugpSgSOpyTk2t3dg7aHDeOngIWw4eiy/aTJ7esnt++3f2m+uPk18oFDsczmVgK2I3awxbsVwMigCk3O8dfwE3jp+Aj/Y8AaCsoxrxrRg8fhxuGFcK9pGNhd13U+FI+gIh9HR24sjXd148cBBvGBvzZUrmQQfsLYsc4iRmytQoQyOVgLupr89yrltJGILB2NWMDF7pmCPpmHF7j1YsXtPynFKCIZXhTCypjahFGqqMbyqChFdR1jX0Kvp6NUS/4c1zXquIazriOh6YfnymQQfcB91gNKNPG6WmD074GaN2dOJOSgCm5hhJOMFQOK6VykKqhUFNaqKGlVFtaqiRrVfK6hWVFQpCk5HIujoTQh7e28PTkeixa1TsFfyZbKi3CyvbMlWFcbgUQCAUKlGOJZpJLL/btcaMI2CtmNm1mhyKhzBtlIvQMo24gCALLlPLbmNRl5in9tpdSlK4toaLkIuKoIcLDIRxnlSmQ5YlqddhyKT4KezvNySryqcwaUA7LlnpwmXaSSyoRSgqlX6yrIIKmkhWy6CD6Tf367Uwm+TTglI1rLhdNu65emaDSgE1tqTHOr0pbO8ANe1EpXO4FIAQPr5aMAaicxUX9WJuOjFTnbhORSc9BpC+hY85RKsSzfqAAPvc7rFZOx2ZLLGgFQT2a5DWM7rLwmLdbKRKbZS7IxLmRh8CgDI3NFsv800+49STggFZFsZ8NQO6TWiwOezKYSdSJKu46VzB0pNOrPftsbs659JsFOUMe+7B6VSCKLCzUdYpQICsYOEwakAgNwCUHY2YS71/t0Eze6UKc+55TrYHVTI9073nBSwDJQgfbafTZ7bXXtOJrPfvpamacVespzLVoopCkF003j654kT9F13UcHmo2zT/YZ8A7GDiMGrAGwymf2FKALn5wdas+ci+JU06mQz+/NVBDaEAKRM8+jZBB/wfqq1TAx+BQD03SxDd+9gxSqCgSKXTjVQwb58sK0xt7wMG1ERVOpy4VwEnyB9NuAgpKieJF6msgfUk1mAurWzjQu2IpDlPn8/lx1nSoVt8lKSW6HISh917FmMTAJuCxkzE/epIq5/joFYezuvCrC8vGpB4QqA9jWi7MJvY08TMmZNNeURgBIVQimhBQSi7Ch/BXS8rCQXBhmZryWV+qpRVPr1tweOChv1k60volkFKwDKOUmJefEKUgS2X5pLJBroHwC0R6V+AUBkPpcY/LPPa7cn38iz/TkP95AbMJxZmNmE2nn9RYVgv06SpaO5Bf+cAcZ8fkcF5vQTpHYlynnBI0MRLgAFcdyIilEANoUGoHLpKOI6ea+p0BEnb8QszGwWmUg+gleK+5BLILaMEMAhe4X3k+KiScJFT1gBFacCEhSqCDLhC37u2BZZvoogFy4iwbfxcqv2whUA6W93UAAVlODZn2QAqgICgCKD1dTPF1ER5OIaDAT5BgLLDIVLAJAU3okLVwCmGXceooQMjp1iyhUATPl+ITPwYkO8/nbmnz0jMJDfX0hcpsy47nrsIou5UrACIJoecbt0EoAKnWV3xy0AmBIE9CC6OchGmQGFUgA00XEAb60zZ2bgIL/+Etyn/4imRwo9Z8EKQNK0qOEiGZQA5iAwAtKSrpO4zQjYOItwuj33yQ236y9e73TPgf6R/wsMak+3OZA0reC92fJSAIT0xR6JFouQNOkIMjgqNNercC7gjlXx+EoVMoB08ka0WNICEGU01/NmhBDCuaVpUxTYezQkAAAWOklEQVRALB5NZxvbgYrBbAj4+FQKBPZEn7tEJWTRei7KaA7KwNUhOn/+fPYPdnV1E6tx/R7kQllk4ONTfmRY3g3cH7TLuVFkf9LJdNaIiEOLJJ9X7dh+HBwMVpzM+aDoi+v4+PgUhgRLSNPIGThY1Y7tx4WPFGwBuH7Q+dx+zbq7dejxzkwnT/gtPj4+hUCQgyWtxztZd7cOpMqn/drtOQRZT7EAKKWuGsPtw4QQTmPR42ndAOsxuMsl+PiUDwWZZYsAoLHocUE+s47+ThlP6wJEo1HXkxmGYWdrcBqOHO/3QecXwlcCPj75oiC3DH9LBjmQIpspMivKcr/Pp7wQtIN4Ak3TxBMnn9OurmOZnBP7IYH78QAfnxyRAEg5yBXALRlMIMqmQ2b7TP5cLQCH/yDmaCaPKwcO7slmoiRdAc79eICPTxZEWclJrg4cFHexcZXZTMHAFAWgKErf6E6p6wns54QQM/DOpkMwzO5clBUBEPCVgI9PWlJkJBcDwDC7A+9sOkQIMYH0QT9RlkUZBxwKIBgMJv8oSZKrMqCUmkklYJqMdnftKOgH+vj4JClENmh31w5imgywgvKUJpfhiDIryrIo44BDAdTX12dVANaXMWvKgdHTne/mpq4SDwIOdTCsGPTxGUBUnpCNfGSJnu58V5RF8XzpFIAo44BDAWzevDn5x56enhQXQDyhYSR2gzBNk6m7dm7Ls92gnCPgKwEfHwCJkZ9ynpcMgQPqrp3bTMsCsGUSSAi/6AKIsizKONA/CJgi9OL0gaZppvC35FRgYPvWY9BiHbkGLeyHxDmCjPnugM9FCwEQZAxSHkE/+wEt1hHYvvUY+vJyxBmApKxGo1HuCAJmVABcnCaQJMl0e27FAZj9pXLHqXV5qy9wUHAEfCXgcxFCAAQYAy1AbgBuyVzSHWei/59Bbu0TJOk3DSjLMhOeu54IABhjuq0AAm+/sRaM80J+C+UcQWYWU9nYx2dQQYFEny/A7AcHwDgPvP3GWiChABhjKXuzibIqyrAo22JbUhg6dGhyKb+qqqLZz3VdF7WJYWkfU921qwPR8O78LkMfhAMB04TsxwV8LnBkzhEwzX4VtfMiGt6t7trVQQgxrdE/KbO6rpuiyS/KsCjbNv0UwM6dO5Mf6OrqYmIcQDQzDMMwADDTTOwFpRw7+kph6kyYHWAm1EooFOnjUwJUxqAyM+9ov/ORkDXAkj1mySKAVBmNRqO8q6srKVCibCff79JOM10cQFGUpKlBCOGiGxB8+cV1xDTDRf42yIwhZBoJ88jH5wKAco6QaUBmrCjZAAeIaYaDL7+Y9P8tGUwKiyijLv5/TgoAgUAg+UZVVZPaxekGSJKk202Tzp2L0o721UX/QnAQzhE0DSi+NeAzyFEYQ9A0rMrdxT9oR/tq6dy5qH3AkkEAruZ/UnZFmRZxVQB1dXXJN4fDYUN0AyRJMoAU7ZMMQoReXP0UDBb34HcCHFBMEyFDh8R9ReAzuJA4Q8jQoZimJ7IADsBg8dCLq58C+oLwohVuyyaQMP/D4XDytSjTIq4KYOfOnSnBAlmWDfG5XXiAEMI45/HkdOCJE930zKm13v3ihDUQMAwEDKOY/Q98fAaE/v3Vuwc9c2qtfOJEN5AYgG3Zs+XRKadiu5wybZNu9o2J0UMXNyBpBUiSpFnRSBMAguvWrgDnhoe/G+CAxBhCuo6A4ccHfCoPagl+SNcheeDr939wI7hu7QogsRCPEGJasscAQNd1I535b8myqxmddvp91KhRSd+it7fXjMVi4ooi3fpSbhgGY4zp9myAun9/p9zRsaoEVwAAh8RMBHUNAUP3FYFP2UkIvo6grkFiJkrV7+WOjlXq/v2dQCL6zxjTDcNguq5zIDX4F4vFWG9vb3IAF2XZSdo6He3t7byqqkq1X6uqSiilEpC0AighRKaUUgD2/yoASIcO7NKuuOoDoFJVLhexECjnkE0zGR/g4qYQPj4lhHAOmTGopgHFMEs/EOn66erHfvcjGo/blncMgE4p1QAYjDFNVAAAkgMyAOzfvz+W7tSZEvB4KBRKmhGxWEwXg4GKomiw1BOl1GSM6YwxDQCkrq6YunvHw6XShil+EWNQDR0hLY6ArkE27XlWHx/vIEgMOAFdQ0iLQzV0UMYwEH1c3b3jYamrKwYAjDGNMaZb8/0cALdkEUAi+BeLxZLKwJLhtAKRsVJXd3c3qqqqFAAghLhZAYRSGmCMgRBCJUkisKwAZd/eI/HpMy5DQB2Z9ep6BOUJF0ExDEiMgXAOApKwDnx88kRiDLJpQDUMqLoOiQ3AaO+AdPe8U/vH3//Wfk0pjQLQ7ei/aZoRR35Oyuh/8uTJODJs2p2tVB+rq6tTGGMESBQdVFU16RZYyw6Die8lMueccc5lQkhCSfR07zEmX7oIhAx4XVDCuXUDTSimAclkoIyB8sTMAiHwFYMPAIDyRN+QGYNsGFAMA6qhQzbM5EBSFhiLhl54/vvymdO9iZdMBxC1ov4apdSUJKlXDP5FIpEYsfq1LMssHA5n3Dk4a9nxkydPxhsaGkJActTXFUVRgIQCMAxDAyARQkzOOZEkKco5VwAg8P7udn3PJf9tTJn6DwVeAm/gAOXWgiOz358AQoT/faVwIUPAgWTZrcq+2/KeXf8deH93u/1akqQoY4xbssYZY5q4wEfX9ZSsQGv0z/wdObTDkGWZGYZBASAej2u2AgAAznmUUhpkjBkAZEtLxQkhAQCoee7pdd3DR1xhDh++OKdfXQ6EjlDJHcLHeyo1WiSdPv1SzXNPr7Nfc87jnHMdABhjBqWUM8ZSdgWOx+OaOPoD2ffozala92WXXYbz58/LQCIWQCmFHQuglHLDMBRKKSWE2JsB6bZrAADKgX1b9WmXz+WSXJ/L9/n4XMzQeOxI7R8f/QHpK+zBASQTgAghmhX5j9oCbxiGJvr+Y8eOjbe3t2dNoc1JAbS3t6fEAqx5SFmWZUIIga7rRJIkhTFGLCVg1yRTAYBomkkikfeM8eMWglJ/nxAfnzQQ04iE1r78XeXY0XPJY4SEOecGAHDONUqpYZpm1A7+xWIxput6cqpPlmW2d+/etFN/Ijnv1xEOh7k9IwAA1dXVDKmb/lBCiGRbAZxzE4nYgAwAcuepbqaq+8zmkdfCChL6+PgIMKYHtmz+Qejtje/bhyzTPwr0jf4AYpTSuF2nU1GUmKZpSW+ms7MzhgyRf5F8BJE1NDRIdizA+kIqSRK1GiKbpsk550mhh9MVOHL4JK+tP240Ns6D7277+Iiw4I4d/171ysubhGNJ0x9IjP6c86gkSYYkSXEA0DTNcM77d3d3a8iRvEbi7u5uVlNTo3DOk66AaZqKoihE0zQqyzJhjIFSqgJ2oJXbSgAAoBzYd9RobOphQ4bNzOe7fXwuZJSD+x+oef7ZteIxxli3netvrfyLyLKsG4ZhyLJsRqNRbhhGctqPUso7OjpiyCO2ma8pzseNG4dwOJwMCNqugFVwQKGUmpxzCZZ7IBQsDNgnCezZvVcfM5qxuvor8vx+H58LDvn4kd/XrVzxlHiMENIDQEzvjUmSFAEASZLihBCuqmpM1/Wkqd/Y2Kh1dnZmjfyL5O2Ld3Z2mmJAUNM0TimFJElU0zRJkiQKwKCUqpxzCgBWPIAKrgECO3fuMEY095pDh1xFfHfA5yKEA0w9cPDBuqdWrEw5znmMc54M4lk1/3rsgjyKouiGYWjRaFRc/ssOHTqUU+BPpKBgXDgcNsWFQmbC+Zes9ACFEMJN0zQopQH0CbdhxQeS3xl4f/f7rLa23RjWMMsPDPpcVDCmB3bv/Gnt6udeTD3MNEJI2H5tmf7ddq0/SZLiuq4buq6nJPl0dnZGUEBaQ6FCx6dOncrt3ACgTwkwxmQ7MChMBRLrx+hOJaAe2H8Yqvq+0dg8DySnxCQfn8EN47HQti0/qF73l7dSDieEvxfJBFXCKaW9VuQfuq6bpmnGDcNIzv8DwLhx42Lt7e2uFX+yUfCo297ezhobG6mmafbiINTV1ZmMMUUw9Q0kVhwmpwvdlIBy9EgHjUTe1keNuoJLUl2hbfLxqXSIFj9e/dr6fwlt3pRSRt8p/ABACIkCiNivKaVadXV1OB6PJ99TU1Oj79q1K+eov5OizO6uri6zrq5OtuMB8Xich0IhPR6PB61YANBn+idHd0JIP3dA7jx1Prh3z0ta6/gmHgi0FtMuH59KROrqWj9kxRP3K8eOnhGPC2Z/UrCtcl9hO7df13UzEAh0ifv8ybLMjh8/nrffn9KmYj4MJOIB4tSgpmlcURSTEJJcQGQHAa30YYLEDzVhrSK0z0U0zQy9u+0NY1jDGbO+fgYI9V0Cn8EPM+PqwQP/M2Tl8keF9F4ACUFHYoVfcptvzrkGICzW+CeEdEWj0eSsAKWUnzp1yq4OXDBeBN54JBIxxSxB0zRNVVUJ51wFEmnB1iomYo36xNJshvWcQpgJCOzfe0AKR97Um5rHc0Ue4UEbfXzKAo1Ed9VueO1fq996/R3Hn1ga4Y9zzmOyLIvCHo7FYhHxw6dPn44ix2y/THg5/Sbby4YBgHNOgsFgvZgERAgJmqapEkICtsWQOEyChBCVc95vxO++6ebF8THjPgnZjw34DCIMsztw9NAjdWuef8n5J8sF1qypvmTAj3MelyRJE6cAOeexWCzWJS7zPXPmTBQ5rPTLBU/n39va2pRDhw4lBT4UCimMsWpKaYBzTjjnhBASZIzJlhKw4wTEei3by4hFjIaGmu4bln7aGDbkBnB/H1GfCoaAyWfPr61bu/ph+cyZXuefLd/esEZ/W/gZ5zxOKTU45zG7zDdjLE4pDYum/7hx42KbN29OW+Qz/+Z6zNSpU9WTJ08mhViW5ZAsyyohJCgqASsIqDLG7FGfUEoVxphCKVWsbMIUIpdNGxO58qr7WG3NfMDPG/CpJLhJe3pfr9r6zuNVu3ccdf6VEGJatfx0q2YGBxJJPpxzzSrykRR+znnMMAzNMIzkmv+mpqb4zp07C474u1GSDDzREuCcE1mWQ6qqygBClhKgtkJgjMlW1qC9dkCyrABKCEnmEIhEx01sDLfNvMccUr8QROpnMfj4DBjcjEvnu16p3vz28tCh/afc3mEF9eyNPEwgubemZu2yzS3hZ5apH9U0zbDm+zng/chvU8oU3GRMoKamRuKchzjnJB6PBxVFkUQlYD13ugT232SapoaA3tRU3z1r3lKzYeh1XFZbSvhbfHxSIIZ2TDpzbn3dpjdWKydPdrm9xyrcmRRwOEx+W+Bt4bem+mwrIGrX9vfS5+/3O0pxUgFpxIgRIcYYCYVCipUaDE3TVEmSVKfgC+Y/QcIlkBljCgBkUgQA/n975/fbRm7E8eGQ+0OSbSUIVMFGYD9U7YMPh+tVb/fev7rvfXOvh8P5oU0fbAQ2VCNIZFtacskZ3oNJZbWVbcWJnLWzH8DQclcStMZ+hzNDcgiz738Yzf/057/x9s5P7WSilk0giC7x6vIf3f/8+++9X395c9v7ovABAILL7wAgxvUWES3AsiEgojJN0zJ83hRFYRHRX1xcFLBiV98vdk+b+uIKOBwOO845TJIkD6EAEJEMCcHoCVR7/3puIGVmCXC/IfBJgrMffvzO7O796La3v+Ms/yMsFy5paVkXi0b/V11d/Zadn/3c++Xn30Rl9V2dmvAp7JOxFOvDshegEZG99zpu5V2WpbPWaqUUTyaTLzLUdxePtQpPvH79Oi+KQimlOlmWRTGLsiwzKWUS9hdYJPa89zIkBWWlvZQrkFLKVcnCKpxlydVf/vq9+8Pw0GX5nk/TXUiSoReit8kbbnlaCO9nYO1ElOW5MvpM/W9yvP2vf/6KxtwZdwshiIioHtvHdtw0J7Yr5wwR2TRNTYzzjTHknCs6nY57+/btJ63rfyiPugw3JgerRgDgxhtAxKwsy1xKudRb32cIwjkVZhmuPURohsMd83p/nzqdHZ+mXZaqA0nSZSU7QmDW7ILRLZ+KAA/es0FHBZCdo3WFKMu5LIrL7O3paTaZXN7/LQuYmSn29gDrCR8AIIheM7OJvT7AR/FvKtl3G1/jKcfBYNAVQvTyPF8SbFmWKSLmMQFYvea9xzg8GJKDMrSr3yG89xg8g6XZhS0tn4EPcTqFWXvVBTschR6Sd1H4S657TPYxs46xfkRrzd77WVjSu1GXv85XE8jBwUGutd6pegIAH8OCJEm2qiFBhTh0qILIMSQLV60biAYB4zG0RqHlbnwUORFxXfARRHQhucfBCLhQuGPVe8lae1119yPGGMrz/PLk5OSzFvU8lK8tBrm3t/dCKZXWL4Revuu979W9gcp7UEqpmFl67zHkBdQthqOKgI81CxdTksPehi3PHCKKO29CRZCLc7eBiERELvT2XGmv7LWDRzATQszrwge4qeV/dnb2ATaY5b+PRjzwr1692kbEXqfT+b/fw8zIzFurwoIagpkXicFYmCSEDO304ZZPJozTExFxmLBDRESVnXlv+5wPGf7rWLq7SlEUnpln7969u9roDaxBIwwAAMBoNMq01j1jTLrKEBCRBICOcy6TUq6zTFgErwCllJKZVSUcwHCtMfff8vUIPTUDAEe3P2y+QcEIrAwD6hCRU0oZACiqCb5IURQ+y7Iyz/PZmzdv7t237zFomgDUYDDIO51OorVO60lCgBtDYK1NETFTSq3j7tepuv4xLwCVAiZN+5+0fFk8AAARLcptQ5ikU72+LohIzjnHzCZJknKV8LXWnOd5WRSFDZt2bGRW30No4sOOu7u7eVmWstfrKWNMUk8UAnw0BHFaMTNLpZR8gEFoaVmbIHhCRIrTd28TvjGGsiyzs9nMpWlK5+fna+/Y81g00QAAwE1I8P79+xTgprfudruqLMuk7hV470XYsVwxcyxDjuFYeO9RKRWPG3u/Lc0heAPeObdw/xExHgMisrXWJUli68k9rTWnaWrn87mL116+fFk2xeWv03RBLLyBeKLf76PWWjnnVN0YMDNaa5M0TWU0BnWqWf9au+UbpO76r8rWA9yIvixLSpLE1hN7WmtWSrk8z910Ol1ca2qvX+VJPPzj8Tg5PT3NYvHRiPdebG1tSWutJCJZNQjee+GcU8ws0zTF2wxCS8sqguAZEUkp5aqGQWvNUkpKkoSur6+pbjQQ0e/v75vHnNH3UJ6EAQiI0WiUxrDgNvr9Pjrn0DmHYQgRQ3myRTucwyzLRCxS8lg30dIcYvENY4wPmf/Fn9aaxU1dfkZEVkqxUoqrPfwqgru/WPTTdJ7igy9Go1E6nU6TukewDlHsL168WPosEbUhwTdA7K2llEsC/fDhw50hwF0gou/3+/YpCT/ylB92cXh4mFxcXKQPMQQtLZ8LIvrBYFAeHx8vSnw9NZ6LcNTBwYGaz+eqNQYtmwQRfbfbdScnJw4aNJ7/UJ6bWMR4PFaTyUQZY2RrDFq+BIjosyyj4XDojo6OVi74eao8d4Hg4eGhury8lK1BaFmXKPidnR06Pj520OBhvM/lWxOEAAAcj8c4nU5Ra41EJKJhqL+2PC8Q0ddfpZQ+z3Pu9/t8dHTEcCP2Z9PD38fviY2UjgEMGEEAAAAASUVORK5CYII=;rounded=1;" parent="1" vertex="1">
          <mxGeometry x="649" y="20" width="61" height="61" as="geometry" />
        </mxCell>
        <mxCell id="CILAgf0_198hJgXybKMT-2" value="" style="edgeStyle=orthogonalEdgeStyle;rounded=1;orthogonalLoop=1;jettySize=auto;html=1;" parent="1" source="BQhlfXO4XIP7kFL3tKAZ-9" target="CILAgf0_198hJgXybKMT-1" edge="1">
          <mxGeometry relative="1" as="geometry" />
        </mxCell>
        <mxCell id="BQhlfXO4XIP7kFL3tKAZ-9" value="GYRO_setup" style="rounded=0;whiteSpace=wrap;html=1;fillColor=#dae8fc;strokeColor=#6c8ebf;" parent="1" vertex="1">
          <mxGeometry x="40" y="30" width="120" height="60" as="geometry" />
        </mxCell>
        <mxCell id="CILAgf0_198hJgXybKMT-4" value="" style="edgeStyle=orthogonalEdgeStyle;rounded=1;orthogonalLoop=1;jettySize=auto;html=1;" parent="1" source="CILAgf0_198hJgXybKMT-1" target="CILAgf0_198hJgXybKMT-3" edge="1">
          <mxGeometry relative="1" as="geometry" />
        </mxCell>
        <mxCell id="CILAgf0_198hJgXybKMT-6" value="" style="edgeStyle=orthogonalEdgeStyle;rounded=1;orthogonalLoop=1;jettySize=auto;html=1;startArrow=none;startFill=0;exitX=1;exitY=0.833;exitDx=0;exitDy=0;exitPerimeter=0;entryX=0;entryY=0.833;entryDx=0;entryDy=0;entryPerimeter=0;" parent="1" source="CILAgf0_198hJgXybKMT-1" target="CILAgf0_198hJgXybKMT-5" edge="1">
          <mxGeometry relative="1" as="geometry" />
        </mxCell>
        <mxCell id="CILAgf0_198hJgXybKMT-1" value="If detected gyro" style="rounded=0;whiteSpace=wrap;html=1;fillColor=#d5e8d4;strokeColor=#82b366;" parent="1" vertex="1">
          <mxGeometry x="40" y="110" width="120" height="60" as="geometry" />
        </mxCell>
        <mxCell id="CILAgf0_198hJgXybKMT-3" value="Exit" style="rounded=0;whiteSpace=wrap;html=1;fillColor=#d5e8d4;strokeColor=#82b366;" parent="1" vertex="1">
          <mxGeometry x="40" y="190" width="120" height="60" as="geometry" />
        </mxCell>
        <mxCell id="CILAgf0_198hJgXybKMT-7" style="edgeStyle=orthogonalEdgeStyle;rounded=1;orthogonalLoop=1;jettySize=auto;html=1;exitX=0;exitY=0.25;exitDx=0;exitDy=0;entryX=1;entryY=0.25;entryDx=0;entryDy=0;" parent="1" source="CILAgf0_198hJgXybKMT-5" target="CILAgf0_198hJgXybKMT-1" edge="1">
          <mxGeometry relative="1" as="geometry" />
        </mxCell>
        <mxCell id="CILAgf0_198hJgXybKMT-5" value="Tell user to check gyro" style="rounded=0;whiteSpace=wrap;html=1;fillColor=#d5e8d4;strokeColor=#82b366;strokeWidth=1;fontSize=14;" parent="1" vertex="1">
          <mxGeometry x="180" y="110" width="170" height="60" as="geometry" />
        </mxCell>
        <mxCell id="CILAgf0_198hJgXybKMT-10" value="" style="edgeStyle=orthogonalEdgeStyle;rounded=1;orthogonalLoop=1;jettySize=auto;html=1;" parent="1" source="CILAgf0_198hJgXybKMT-8" target="CILAgf0_198hJgXybKMT-9" edge="1">
          <mxGeometry relative="1" as="geometry" />
        </mxCell>
        <mxCell id="CILAgf0_198hJgXybKMT-8" value="GYRO_display" style="rounded=0;whiteSpace=wrap;html=1;fillColor=#dae8fc;strokeColor=#6c8ebf;" parent="1" vertex="1">
          <mxGeometry x="40" y="280" width="120" height="60" as="geometry" />
        </mxCell>
        <mxCell id="CILAgf0_198hJgXybKMT-14" value="" style="edgeStyle=orthogonalEdgeStyle;rounded=1;orthogonalLoop=1;jettySize=auto;html=1;" parent="1" source="CILAgf0_198hJgXybKMT-9" target="CILAgf0_198hJgXybKMT-13" edge="1">
          <mxGeometry relative="1" as="geometry" />
        </mxCell>
        <mxCell id="dyzSpn0cVYY5r3z0eFrF-2" value="" style="edgeStyle=orthogonalEdgeStyle;rounded=1;orthogonalLoop=1;jettySize=auto;html=1;" parent="1" source="CILAgf0_198hJgXybKMT-9" target="dyzSpn0cVYY5r3z0eFrF-1" edge="1">
          <mxGeometry relative="1" as="geometry" />
        </mxCell>
        <mxCell id="CILAgf0_198hJgXybKMT-9" value="get gyro data" style="rounded=0;whiteSpace=wrap;html=1;fillColor=#ffe6cc;strokeColor=#d79b00;" parent="1" vertex="1">
          <mxGeometry x="40" y="350" width="120" height="60" as="geometry" />
        </mxCell>
        <mxCell id="CILAgf0_198hJgXybKMT-11" value="No" style="text;html=1;strokeColor=none;fillColor=none;align=center;verticalAlign=middle;whiteSpace=wrap;rounded=0;" parent="1" vertex="1">
          <mxGeometry x="160" y="170" width="20" height="10" as="geometry" />
        </mxCell>
        <mxCell id="CILAgf0_198hJgXybKMT-12" value="Yes" style="text;html=1;strokeColor=none;fillColor=none;align=center;verticalAlign=middle;whiteSpace=wrap;rounded=0;" parent="1" vertex="1">
          <mxGeometry x="83" y="165" width="60" height="30" as="geometry" />
        </mxCell>
        <mxCell id="dyzSpn0cVYY5r3z0eFrF-6" style="edgeStyle=orthogonalEdgeStyle;rounded=1;orthogonalLoop=1;jettySize=auto;html=1;exitX=1;exitY=0.5;exitDx=0;exitDy=0;entryX=0;entryY=0.5;entryDx=0;entryDy=0;endArrow=oval;endFill=0;startArrow=oval;startFill=0;" parent="1" source="CILAgf0_198hJgXybKMT-13" target="dyzSpn0cVYY5r3z0eFrF-5" edge="1">
          <mxGeometry relative="1" as="geometry" />
        </mxCell>
        <mxCell id="CILAgf0_198hJgXybKMT-13" value="Display the mode" style="rounded=0;whiteSpace=wrap;html=1;fillColor=#ffe6cc;strokeColor=#d79b00;" parent="1" vertex="1">
          <mxGeometry x="40" y="420" width="120" height="60" as="geometry" />
        </mxCell>
        <mxCell id="dyzSpn0cVYY5r3z0eFrF-1" value="The motor degree - gyro = How much needs to rotate.&amp;nbsp;" style="rounded=0;whiteSpace=wrap;html=1;fillColor=#ffe6cc;strokeColor=#d79b00;align=left;" parent="1" vertex="1">
          <mxGeometry x="180" y="365" width="300" height="30" as="geometry" />
        </mxCell>
        <mxCell id="dyzSpn0cVYY5r3z0eFrF-5" value="" style="shape=image;html=1;verticalLabelPosition=bottom;verticalAlign=top;imageAspect=0;image=data:image/png,iVBORw0KGgoAAAANSUhEUgAAA1oAAAEiCAIAAABvLjRMAAAACXBIWXMAAA7EAAAOxAGVKw4bAAAAEXRFWHRTb2Z0d2FyZQBTbmlwYXN0ZV0Xzt0AACAASURBVHic7d1LkB3Xfd/x/zndfR8zmMEMOCRFmqQF0YlAOU6Jgh+LkHascllVXillpbxzZSFXvHVZTlWcLFN2lR1VtqkUV16bFqu8iiVRpgimrFgk7EQmEUskLBEkSPACdx6Ymfvq7ix6ZjC453/A0+zuefX3s2BBrZ5zzr39u+f+Mbj33+by5csCAACAtrLHvQAAAAAcJ8pBAACAVqMcBAAAaDXKQQAAgFajHAQAAGg1ykEAAIBWoxwEAABoNcpBAACAVqMcBAAAaDXKQQAAgFajHAQAAGg1ykEAAIBWoxwEAABoNcpBAACAVqMcBAAAaDXKQQAAgFajHAQAAGg1ykEAAIBWoxwEAABoNcpBAACAVqMcBAAAaDXKQQAAgFajHAQAAGg1ykEAAIBWoxwEAABoNcpBAACAVqMcBAAAaDXKQQAAgFajHAQAAGg1ykEAAIBWoxwEAABoNcpBAACAVqMcBAAAaDXKQQAAgFajHAQAAGg1ykEAAIBWoxwEAABoNcpBAACAVqMcBAAAaDXKQQAAgFajHAQAAGg1ykEAAIBWoxwEAABoNcpBAACAVqMcBAAAaDXKQQAAgFajHAQAAGg1ykEAAIBWoxwEAABotfgI5siNtWJyiY5gLgAAgLMnN8YYI+moicGbLQfN4tPR+We65z/dX36i0YkAAADOtvH2R5Ot9ybrb+Ubf1/vyA2Wg/b85xef+NXuuUdFZLT1YZT0J6MNEYmiTm/p0ebmBQAAOGO2199dXHmyu/hwtvbM5o2HZ7e+LXle1+CNlYPLnzv31K91FtZEZLT1YVH/Jb3l4v+cjjYpDQEAAMqycXfl0782zMbpR6/WNWZT5WB39V/O1YKHJb3lw6VhOt1NZ6Mo7lEaAgAAfKyFhy9vDv/OzLZqGa2ZcrD7aG/lafHUgnMoDQEAAErpLn0qWvpsNvx+LaM1Uw5Gi0lvKaQWnDNXGorIZLTBPygDAADMifoPZ8N6hmqmHLTJJ6gF5xR1YfHfg9JQRBZXnqxjiQAAAKdabS38jqLvYHWHS0M59E0USkMAANBSxtQ10ukoB+fM/ZsyX1IGAAD4xE5lOXgYpSEAAEAVp74cPIzSEAAAoKwzVQ4eRmkIAAAQ4syWg4fR2hAAAMCnFeXgYZSGAAAAh7WuHDyM0hAAAKDV5eBh3BAFAAC0E+Wggq7XAACgPSgHP576JWVKQwAAcDZQDpZD/xoAAHDGUA5+cpSGAADgDKAcrAelIQAAOKUoB+tHaQgAAE4RysFm0doQAACccJSDR4fSEAAAnECUg8eDrtcAAOCEoBw8foe7Xh+UhkJrQwAAcCQoB08WbogCAACOGOXgnrWV3pe/+Jm9/2FERCSXK1dvPveFx4o/H/xfg+FoMNy9dHH14LTC3sn5/Aj/8MNbc3MZa62N3DWks+nckaiz2O8s5lmWzqbT8Vbxu0MbJQvLj2VZOneytZF70FgrInmWzY8cJ+4Csix1z1SH9c2V57nkecjJNoqNMXMH8yyrNJcxxpjwh1A8OfctIM+zdKbM5YwpxvzKzz85HwMj3/jWj27d3g5ZgBgTRcoL0I1B2cd17DFQ5ypxFSrGoORq3RejNwZa5H7l55+89JlVkft2iZe+/faHg7shC6geAzWfvrnUEarH4Hf+7b8Que8ZuHZ9+N3v3ziyGEiZyAXGQLSrUEvk1CDpMUhnFXe5JmJQPXKnKwYtQTm4Z221v1f5HXLt+vC5Z5WDg5Ve+MlKEEVEy5x6Zp7neZ6JSJQsRMlCcXwy2hht3xERGyW9c48UB421Dx7hgFuH7S0gTd0zs9yoLxtlLmPyLM3v37x8I1ht78ty5ZVfZi4rJnS1xlrlWchzdS7lx429dHHVjcFffPOHoQswVrSdRz+zzOMKjIGIRKK9ATgxqD6XNwbqC6FqDMqF1l2ALwZq5C5dXHVf+N/41o+OLAZ6Pj1z5SKBMVDfhn0xcJ8BEfnr7/04MEhqDHJRrkL1yIXHIC8Rg+r7pB6D6rtceJDCY1A9cuF7csUYPGCu8LfmlqAcPJWS3rKN+8WfJ+PN2WhLRJLOQtJfPdZ1AQCARjT6sTHKwVOv013udJdFJIqT3e3bRWl4+LeGAAAAD0A5eKYclIYiMhlvZtNRns1s1Okurh3vwgAAwIlFOXhmdbrL0l22NsrzfDxaz6ajdDaO4i6/NQQAAIdRDrZCURoWf56Ot7LZyBhuowwAAEQoB1so6S6Z3nKcdIUbogAAABFz+fLl+kc999lzT/3G6Sov1lZ6ly7ufS33oHXgtevDh1a6+/9r7/8cDEdiZG2lL/f1GJTBcHdttSf3t6G7vT5yv/c+WB+rrV70b+k7Py4iRkwu842v1JP1g2Lc9k4iMt4ZTkcbIrKw//UlI0ZEKs6ljqC3lsiyJubyjaA0PlT7FHjmWrvQd2KQX3tnGLoAz1VQYuB7XNViIL4+L27zsDoipz6EMxCDZ55+6KGVnhzeI0SuvPF+xRdjIzHQzpRSV8Ez16WLK3v///5P314f37oz34DTN8IZiEGpuRqJwVG+GCtHzjeC2oy24i5Xau/ydWE7sTZuvDZ97y9rGYrfDu5ZW+1/9Tc/N3fwhRff/M73rs8dLBLzwa2NueNRnHzwkXLwz/7o1+cOXrl684UX33TX4LY8LT75p/QJixOlZ7V2UB3BGBPbrruAKFks+tccdL02xiyuPuW25NXnimK1I5exkdLUN1FeeFmeVZvLGrWflufpMsbZ/vJcnUtZv7G3BnfdGKgnqwswxsa2M78AtfNtyccVHiTb0cpBre9g9cjpMYiVd8HKMdDn8o2gtP/1xECN3HPPPqZ0IX3n9gcfbYYsoHoMSkVOtCZwegyyNDxyP/jHD+fHLLN3qTHIRbkK1SNXIgbqnlxH5NQgqTHI0lnFXa5EkIJjUD1y4XtyxRg8YC51BLUXd0tQDkKXdJeS7lJRsR2+IQrfRAEA4IyhHMTHK0rD4s9F1+soinKxlIYAAJwBlIMop2htWPym/eCGKPzWEACA04tyEJ/cfNfryU6eZ8bGlIYAAJwilIOoR6e7bBcuFB+Rno630ulu0fW6f6q+YA4AQAtRDqJ+93/WcEvS8WS8ww1RAAA4mSgH7xkMR+5BtxmKMUaMUY6LctA3rEr9cWPMoW5eHzNX8Ah6ayX1TKM9WN9c7uFOd9lGUWdhJkVpKDLd3YyiJF59Qv3hKnP5Lo1/hIBBPQe9MQhegG9J1SMXHiT/AuqPnO+ZUX+8SgzKhzZoUPWwMWawvhu4dfjWGriA+iIX9iQ0EznfCMqPNxa52mNQfZ/0L6nqLhceJO/8DUTuCGNQboQ2oxzcMxjuXrn6/tzBa9eHxunMuZchrWOndrLVhl1X1/CVL11yz3zz7YHkWpS1udyD1tjnL//U2mpv7vhLL8/3UxSRX/mFp9wzv/Gtt9W51NXud6PVR+j2Vw7+OxtvichktCEii/tdrz/39Jo7wje+/Y76uP7Nl/7Z3MHiXVl5CNoIRUOsecZUncvzdHmD5HCf2MFw9N3Xb7iRe+bph9yn68obN5U2eP4guYy17pml5lpb6bnPjBqPK2/cHKzP11JGlKvgi3emXsYyI7g//vCFBfVxuesfDEeD4ch9jasvEPXpGgxHV67eVB6CFphfvvxElVeoL7TqbmCMaShy7mpFey1Un0vdT668cfPD23fnDqoxMJ7doHrk3BG8fytw2jH63oA8m4x/59HewpQFaDEIf7B7cwW/helrCH5ic8krvl2qC2gJysE9a6v9L3/xM3MHB8PRzVvzpZuvh6eJE61ZsXGHvXL15rXrQ3cN6pk/+McPlebpnrncg2Kj577w2MENVwqD4Uh9A1DPfPGbP3SHfeTCgrval15+57lnH1tb7YeMEHeXjDFJb/9OyqPNyWjj4iPL7rCvvv6e29FXotid69r14WA4ct8t1BGMMWobauU5jGJ3Vb65vvv9Gx8Otty51EbW6m0A1Lle+dufuJFbW+mpoQ0Pktp6V21DXWquw/f4OThT9Ie27paDahtqPd6ensCZlfARIpl/D1B3AzXevhioz4x68Nr1oVoOqoG5dHE1PHLqXCIyd2nEUw7mWdZE5NS9yxrrVoQV5zLGXLq44p781jtDd1dXY5B7doPqkVPbUHtuChLabN+zyeg7jzqCuhuoMRC9M78+l2htqH1vYWob6vA3O/1GMmXeLiPt3jAtQTmIEyHpLSe95e7iQ8e9EAAAWqe9hTBOi92tD3c23hvdvXXcCwEA4Gzit4M46fpLjy6M+rJ/QxQRsVGycP7x414XAABnBOUgTo3DXa+n4800nYj0H/wjAADgY/GPxTiVku5yFHWOexUAAJwFlIM4U7J0ctxLAADglDGXL1+uf9Rznz331G/0TtXdydzWGCJy7frw1p3tuYNGjIjkks8fN1b5iruxz39h/lNug/WR2mjmuWeddhXrozffHrhn+uZSDop5/vJPVVnAW2/fdh/sIxcW1afLPegbQe2qcOni6trKfFO0V994P/yJFZGDEWbTnXS6O5ts/6//c7u7+LA7gtvrS+9TEDDXx65WvTRuUzFp7CqoQVKvgtJXouRc7tPie7rUHit5loW/vtQnVsq8Qt0Y+HYD9cGK9rjUk30jqC9GpZOImGeefqjiC8T9cSlzFapHTr0Kag5LXQV3rrJPV/huUD1y4buBGoPqc6kjeDrdVH0xuj/+gBEqXoVSc4VfhZNs48Zr0/f+spah+OzgnrXV/ld/83NzB1948c3/+rV/NXfQ12nshRffVEf4zvfme3pZG0Vx4q7B/XFvu7g4SWfTkIPW03fwa19/zV2AeuaVq++7vbv++IXXlccVxR98tOF25PrKly65I3zt66+593JQ+4SJ9sy89PI7f/4/rwV25Pr8z136j1+d/2vPCy++qbwL5rnyHEax+2CNsb/7W593Y/Dm2wO3CZx6aYyxsVX+vdt9sNeuD5979jF3rt/+w79yO6hFceIetDb6T//+l9z30X/3n7/tLuAPf+cX3DNLzeXu4L4YqMWQ2ndQj7enCZyxUfgIbru1j+7sKI9Lj7ceg9//01fdzKhPlzE2TpQYqIFRY7C2qvTnU3ceXxO4pKPUiFmWui+lW3e21Ri4+2SpvcvEytvwpYur7mtB33m0eA+Go9/7k1fcGHzq4eWv/8HzcwdfevkdtfliQ5FTuwmqu0GWzgJ3ufA3Bd8ItqP/5VA5U+s76JtLtMj5Vqv0Hcyz8Dc7tXYs9XbZ5r6D7X3kaLnJ7p3t9XePexUAABw/fjuIlur0LxQ3xytuiCKH7pUHAECrUA6i7YobohR/now3R3dvi4iNkt65R451XQAAHBHKQeCeTnfZRnufo5qOt6ajTRGJO/1O/8KxrgsAgAZRDgK6pLuUdJdExEbxeGdYlIb81hAAcPZQDgIf76A0lP3fGhpjZ5OfOd5VAQBQC8rBe9y+J+rBwfposL6rH9dGcBsplVqAMUZkfgQjRh1WPTgYjgYr9408WN/1LcA9czAs9bjcw8Y3gr6AsKugzmVM8cToT0LIApRBnYOd3nKnt2yMXd+JPrqzI3mWZbM8m8Wdc8WZgZfGF4zwyFWMgY96Zqm5tNCWiEH4c+g5bEqOEDSoetgYo14a3wjhMVDP1Hee4Ffo/pGwJ0F7Dn0xqL53KWOW2VHVvcsXg4q7QR2R0/ausCU8YJcrETnPCPr8nkcbOpdIlRhU3nnKjdBm98rBaK2XDkJfJGfPYLh75er7cwevXR/+3p+8MnfQGPPLl59wT37r7dvuydZGxuntaY3e30dbwLqxVnItys6wxlh1rmvXh776z5lOOfPV19975fvzDVl8jyvTHtlgfeQ+NL3s08589Y33lQUY6zYq23t5Owu7rQ2r9v4VYwIflzFmMBy99ncfHBzJ0kGe5z++/v9s1O3e/w/K6qXxbUbqc/Xd12+8+M0fugtrIgb/48//71yrMxH52Z95+NLFlfmlvnHTbYN37fr62kpvbdXtzLyuPTRlSUaUq+B7XGrkSo2g/Xy5GCiPa30cuABvOaidqc4V/grdm0vbT5QFGOO+lDwLsxX3Lgl+LdxeH4XHW43BYH2srlZZZ3AMfHOFh9Yfg9BdzpMuf+S0i6ssQItB+IN9QOTUEfQ1BD+xueQV3y7VBbQEvx3cs7baV3rkDkdq29hLF1fdd8G/+NaP3M6cxhj3oHh6XboL8LVyNXESPpfaXFrtuaqe+eI3fxg6l6dBq9pc+srVm4FtqF99/b0PPtoMm0tvr/rQitKndzAcqW2o1celPQN6DF77u48+HGyNd4YiMh1tFp81VJ8uY6x6GwB3qdeuD1/5258o9yeoFgMRUWOQpakbuTXPc6heWfd+EsW11h7aenFjj/sWoLWhLhW5zEr4CJHbftUTAzVyagzU0JaKQXjkvvv9G27nc99covYEdhpxi0ieZeGRq7h3WWPdilCN3FvvDN092bfLqXvXIxcW3GFfevkd9++HeYkYlIucGiTPTUFCdznPFddjoI4QHgPPllgicr4gKW2oRbkKvl1Ov4VJmX2yzW2oKQeB+hUfNCz+Ox1vZbN4tH1HRBbOz98wEACAY0c5CDQr6S5FcWLjfvE/D/rX0PUaAHBCUA4CR+q+Lynv3xAlijq9pUePdV0AgPaiHASOzeEbohyUhgAAHDHKQeBEOFwaAgBwlNr7JRrgtMjSyc7GjdHdW8e9EADA2WQuX75c/KnOvoPnPnvuqd84XZ+FcltjiMi168Nbd7bnDhoxzzz90NrKfFu1V994X/mKu7HKQTFuNykRee7Z+RYSg/XRm28P3DP1YT1zPX95/tusg/WR2nVPXcBbb9/OZb4LXakFqE+X0uRF5NLF1YpPrIi4q33kwqJ6cd0WJ3qfgjKPq6EYFFdhOtpMp7vpbBTFvd7SoxVjIJ6roPSV8D+H7sHB+sh9WoqnOjAGeZZVjJxoMfCN4LZ8OwkxUDqJ1DGX+7SIiKfFSYmr8PwXHp87WGrvUheg7sn6g/Xscure1dBuIGUiVzEG1edSR6geg/DINfRiLDVX+FU4yTZuvDZ97y9rGYp/LN6zttr/6m9+bu7gCy++qfYd/Icf3nJfpb/6SxfVEb7zvfnWbtbT3Mj9cV/vrihO0tl07uCnHl7++h88746gNoH72tdfcxeg9u76vT95xe3PpC7Aluk7eO2fhoF9B99657bbws0zl7fvoHpp1L6D6uNS+2k99+xjbhO4N98euE3g1KfLGBvbzvwCtBhcuz4sImfjvo37iYiIjLbvSDadjLejuHv4Nsr6pfH0HdTLQa3v4K072+5rIYoT96DVun8ZY77ypUtK50LtbyZq38FSkTM2Ch9BabfmiYEaOTUGamhLxUA9s3rkRGsCZzta48MsVVrTacNGcVJx7zKx8jZ86eKqO+xHw90f/OMHcwfVePv2rjzP3GFfevkdtQenGoP/9h9+eW21PzfXlavvu/H+/T99NXzvUmOQpTP3zN/9rc+7MXjhxTcD34B8+2R4DP71L376d77ysyELuHZ9+F/++98ExiCKE6XvYJ6pZ/7ZH/363EH1zU5EfvsP/0odQd0n6TsI4JQp+tck/amITMdb6XQ3S6c2ShZXaG0IACiHchA49eaa16TprGhtSNdrAEAIykHgTEl6y3Y2PagOJ+PN2WjLWivyS8e7MADAiUU5CJxlne5yp7usfkgcAIBCez81CWB7/d3R1ofHvQoAwDHjt4NAexX3TeZeeQDQckdUDk5Hm9xxATiZ5u6Vt3t3kOe5jZLD/WsAAGfYEbWhPhXloNv+V21DLZ52l6UatKpdoMMbz6rtf0s1zW6oC7TaBVTt+6ouQO0adeXqTfWZ0TuOasetjdSL6zaeFc9VUHs4q/2Wwy+NePq+uksVkVdff+/ImoEfNJ6djjano00xxkbJU09dDG9DLVrHaV+QjqzxrLWRenHD2/9Wj5z7dEmZZuCfe3qtyiv0Aat1z1T7D5fqRi7VYtDcrQEq7snqbqA+CaX2LvUqhMfgytWbFd/CmoiBlNy7wncD9SJKmcjRhnoO/1i8R2156mtDrfbwLNWgVd161K6YX/6i8jasNvz84xdeV3sCuyMMhiP1HUg985Xvv1uxJ/BzX3gssA21emb1NtTP/POHAttQ55nS8tRGsdpedTAcuc1gX3r5Hfch+IKk7r/qXK/87U/CIxceJDUGaTorNkob97vn9trt/swTXfU5VOOtdj5XgxTHHXHeALIsbaINtcR6V+HI+Qi1LwbVI6deXP0qnMg21L59MjAGIvLd12+4C1NjoM5VapdTI/eph5fVNtTunpx7upF/+YsXA9tQl9q79HJQa0OtxkC0raPUW1h4DD776ZXweP/1//5xE22oK0aONtSu9j5yAOHiZME9OJvcPfqVAABqRzkI4BOKO+eOewkAgBpQDgKo02x8dzbZOe5VAABK4LODAOoUd8/FnflPcwMATjLKQQBHYWf9Rpal9K8BgBOIchDAUVhYeaL4mud0vDUdbYqIjZJzK08c97oAAJSD+wbD3Zdefmf+4PrIRvNPkTHGiHHbIhhjlZPFqMOqa1DnuvKG0pXm2vWhNuxu4Ahuh5eCeqY1VrTH5c5ljc0j43b9uHZ93V2tSj/TlJhLvTS+i6uswDOX8uPD0WB9NFjfDXkIviApCxDRf9xG4ZELD5LKRlGez3+q2BO5kf7E5vKAIHUXVrsLe80gpuOt6XhT7r8hSvXIGTHhI4irscipQVIW4NsNrt50I2dtiRiIiHtx9QVokasYA/GE1p3IP1eJXU4NkhhlT752fb4bS8GzG1xfW73v4xDFblBx7/ItwD1TjYHvKoS/hekLqBiD4UjdT3x7l7uAcm+swZF7wAuktWhDvSfP83Q2mTtoo1jpXibGWJu7TeCiJE2VJlXuCMbYKE7cNcymY/dM0fqEqXOpB30jxEnXXUA6myo9ybSHoM9lozzLxO1uqo4Qd9zXnt5wrsRc5S6N2+hLjYGxkTumby71wfqCFCcd56ASg1oiJ9ViUD1yviAd9H09uFeeMXFn4ULQXKUi5xkhct4V/DGoGrkmYlAqcsaY0BiksyYi5wuS2/43z7KGIhcYA1H35DoipwbJE4NJE5FTRwiPQfXIldiTtRjUEjk1SOpb80lGG+oG5PncX8IODs8dMcaoJ+cSPoJ3Ce6ZefBc6kF1BN/fgdQzwxdg9scIGSFwAWXnKnVpfCtw5yoRg1JB8iwhdK4ykWviKpSK3Mcu4OBeeWk6G+8M0+luOhtHcbf4rGH1yPlHcHhiUD1yjcSgTOTCY9BQ5MJfjA1FLjwG6o/XFDktSLpmIlcxBpUjVzEGnrlq2LvajHIQwImTdJeS7lLx58l4M5uOJE/FRHwNBQCaQDkI4ETrdJelu1zcVKooDbN0yjeUAaBGlIMATo2iNCz+PB1v2Sgab6+L5Avnf+p4FwYApxrlIIBTKeku2SiOk8XiM0CT8eZstCUiizSvAYCSKAcBnAWd7nLn3i8ON8fbQym+nrL/GUQAgA/lIICzJukuR/FC8eeDrtdJp5/05/vXAACEvoMA2uOgteHhrtcAcErRdxAASjtobSiUhgBwCOUggDZSSsM8i+IepSGAFqIcBNB2c6VhOt1NZyNKQwDtQTl4j+8GO1XGVEcodVuq8AX45lJHUNfQ0Fy+EQIXUMtcR3YVwhfgW0NDkSMGgTEoSsO95jW7G+msuFder7/06Ml8MYYv4AEnV1nAmYyBbw3syaUWUMqJjUFLUA7uybNs5ty0vrgRwtxBY6wxJnPvIK6drB60NlLvk+3eLt3aKM9z5Z7cZeZyRzDG6Hcrn03dM42NlFuzq3NFcZ6l7h021RHipOu+9rIsrTZXuUuj3i7djYHvdunqXPqd7D1B8ty0fj4GtURODVLS6bkLcGNQfS5vDOKOsXbuYOUYlAttFM1vgwcxMFE3jrpxV0RktHMny7Lp7sbhG6JUvzTVY1AqciISGIMsnTUROfVkNQZ5njURuRIxyHNlT64jcurepcYgnU0q7nLhb2HhMageuRJ7crUYPGCu8LfmlqAcBICPl3SX8yxNOueK/1l0vTbG0vUawBlAOQgApRVdr4tffhzcEIV75QE4pSgHAaCSwzdEKUrDKIpysQf/pgwAJxzlIADUpigNi08mHfzW8PDHDQHgBKIcBIBG3H8b5a3x3Z00nVEaAjiBKAcBoHFJdylavFB8mfHgNso2SvpLnzrupQEA5eAhxafC7zsiRjlobYmTtYPiaW6knmlERCrN5Y7g665kjHHPNCZ0LmOMGCvitGDQRvAtQD0zdC7PpdFHkNCroD8DvhiEP11OZw3vAuqInBokzwLmY1B9Lm8MtCg2Fzl9BE1DkSsOdnrnO73zxcHZ9O5sNHW7XjcVuTwPjIGED1smcuFbYkOR8wZJ01TkPEHy/HgNkQscQV1BE5HzXVxl/mYiV+qtuSXulYPpYNTcNAcd/08uY9QdwXuw1MkBp3nPNEay+UZK5ebyjKD8uLXumUZKPDPqUd8Iyk9rZ3p/XJ1LuzThCzjKGDxgCbXPVT0G1efSr0Keh1+vipGrHoPqkXMPJt3lg453h2+IkvQv6D9eLXK+i1v7XOX2Li0G1ecqFyTttKYiV207qBg53wje+ZuJXA1bonuk+tvlyba9/u7iypMNDc5vB/fludts01irHDRWtB6e+snaQSsiTrNNEVHPVPtqlppLbdDqzi4iWZq6Z2Z56IO1xqgNWtURrNP0VUSyPKs2V7lLo7bAV+cKj4F+si9ISgqUGNQSOb1Bqyg9V90YVJ/LGwP1hVA1BuVC6y7AF4PqkXtwDA7fK29n66N0upul04PPGtYSuVztCazFIM9Cr0KpyOknazHIJXRPLhW58BjkJWJQfZ/Ud4OmIqc2sg6OQfXIhe/JFWPwgLnC35pbgnIQAE6cpLuUdJeKP0/HWyIyG981RnpLfPNxvgAAEitJREFUjx3rugCcTZSDAHCiFXVhp3feGJNlKV2vAdSOchAATpO5rtfZZCfLUvrXAKiCchAATqtOd9kuXMjSmRy6V56NksUVfnEIoATKQQA4C+7rej3aHG3fEW6IAiAM5SAAnDVJb9nG/eLPB12vo6TbW6Q0BKCgHNxnTBTPf83eGKscFCOidA3VT/aP4FLPzCUXpwNBqbncEXwLsFGknmkC5zI217pheUZQ1mCNrWGu4EvjLsAXA7WjmG8urZ1V1Rj45qoSAx83BtXn8sZA675bTwyCR3AX4ItB9cg1FIMHRy6KL/QWLxQjTEYbk90NkWyu67XL2qiJyOknazFoKnLhMVCvQh2R843gchty1RU5X+Pr+QV4YhC+y5V6C3MX0FTkyrwYW4JycF+eF/ePOqy4D/3cweKVoDRt0k5WD1obRdpLUT1TbxdXZi61I1dsu+4C1L6DxkbFJ5M+fq4oVjtyqSOYRNlQsjyrNle5S2OMUx5pMbBRrKzfM5d6si9Ise3ML0CLQS2RU4NkO1rbP63vYPXI6TGIjftmUzkG5UIbuS0wPTGoHrkmYlAqclGy2Nv/reFo+0463U1n415/2S0NsyxtInL6wrQY5HnWRORKxEDdk+uInBokNQZZOmsicnqQ1N1Ai0GpyIna6jJ4T64YgwfMFf7W3BKUgwDQRgetDZNO7/ANUR78W0MAZxLlIAC03eEbohQfNBxt3xYT8TUUoCUoBwEA9xR1oY37xb8S0vUaaAPKQQCAl9q/htIQOGMoBwEAQQ73rzn4rWHSWUj6q8e6LgBVUQ4CAEo7+K1hFCej7TvFJw7peg00Z3HlyeYGpxy8R+2Ep3VXMmKM2ogucITyC6g0lzaCviT1TKM9WN9cnidMH0H94Spz+S6Nf4SAQT0HvTEIXoBvSQ1FTg2SfwH1R+7IYlA+tEGDqofLRq6RGJSOXNiTUCZynd5yp3dwG+Wt6e6mtcbapHvu4cARlPkbi1ztMai+T/qX1Ezkgl+MDUXuCGNQw1tzS1AO7jPGWKV9pXbQiIg4x0UkcATraXmqnplLLrkW5eC5fCNoY1r3TCOhz4w1NlN7+uojaA+q2ly+S+O5jnr/4apzBT8Ebx3QTOQqxqD6XOozIw3EoOwI2s9XjoEnck3EoHTkAmNgzCeLXLe/0u2vFDGYjDamoy0jYqOku/9bw8AYhMxVKBW58BiY4BiUncsbJHdYpQV0TZHTLq6yAC0GtUQudE+uY5er+NbcEpSD+/JcazVswvsPmzgJHEE8vS7VM9W+mqXmUhu0itZzVW1DnVllYfpcngat6gjWRu4OqPYfLjOX59Lo19GobajVucJj4DlZD5LVduSGIqc3aA2LQfW5vDEw1i0FKsegXGgjcV6MnhhUj1wTMSgVOVF7AmsxyLOseuSieCE6t1AcGO8M0+mu5DMx8dw/KKsxyCV0Ty4VufAY5CViUH2f1GPQUOTUEcJjUD1yviApbairxeABc4W/NbcE5SAAoHFF1+vibhCT8WY2HaWzcRR3+awhcBJQDgIAjlSnuywHzWvGW1mazMZbUdThhijAcaEcBAAcm6S7FMedbn9F9m+IMhltiEh/+fFjXhnQJpSDAIATobghSvHfLEun462iQKTrNdA0ykEAwElUfNyw+HNRGkZRlIvl44ZA7SgHAQAn3eFvohz81pCu10BdKAf3GRPFiXPMKgfFiN4OSjvZP4JLPTOXXETpmRQ+lzuCbwE2itQzTeBcxuZa31rPCMoarLE1zBV8adwF+GKg9uP1zaX1Yq0aA99cVWLg48ag+lzeGGhtHeqJQfAI7gJ8MageuYZiEB65EjGwUROR00/WYvCAuaL4Qm/xQnFkOtocjzZFcnv/N1FqiIF6FeqInG8El3Wav9QVOfU5VxbgiUHFyIVfhaYiV+bF2BKUg/vyPJ1N544VfxOdO+ht2qSdrB60nuZG6pl6u7gyc6kduWLbdReg9h00NnL7M+lzeTpyqSOYRNlQ1IZzZeYqd2nUvoPqXOG9u9STfUGKbWd+AVoMaomcGiTbUTveKX0Hq0dOj0Fs3DebyjEoF1ql3ZonBtUj10QMSkVOtCZwegyytInI6QvTYpDnWchcNu73l88Vcx2+V15/6dGqMVD35DoipwZJjUGWzpqInB6k4BhUj1z4nhwYA6np7ZK+gwAAnG6HP2s4GW9JOp6Md2htCISgHAQAnDWd7pKxK0l/JiKHu14vrvAlZUBBOQgAOMvu63o92pyMttLZeHHlyeNdFXCiUA4CANoi6S3buH/cqwBOHMpBAACKXxxuiAi/OEQLUQ4CACBJb7m4IYoUpeHuemeR76CgLSgH71E74WndlYwYozaiCxyh/AIqzaWNoC9JPdNoD9Y3l+cJ00dQf7jKXL5L4x8hYFDPQW8MghfgW1JDkVOD5F9A/ZE7shiUD23QoOrhspFrJAalIxf2JDQTOd8Iyo83FrmQBSS95bi7lM4mB0d21m/YqNM//1gdkdOCpGsmcsEvxoYid4QxqOGtuSUoB/cZY6zSvlI7aEREnOMiEjiC9bQ8Vc/MJZdci3LwXL4RtDGte6aR0GfGGpupPX31EbQHVW0u36XxXEe9/3DVuYIfgrcOaCZyFWNQfS71mZEGYlB2BO3nK8fAE7kmYlA6coExMKahyAXGoPpcFWNg7o/B4oWfFpHZ5O5kd8OI2CjpHupfU8/e5a5BaQFdU+S0i6ssQItBLZEL3ZObiVypt+aWoBzcl+daq2ET3n/YxEngCOLpdameqfbVLDWX2hNYtJ6rahvqzCoL0+fyNGhVR7A2cndAtf9wmbk8l0a/jkZtQ63OFR4Dz8l6kKy2IzcUOb1Ba1gMqs/ljYGxbilQOQblQhuJ82L0xKB65JqIQanIidoTWItBnmVNRE4dQY1BLqF7cqnIhccg12IQd85Fcb+IwWjnzmy0JSJR3OkvP1Zx71Jj0FDk1BHCY1A9cr4gKW2oq8XgAXOFvzW3BOUgAACldbrLne6yiBhjpuPN8fZQuI0yTi3KQQAAKkm6y1G8UPz5oOt1p7uY9C8c78KAQJSDAADU5qDrdRQnu9u3D26Iwm8NcZJRDgIA0Ij7bogy3hKRdLJtbNxdXDvWdQHzKAcBAGhc0l0Ske7Cap6lk9GmiExHmyKycJ7bKOP4UQ4CAHCkitKw+K+ITMdbcfLQsa4IbUc5uM8Y63zN3oh20Bgjxm2LYIwNH0FdgmcuyXO39VSJudwR/AuI3DONKF1p1LmssXlk3K4f6gj6AoytYS6td676dCkr0GKgr8ozV/hDKBmDqpFTg+RZwHwMqs/ljYH2JNQTg+AR3AX4YlA9ck3EoGzkQmNgoyYip46gt59sJnIlYqBdhVoi547QXVjxLaCJyKkj6AvQYlA9cr6L6y6gociVejG2BOXgPbnTXSmPjHJQjLHWPS5GOaiOIMaqLUD1M7WmTepcEumrckfIixe5soBMOTOKA+fKrORZJnLf5uUdQV2A5NXm8lwabYQ80l/6nrlCY6BnxhMkX6exwLnKRU4NkqfTWCORU2PgaTjXSOQ8Iyh9B70xqBq5JmJQKnLGmMAYZHnWSOTUIGkxKPr+OUutHLngGBijPK5aIqcGydN+Mm0icp4RQmNQQ+Q8QVL2ZC0GNUTOF6Sw7txnEuXgvjyf+0vYweG5I8YY9eRcwkfwLsE9Mw+eSz2ojuD7O5B6ZvgCzP4YISMELqDsXKUujW8F7lwlYlAqSJ4lhM5VJnJNXIVSkTvKGJQcQV9B4FyVL03lGJSJXPhVaChy4S/GhiIXHgP1x2uKnBYkXTORqxiDypGrGAPPXDXsXW1GOQgAwCmzs/Ge0PUa9aEcBADglDn4PvJ0vJVOdyWfiYkpDfGJUQ4CAHBaJd2lpLsUxUk6mx7cEIWu1yiLchAAgLPgcNfryXjT7M4m421KQ4SgHAQA4KzpdJejOEn6UxGZjDdFZDbaslHSX/rUcS8NJxHlIAAAZ1mnu3zwXxGZjjfHO+vCDVFwCOXgHmNtFCfzB41yUESMGGOVXpeBI+gNkEV8Z+bifh++3FzuCPoColidy22C4Jsrj/Q+otoIWv9hG7nHrY3cnHrn0i6NPoLWeFaPgRhTJgaBT5dPc5GrGIOKc6nPjN6GWotB9cj5gqT8uCcG1SPXUAzCI2fEBMbA2qiJyOkL87ShbiJy4XuyMaahyKkjqJSW3XVErttf7fT3Gl9PR5vT0aYYk3SeUhbgiUHFyPkurvLjzUSu1FtzS1AO7smzLJ1N5w4WH86dO1i8EjKng6V6snrQ2ihyXmAiop6Z57nbV7PUXO4IxugtT9N05p5pbJSls6C5ojjPUrdLljqCSZQNJctS90yJtWdGn0u/NOoIUZwYM/8kqDGwUays3zOXerIvSPpVaCZyapBsJygG1efyxSCOO24poMageuR8QXL7D/tiUD1yTcSgVORE69OrxiDL0iYip56sxiDPQ/fkUpHzBUmJQZ43FDk1SJ421LMmInd4BBv3u+f6xZ+no83JaENEoqjTW3pUPDGoHjlfkJQ9uVoMHjBX+FtzS1AOAgAASXrLSW//H5RHm5PRRpbOxER8E6UNKAcBAMB9itIwnU2zLJ2Ot6ajTaHr9ZlGOQgAALyK1obFn6fjrXSynWUppeEZQzkIAACCJN2l7sJq8dnBw12vF1f4kvLpRjkIAABKO9z1Gqdde79EAwAAAOG3g/cY43Z4MqIdNMaIcdsiGGPDR1CX4JlL8lxp+1RmtfMj+BcQuWcaMRI2lzU2j4zSgkEbQV+AsTXM5V4a9ZlRW0xpMdBX5Zkr/CGUjEHVyKlB8ixgPgbV5/LGQO07WEsMgkdwF+CLQfXINRGDspELjYGNmoicOoKv72ATkSsRA+0q1BI5dQTfApqInDqCvgAtBtUj57u47gIailypF2NLUA7uMcZEWsniNqN6wPFSIwT+eKmTw+dSqY2vfMOqB30vpsCFGWsbmit0AbXEoMICxB+DJiKn8sag8lynPQbV52oqBtXmUnmvQvUYhG10ZV+M+lwnMgbhRUf1PbnU3uUq9WI8uTFoYJ88eygHAQDAUXO7XuMYUQ4CAICj5na9FkrD40M5CAAAjhOl4bGjHAQAACcFpeGxoBwEAAAn0VxpmE5309koinuUhrWjHAQAACcdpWGjKAcBAMBpopSG6YR/UK6CchAAAJxWc6WhiExGG5SGZVEOAgCAs6CoC91voiyuPHmcyzoNKAcBAMAZpH5JmdJQRTkIAADOOPrXPBjlIAAAaBFKQxflIAAAaClKwwLlIAAAQKtLQ8pBAACA+7St6zXlIAAAgFcbSkPKQQAAgCBntes15SAAAEBph7teF6XhQaV46tiDP0VrveamKZ4mAACAs+fwbw1FZDra3F5/d3v93WNcUin8dhAAAKBOR/Ml5TzP6xqqkXLQSN5benR7+OPF1Z9uYnwAAIBTocHSMJtWHWFfI+VgNro5m+wsrv40FSEAAECh3tIw3blZ18Ka+e3gbGt78IPzj/8iFSEAAICrYmm4M/ynfOcndS2mqc8OTm9fnZz/TGdxragIO/3VhiYCAAA41T5Ba8PdwVWZrde1gOjxxx8v/mQX4nxnVte4Ml2fjDYkXkr6q53+yujurU7vfG2DAwAAnEVR3I275zr9lbh7bjranO6uj3duZ7Nx3D1XnDDZvr1546/TO39j5GR/laSQb/7D9ngw2fi5zvmnF1c/naW1feARAADgzIuSfpT0iz/nWTrevjXe/PFs/Qf53R+ZWidqttGMGX84+/DD9NZ3trPMmNpqWAAAgHYxUS7G5PX9Q+4hR9F3MM9TU28RCwAA0Cp52lwxZT/+FAAAAJxdlIMAAACtRjkIAADQapSDAAAArUY5CAAA0GqUgwAAAK1GOQgAANBqlIMAAACtRjkIAADQapSDAAAArUY5CAAA0GqUgwAAAK1GOQgAANBqlIMAAACtRjkIAADQapSDAAAArUY5CAAA0GqUgwAAAK1GOQgAANBqlIMAAACtRjkIAADQapSDAAAArUY5CAAA0GqUgwAAAK1GOQgAANBqlIMAAACtRjkIAADQapSDAAAArUY5CAAA0GqUgwAAAK1GOQgAANBqlIMAAACtRjkIAADQapSDAAAArUY5CAAA0GqUgwAAAK1GOQgAANBqlIMAAACtdq8cTAejY1wHAAAAjgW/HQQAAGg1ykEAAIBWoxwEAABotf8Pm2JmmJDLt2kAAAAASUVORK5CYII=;rounded=1;" parent="1" vertex="1">
          <mxGeometry x="190" y="420" width="178" height="60" as="geometry" />
        </mxCell>
        <mxCell id="dyzSpn0cVYY5r3z0eFrF-9" value="" style="edgeStyle=orthogonalEdgeStyle;rounded=1;orthogonalLoop=1;jettySize=auto;html=1;" parent="1" source="dyzSpn0cVYY5r3z0eFrF-7" target="dyzSpn0cVYY5r3z0eFrF-8" edge="1">
          <mxGeometry relative="1" as="geometry" />
        </mxCell>
        <mxCell id="dyzSpn0cVYY5r3z0eFrF-7" value="GYRO_trim" style="rounded=0;whiteSpace=wrap;html=1;fillColor=#dae8fc;strokeColor=#6c8ebf;" parent="1" vertex="1">
          <mxGeometry x="480" y="160" width="120" height="60" as="geometry" />
        </mxCell>
        <mxCell id="dyzSpn0cVYY5r3z0eFrF-13" value="" style="edgeStyle=orthogonalEdgeStyle;rounded=1;orthogonalLoop=1;jettySize=auto;html=1;" parent="1" source="dyzSpn0cVYY5r3z0eFrF-8" target="dyzSpn0cVYY5r3z0eFrF-12" edge="1">
          <mxGeometry relative="1" as="geometry">
            <Array as="points">
              <mxPoint x="630" y="240" />
              <mxPoint x="550" y="240" />
            </Array>
          </mxGeometry>
        </mxCell>
        <mxCell id="SZ0Sz7Jv5tQZOaLiPWzg-10" value="z" style="edgeLabel;html=1;align=center;verticalAlign=middle;resizable=0;points=[];" parent="dyzSpn0cVYY5r3z0eFrF-13" vertex="1" connectable="0">
          <mxGeometry x="-0.4355" y="-1" relative="1" as="geometry">
            <mxPoint as="offset" />
          </mxGeometry>
        </mxCell>
        <mxCell id="dyzSpn0cVYY5r3z0eFrF-8" value="get gyro data" style="rounded=0;whiteSpace=wrap;html=1;fillColor=#ffe6cc;strokeColor=#d79b00;" parent="1" vertex="1">
          <mxGeometry x="620" y="160" width="120" height="60" as="geometry" />
        </mxCell>
        <mxCell id="dyzSpn0cVYY5r3z0eFrF-11" value="" style="group" parent="1" vertex="1" connectable="0">
          <mxGeometry x="920" y="20" width="140" height="180" as="geometry" />
        </mxCell>
        <mxCell id="BQhlfXO4XIP7kFL3tKAZ-3" value="Legend" style="swimlane;fontStyle=0;childLayout=stackLayout;horizontal=1;startSize=30;horizontalStack=0;resizeParent=1;resizeParentMax=0;resizeLast=0;collapsible=1;marginBottom=0;whiteSpace=wrap;html=1;rounded=1;movable=1;resizable=1;rotatable=1;deletable=1;editable=1;locked=0;connectable=1;" parent="dyzSpn0cVYY5r3z0eFrF-11" vertex="1">
          <mxGeometry width="140" height="120" as="geometry">
            <mxRectangle x="720" y="240" width="80" height="30" as="alternateBounds" />
          </mxGeometry>
        </mxCell>
        <mxCell id="BQhlfXO4XIP7kFL3tKAZ-4" value="main function" style="text;strokeColor=#6c8ebf;fillColor=#dae8fc;align=left;verticalAlign=middle;spacingLeft=4;spacingRight=4;overflow=hidden;points=[[0,0.5],[1,0.5]];portConstraint=eastwest;rotatable=0;whiteSpace=wrap;html=1;" parent="BQhlfXO4XIP7kFL3tKAZ-3" vertex="1">
          <mxGeometry y="30" width="140" height="30" as="geometry" />
        </mxCell>
        <mxCell id="BQhlfXO4XIP7kFL3tKAZ-5" value="sub function" style="text;strokeColor=#d79b00;fillColor=#ffe6cc;align=left;verticalAlign=middle;spacingLeft=4;spacingRight=4;overflow=hidden;points=[[0,0.5],[1,0.5]];portConstraint=eastwest;rotatable=0;whiteSpace=wrap;html=1;" parent="BQhlfXO4XIP7kFL3tKAZ-3" vertex="1">
          <mxGeometry y="60" width="140" height="30" as="geometry" />
        </mxCell>
        <mxCell id="BQhlfXO4XIP7kFL3tKAZ-6" value="Read function" style="text;strokeColor=#001DBC;fillColor=#0050ef;align=left;verticalAlign=middle;spacingLeft=4;spacingRight=4;overflow=hidden;points=[[0,0.5],[1,0.5]];portConstraint=eastwest;rotatable=0;whiteSpace=wrap;html=1;fontColor=#ffffff;" parent="BQhlfXO4XIP7kFL3tKAZ-3" vertex="1">
          <mxGeometry y="90" width="140" height="30" as="geometry" />
        </mxCell>
        <mxCell id="BQhlfXO4XIP7kFL3tKAZ-7" value="If function" style="text;strokeColor=#82b366;fillColor=#d5e8d4;align=left;verticalAlign=middle;spacingLeft=4;spacingRight=4;overflow=hidden;points=[[0,0.5],[1,0.5]];portConstraint=eastwest;rotatable=1;whiteSpace=wrap;html=1;movable=1;resizable=1;deletable=1;editable=1;locked=0;connectable=1;" parent="dyzSpn0cVYY5r3z0eFrF-11" vertex="1">
          <mxGeometry y="120" width="140" height="30" as="geometry" />
        </mxCell>
        <mxCell id="dyzSpn0cVYY5r3z0eFrF-10" value="While function" style="rounded=0;whiteSpace=wrap;html=1;fillColor=#b0e3e6;strokeColor=#0e8088;align=left;" parent="dyzSpn0cVYY5r3z0eFrF-11" vertex="1">
          <mxGeometry y="150" width="140" height="30" as="geometry" />
        </mxCell>
        <mxCell id="gk2ICgQUbsLSR0b4cpOf-2" value="" style="edgeStyle=orthogonalEdgeStyle;rounded=0;orthogonalLoop=1;jettySize=auto;html=1;strokeColor=#97D077;" edge="1" parent="1" source="dyzSpn0cVYY5r3z0eFrF-12" target="gk2ICgQUbsLSR0b4cpOf-1">
          <mxGeometry relative="1" as="geometry" />
        </mxCell>
        <mxCell id="gk2ICgQUbsLSR0b4cpOf-16" value="motor2" style="edgeLabel;html=1;align=center;verticalAlign=middle;resizable=0;points=[];" vertex="1" connectable="0" parent="gk2ICgQUbsLSR0b4cpOf-2">
          <mxGeometry x="-0.3749" y="1" relative="1" as="geometry">
            <mxPoint as="offset" />
          </mxGeometry>
        </mxCell>
        <mxCell id="dyzSpn0cVYY5r3z0eFrF-12" value="When the data &amp;gt; base" style="rounded=0;whiteSpace=wrap;html=1;fillColor=#b0e3e6;strokeColor=#0e8088;" parent="1" vertex="1">
          <mxGeometry x="490" y="270" width="120" height="60" as="geometry" />
        </mxCell>
        <mxCell id="gk2ICgQUbsLSR0b4cpOf-6" value="" style="edgeStyle=orthogonalEdgeStyle;rounded=0;orthogonalLoop=1;jettySize=auto;html=1;strokeColor=#97D077;" edge="1" parent="1" source="SZ0Sz7Jv5tQZOaLiPWzg-1" target="gk2ICgQUbsLSR0b4cpOf-5">
          <mxGeometry relative="1" as="geometry" />
        </mxCell>
        <mxCell id="gk2ICgQUbsLSR0b4cpOf-18" value="motor1" style="edgeLabel;html=1;align=center;verticalAlign=middle;resizable=0;points=[];" vertex="1" connectable="0" parent="gk2ICgQUbsLSR0b4cpOf-6">
          <mxGeometry x="-0.4342" relative="1" as="geometry">
            <mxPoint as="offset" />
          </mxGeometry>
        </mxCell>
        <mxCell id="SZ0Sz7Jv5tQZOaLiPWzg-1" value="When the data &amp;gt; base" style="rounded=0;whiteSpace=wrap;html=1;fillColor=#b0e3e6;strokeColor=#0e8088;" parent="1" vertex="1">
          <mxGeometry x="750" y="270" width="120" height="60" as="geometry" />
        </mxCell>
        <mxCell id="gk2ICgQUbsLSR0b4cpOf-4" value="" style="edgeStyle=orthogonalEdgeStyle;rounded=0;orthogonalLoop=1;jettySize=auto;html=1;strokeColor=#97D077;" edge="1" parent="1" source="SZ0Sz7Jv5tQZOaLiPWzg-5" target="gk2ICgQUbsLSR0b4cpOf-3">
          <mxGeometry relative="1" as="geometry" />
        </mxCell>
        <mxCell id="gk2ICgQUbsLSR0b4cpOf-17" value="motor2" style="edgeLabel;html=1;align=center;verticalAlign=middle;resizable=0;points=[];" vertex="1" connectable="0" parent="gk2ICgQUbsLSR0b4cpOf-4">
          <mxGeometry x="-0.4784" y="-1" relative="1" as="geometry">
            <mxPoint as="offset" />
          </mxGeometry>
        </mxCell>
        <mxCell id="SZ0Sz7Jv5tQZOaLiPWzg-5" value="When the data &amp;lt; base" style="rounded=0;whiteSpace=wrap;html=1;fillColor=#b0e3e6;strokeColor=#0e8088;" parent="1" vertex="1">
          <mxGeometry x="619.5" y="270" width="120" height="60" as="geometry" />
        </mxCell>
        <mxCell id="gk2ICgQUbsLSR0b4cpOf-8" value="" style="edgeStyle=orthogonalEdgeStyle;rounded=0;orthogonalLoop=1;jettySize=auto;html=1;strokeColor=#97D077;" edge="1" parent="1" source="SZ0Sz7Jv5tQZOaLiPWzg-7" target="gk2ICgQUbsLSR0b4cpOf-7">
          <mxGeometry relative="1" as="geometry" />
        </mxCell>
        <mxCell id="gk2ICgQUbsLSR0b4cpOf-19" value="motor1" style="edgeLabel;html=1;align=center;verticalAlign=middle;resizable=0;points=[];" vertex="1" connectable="0" parent="gk2ICgQUbsLSR0b4cpOf-8">
          <mxGeometry x="-0.5162" y="-2" relative="1" as="geometry">
            <mxPoint as="offset" />
          </mxGeometry>
        </mxCell>
        <mxCell id="SZ0Sz7Jv5tQZOaLiPWzg-7" value="When the data &amp;lt; base" style="rounded=0;whiteSpace=wrap;html=1;fillColor=#b0e3e6;strokeColor=#0e8088;" parent="1" vertex="1">
          <mxGeometry x="880" y="270" width="120" height="60" as="geometry" />
        </mxCell>
        <mxCell id="gk2ICgQUbsLSR0b4cpOf-21" style="edgeStyle=orthogonalEdgeStyle;rounded=0;orthogonalLoop=1;jettySize=auto;html=1;exitX=1;exitY=1;exitDx=0;exitDy=0;entryX=0;entryY=0.25;entryDx=0;entryDy=0;" edge="1" parent="1" source="gk2ICgQUbsLSR0b4cpOf-1" target="gk2ICgQUbsLSR0b4cpOf-20">
          <mxGeometry relative="1" as="geometry" />
        </mxCell>
        <mxCell id="gk2ICgQUbsLSR0b4cpOf-26" style="edgeStyle=orthogonalEdgeStyle;rounded=0;orthogonalLoop=1;jettySize=auto;html=1;exitX=0.75;exitY=0;exitDx=0;exitDy=0;entryX=0;entryY=1;entryDx=0;entryDy=0;" edge="1" parent="1" source="gk2ICgQUbsLSR0b4cpOf-1" target="SZ0Sz7Jv5tQZOaLiPWzg-5">
          <mxGeometry relative="1" as="geometry" />
        </mxCell>
        <mxCell id="gk2ICgQUbsLSR0b4cpOf-29" value="z" style="edgeLabel;html=1;align=center;verticalAlign=middle;resizable=0;points=[];" vertex="1" connectable="0" parent="gk2ICgQUbsLSR0b4cpOf-26">
          <mxGeometry x="0.2055" y="2" relative="1" as="geometry">
            <mxPoint as="offset" />
          </mxGeometry>
        </mxCell>
        <mxCell id="gk2ICgQUbsLSR0b4cpOf-1" value="Motor(z)-1 degree" style="rounded=0;whiteSpace=wrap;html=1;fillColor=#ffe6cc;strokeColor=#d79b00;" vertex="1" parent="1">
          <mxGeometry x="490" y="430" width="100" height="40" as="geometry" />
        </mxCell>
        <mxCell id="gk2ICgQUbsLSR0b4cpOf-22" style="edgeStyle=orthogonalEdgeStyle;rounded=0;orthogonalLoop=1;jettySize=auto;html=1;exitX=0.5;exitY=1;exitDx=0;exitDy=0;entryX=0.196;entryY=0.002;entryDx=0;entryDy=0;entryPerimeter=0;" edge="1" parent="1" source="gk2ICgQUbsLSR0b4cpOf-3" target="gk2ICgQUbsLSR0b4cpOf-20">
          <mxGeometry relative="1" as="geometry" />
        </mxCell>
        <mxCell id="gk2ICgQUbsLSR0b4cpOf-27" style="edgeStyle=orthogonalEdgeStyle;rounded=0;orthogonalLoop=1;jettySize=auto;html=1;exitX=1;exitY=0;exitDx=0;exitDy=0;entryX=0;entryY=1;entryDx=0;entryDy=0;" edge="1" parent="1" source="gk2ICgQUbsLSR0b4cpOf-3" target="SZ0Sz7Jv5tQZOaLiPWzg-1">
          <mxGeometry relative="1" as="geometry" />
        </mxCell>
        <mxCell id="gk2ICgQUbsLSR0b4cpOf-30" value="y" style="edgeLabel;html=1;align=center;verticalAlign=middle;resizable=0;points=[];" vertex="1" connectable="0" parent="gk2ICgQUbsLSR0b4cpOf-27">
          <mxGeometry x="0.434" y="-1" relative="1" as="geometry">
            <mxPoint as="offset" />
          </mxGeometry>
        </mxCell>
        <mxCell id="gk2ICgQUbsLSR0b4cpOf-3" value="Motor(z)+1 degree" style="rounded=0;whiteSpace=wrap;html=1;fillColor=#ffe6cc;strokeColor=#d79b00;" vertex="1" parent="1">
          <mxGeometry x="600" y="430" width="110" height="40" as="geometry" />
        </mxCell>
        <mxCell id="gk2ICgQUbsLSR0b4cpOf-23" style="edgeStyle=orthogonalEdgeStyle;rounded=0;orthogonalLoop=1;jettySize=auto;html=1;exitX=0.25;exitY=1;exitDx=0;exitDy=0;entryX=0.75;entryY=0;entryDx=0;entryDy=0;" edge="1" parent="1" source="gk2ICgQUbsLSR0b4cpOf-5" target="gk2ICgQUbsLSR0b4cpOf-20">
          <mxGeometry relative="1" as="geometry">
            <Array as="points">
              <mxPoint x="755" y="470" />
              <mxPoint x="755" y="495" />
              <mxPoint x="755" y="495" />
            </Array>
          </mxGeometry>
        </mxCell>
        <mxCell id="gk2ICgQUbsLSR0b4cpOf-28" style="edgeStyle=orthogonalEdgeStyle;rounded=0;orthogonalLoop=1;jettySize=auto;html=1;exitX=1;exitY=0;exitDx=0;exitDy=0;entryX=0;entryY=1;entryDx=0;entryDy=0;" edge="1" parent="1" source="gk2ICgQUbsLSR0b4cpOf-5" target="SZ0Sz7Jv5tQZOaLiPWzg-7">
          <mxGeometry relative="1" as="geometry" />
        </mxCell>
        <mxCell id="gk2ICgQUbsLSR0b4cpOf-31" value="y" style="edgeLabel;html=1;align=center;verticalAlign=middle;resizable=0;points=[];" vertex="1" connectable="0" parent="gk2ICgQUbsLSR0b4cpOf-28">
          <mxGeometry x="0.4527" y="-1" relative="1" as="geometry">
            <mxPoint as="offset" />
          </mxGeometry>
        </mxCell>
        <mxCell id="gk2ICgQUbsLSR0b4cpOf-5" value="Motor(y)-1 degree" style="rounded=0;whiteSpace=wrap;html=1;fillColor=#ffe6cc;strokeColor=#d79b00;" vertex="1" parent="1">
          <mxGeometry x="720" y="430" width="110" height="40" as="geometry" />
        </mxCell>
        <mxCell id="gk2ICgQUbsLSR0b4cpOf-24" style="edgeStyle=orthogonalEdgeStyle;rounded=0;orthogonalLoop=1;jettySize=auto;html=1;exitX=0.25;exitY=1;exitDx=0;exitDy=0;entryX=1;entryY=0.25;entryDx=0;entryDy=0;" edge="1" parent="1" source="gk2ICgQUbsLSR0b4cpOf-7" target="gk2ICgQUbsLSR0b4cpOf-20">
          <mxGeometry relative="1" as="geometry" />
        </mxCell>
        <mxCell id="gk2ICgQUbsLSR0b4cpOf-7" value="Motor(y)+1 degree" style="rounded=0;whiteSpace=wrap;html=1;fillColor=#ffe6cc;strokeColor=#d79b00;" vertex="1" parent="1">
          <mxGeometry x="840" y="430" width="100" height="40" as="geometry" />
        </mxCell>
        <mxCell id="gk2ICgQUbsLSR0b4cpOf-20" value="" style="shape=image;html=1;verticalLabelPosition=bottom;verticalAlign=top;imageAspect=1;aspect=fixed;image=data:image/png,iVBORw0KGgoAAAANSUhEUgAAAdoAAAChCAIAAADvFOlOAAAACXBIWXMAAA7EAAAOxAGVKw4bAAAAEXRFWHRTb2Z0d2FyZQBTbmlwYXN0ZV0Xzt0AACAASURBVHic7Z1dbBzXlaDPreo/svnTZJP0SrYTU5HXtOXsxpId7E5kJ4idZIB9iWzP7sss9mEywmSAAA4QrIPJzDytMw4QwFjsw9hSslhgXrIbOfa+7EzWf7GlwYxlm5qdKCLlSKT8E9EWu9ndpMiu7uqquw+3+9ap6nu7bksiuySe78G4Lp176t57ug6776l7Djt06BAQBEEQg8Ya9AAIgiAIAHLHBEEQCYHcMUEQRCIgd0wQBJEIyB0TBEEkAnLHBEEQiYDcMUEQRCIgd0wQBJEIyB0TBEEkAnLHBEEQiYDcMUEQRCIgd0wQBJEIyB0TBEEkAnLHBEEQiYDcMUEQRCIgd0wQBJEIyB0TBEEkAnLHBEEQiYDcMUEQRCIgd0wQBJEIyB0TBEEkAnLHBEEQiYDcMUEQRCIgd0wQBJEIyB0TBEEkAnLHBEEQiYDcMUEQRCIgd0wQBJEIUtfQh43M2SOfsdKjwNgNHxBBEMStBufc23LXl9jmBc49nVT/7nj03tG7/l1meOq6BkcQBLHr+PLahf/Ny/+g++c+NyvShaE9h8kXEwRBXAND01+ATFH3r326Y5bJT3zO2fhU9++us75Z/Wiz+lEPGYIgiF2F9IdD45/l1pBOrL/NCu7VXWc9N3qbTiCdG0vnxkTbddabTg0AbDvTowtBEMTugVlar3stoTxDIq7Zc+tey7FTOXLNBEEQ3WyjO8aQayYIgujNDrljTMQ1A0DTqdGGBkEQu5wBuGOM8Mvd2835wp2DHBZBEMSOM2B3HIEigQRB7FqS5Y4x5JoJgthVJNcdY8g1EwRxy3NzuGMMuWaCIG5Jbj53jKH35wiCuGW4ud0xRuGavSZ9ayYI4mYhie6Ycw6ct/+HsaCtA8swxhgTrlnoadSrAOA66wxgePyObnldm6H0odz3lTL37psUzVKlvrq2pRwzs4LEIDo98XPU6enVQX0LrR4kMz05PDXRPlm/sLQWu0Rak5mZT6lnanJoemK4W7xUqcuxRZZdNx5sJtw3Vg+YmEw/x3jT98DEZBp5I9ObmEw3VBPTG8xLq6fPefX9UdTPES/RzpNEd+x7Ld9vpwS1LFu2GbM497uvh9p2yrbbk/J9z/dalp0DgKHRvO97rVbTbWx4zau+76dzY+nsaA+ddiot2tz3W61mt8xMceT7f3RQtE/OX37+Z2eUY05ZmbYezqUe3X0ZswA45xwAxCdMtlNWVi4R1qOTB2DKW6TSWfnZ9TxXKf+tJx6cm50Q7f/4/b9TLnUqlZEJr72WG2sa3ZTtVJoxG5tMtA9/YfbIY/tF+9T8yuGDe7rbL7164cT/Pd/WiUzPue+1XNE+sH9GmkmnJ2K+WNMbmk+aDJve0NzYHOlMDjogk0X6BvK64YVMj0xm8mRhGWz6G/u0xsjr24HJkOn7/Sjip3UgJNEdbyvp7Gh2qCAM4DY2Wo2rnPuWnc6NzAx6aARB7Gp2nTvGpLOjmdy4+DspvzWTayYIYiDsaneMiXxr9ppXLTtFkUCCIHYMdujQIXNpbo8W7v+OfIFhm/C8Fg4+xMZSsIxl2XIz3vc9ZV+dTqUe11lvNTfdZt1OZXMjM1hmuph//NH25ubJ+cvnLqzKvsFulGVZVntjlHMud8ci98LyuvnKXTYAkLtjvdYHQLlccpcN6wHGHnnwjqlCrvN/bKrQDnO98PN/Vi+RnUJ70IHJHnnozqlCDoABwOJyZW62ILqefO9jZbQT67nnrkJnz5ovLlWurG3K8XApb1m+Lzc92cOHbhfN85eqi8sVpEfcFxaXq1fKVxXjR3rKtcaRtin5+Us1qYf7vtI0huZDe9lcuTFqaD6lyaJ9QW1uremRyUyeLJ3JdvJp7WECpR7Dvsqn9cbibHwqv9iVfv08bF1SiiXy2zHnwQY8QHxwAMkAY3anxAnHejTyIZ1YD4BtWQCQzo2lMiOpVhMAGvUq9xottyE2NLjvy1gQB372/U9k30A/59jA+Lq8b+S6NraD3LGRvCaUZ/EUCkP7Uv7hg3tl+G5xuSLbL/yv/6dcOsuyZTyH+768172zk8pw2cLF0qelje7xMMuSobx7901886v7RPuZi6elG9XFZO7bP33k0c+J9suvL0k3Oj0xJK8fP3FWmkanZ6aYP/LoPjlmqQcvtXUN5lOZrJe8xnw2BG40MFm0b3woL2R6ZDKTJysiE5Qt3sGnVdeGztMaWV6dfA/zbZM7NiSR7jippLOjlhVsaLgNg9eVCIIgzCB3fI2ks6Pp7Ij8X+61tmq/A4Dh8dsHNyiCIG5iEumO8Xv4qC1+kSlkOj/0VGri5WP19JApVZz2RTuVL9wh2m5jo7FVZcAtOzM09i9M9OA5ci5/CDKAULsv+R7LpdRUqjilgiPnJds6c3RpaV8vVetyWXDbRE+p4gRLama+QD/WU3XwdRNzK/UY9u1hjn7l1eZTjSjSF8ubmN5IXvf0RRQl6Wll0Hff8JgHSRLd8RNfu3tudkIszcLSmmy/+Mpvz10oCZn79hWPPPY5AGCMvfTqxbO/vSKudy0ok/KPf20/AHDOT82vPHxor2iLTVLR6+R7l391+oNOv0DP9OTwt564T7RPnVl5+OBesWF36sxKueaIdrnq/MW3f0/qFMfAOOdXylf/2/94DYIkRx3DW9YPjn5RDHhxuXLPXQXRLlXqnMPURE787395/h91B75k60/+wxemJ4fE7Z554W0p/8TX/6VyGY+f+E2pGrg8Kf/Cz/9Zxjee/MacnFrkdrpnEjhybdW6NESpWofALgo9LKywXHOgs4Wqlrcs7rUHVq46Ur+cFL4vAJSrDWVfZll/fvTfQMdk8r6yY3temr7huFPo2e42WcQ36eRDfcNi/clH+8aZrJd8nB5TedUyap5WrbymDRo9vfpqzDdYkuiOpwpDMo60ulaXbY424IsTOXm9WMjK65yHjoHK61MTOeHyAKBUcWQbAKSecxfLQXADWWhqIhgP7hvRo7suK5s067X61RIAWHb6M5+dDeZYCc1xqjAk3HGp6uBQG14iFIiw5mYn2vKVkPzc7IRyGSN6pDyO7czNFoIpoGVknOEYSKAH9dWZT6eHo6cBm4nr5P2gXSwEH4OFpTU5nqmC5uOB+44P68yHF0jZF3zQrEn0lF3vuUTkOedKc2CkyaJ9sbx2eEiPgXxkqEo9+o+HFWs+3dOqlde08dPKQW0yY/MNkiS641uVdG6M2e1Ts25jY7CDIQgiaQz4r8GuJZ0dlW3eeSOVIIjdTBK/HeO3PkvV+qn5FdEuVx35VmC52pDXS5XgusWCPzCMMXm9hOWRThxrWlyuSvlIYidl38g4kZ7gOm6DeGGzPTZL6jn/4Qaz2u3f/HZlqpCbGOFuY7MO08yy27uD4c0KPM5TZy6LIxulah3LLy5XlEPCRPTLH324L7MsvKbBi5k4GGJZuC9eFrR0Dh621In3jksVR2lu3RgstIyLy1V0X0f58Qj1tSzNx0BjsvAY5HxDc7EsznmsyXrIK82BkSZT9UWhMNXwwnqsePmwubE81hMr38N86DKLNTdoZPDTyiBevof5YKAk0R3PzU7IswPf/dGb8izAk1+/R6b4+uHxd/76Z/OifWD/zN88+/ui/fLrSy+/vizajz+2X54pwPK63E4zxRGp59SZlZ+8eE60Fy6Wf31+pbvvTHFEhvhOzl/G+t94e1nqT6XbOaKmJ4Z+/L0vqeX/MZBHG4Kl557+8vRkHgBKVed7P/57uUT4xfXDD+yVe8e4/dSzb+D38OWQcFov7nvKcwR43zl0DCR8jAICPcFG5JvvfCjvpU2jhadgWfLhfvPdj2RfbG5dJjZ8XKVUrUtPOlXIBcdPlsryXgf2z/zZ0YdE+6XXLkoTzBTzzz39Fbm8p86sdC+1yekhk2MgveRNjoFIkxkeA8G3RuPRHgMJn/SJPQaCDy6amBvLgO4YiEa+x/EQkGdf4doPf9ExEKIXDH19wJWo7Oz44AZFEMS2QO74pgGXO9naWHWddQCw09menQiCuGkgd3xTks6OimAg/tlFEMRNTRLdMY6llGuNIBxXayjjPKWao47nGMSFmGVxv70LhmM7oXiOPoCA5XVBAzw1I3nOO2cm2OJyFZargA41dIYaBCvOX6qdv1QTMiuflrxmvdXcrGyKmI8qXhE6j2TJe4FBKE83NRwXminmi53McOWqI9u4AJIulIfjOYvL1WMnzgIAA1hcriwslXlbZwO3Hz64V8pLPaFQXrVx4O4ZOd9jJ86yzhyVkVUT0/eIU2HzAcLE3JG+6lAeNplOXheq0pisR2hLOWVdKM8wXCbbJqE8w3agB+L19DLfQEmiO8ahvBdfeV+G8qbGs/L6W+99/Mnqeud6ELcJxXMmckp5XW4nH2VoA4biOZogQySj26/evqTQzyxAsQEjeRSfmZstiHpupaojQ5QQlsfHQJ56dlH2dRu1VnPTazXsVHZ4bE9sRjejUJ5BRrcjj+5Xht1+eOx0kNFNE8rD8ZzfXFjFsaPAfOGMbmrTo1AeXvbjJ87Kg5dYD+c+lo81vTYWFCmYFBvKMyvOpM7oZlicCd/aJKObSfRSF8ozWCKjjG4GWdmMQnn9RmLDT+vOk0R3TNwQ0tnRVCYv2m5j3fd9sd08NrVvoOMiCEINueNdQTo75vuePHsiX9LI5qkMFUEkBXLHuxH5kkbLbbiNDddZZ4xZdiabnxr00Ahi99K3O97uykwQOYmnCeWVKvXQybS4UF5EXrmpj0N5+CAA6I9UBfLzK+i4V7D/pDvd10Oe+755KI9Z1uJyBZYB2nnU1KG5UEgqHMrLDhWyQwUh7zo119kAgLOLH+PEmLFRShwX0h9cVJ+OY5p4TiR2JK/PFPOHD+4FYOJe3/3Rm+L6Wq2JV1uO4eT85RdfeV+08ccpFFOy7H5NjyLAWvMp9fSS7yeU130vZWhOa3pNKM8kehmampm8etn1pu8rrBc5u2HSV2c+2B4MS24m8dvxVGHIJJQn40I4pNYjlKeOI6FN/UgoL7ZCzzUUZzKR7y+UxzkO5Z345aIytmNSnAmA2em8nc4DwP1zd8hQ3n/9769khovd09eF8rD58JTfevej2OJMOJ6jq+5TLORk4aWXXr0QFHCyUzIuhO+7sFRWF2dCc/F9D4+ZijMppkzFmbafJLpjIlHkRmYa9arn1r1WI50Zlq6ZIIgbC7ljIh556sSybOmas7nRSK0TgiCuB3LHRH9I15xKZcSbc02nxjmjMCBBXCdJdMdi/1dscjHGZKinVHXEph5r075erjlysw9X6PnFqxdO/PK8aB/YP/2Xf/oliCvO9IdP/62QZ5Zly40/dC9mWbIeTrnWwPJSPy7OVKo4P/nFOTk2LC+KOfUuzvTdH70pKyTJzHCAwl+i+3StXZxJHA2QtwA/6IAjZmE9bfknvzE3N9uuiLG4XBXFKQDgia/fc+++CdE+9vNfXylvyu4irpvOjXlei/u+eEnjuZ/8n+dH98oxPP8//ykYghwDXtLwqTx5/csP3fnIg3d0m+kXr17Ey4iXQuo5+d7v5HGP26ZG/vJPvyTraQW1tcIfg75Mr1vbThGmaHUm7dzD8owxtflCqtomi/ZF8kamN5GPDlUV6TKR1y0jU5u+x7Ir26GoMhj11ZtvkCTRHePqPqECS6jiTqhQ03hwHQdhblRxJl2FHtyeLgwp9S+CejzTuILR9hRnCsVqdBV6QsWcCriAk3I6eAohPb7PuZ/K5FOZvIjDCNdsMQZWKjci3m7WVOtBxZki5sZjkGObQsWWcJWdUKUfCH08lHPB7dVKvS/TU3Em5RJRcabrJInumLgFEHsa2DUzxljgmgmCiELumNh2hGsWbz61vzVbFjCbXDNBYJLojvG7w6G941pDXi9XHbzTFOwdozLA4X3nBtpfrmN5uZ9QCuvEQ1LuaoV35ZhSf6TSj1q+4iD56lTBmarm0HgUmxV4d2xxudKWr3TLK4ca0dOWDy1FaFnU5oDwxp/6XuFNQPAhkxvP5MYt2/Y9z21seG4duJtKD4v35HXmXlyuiA0ZNM3ofZlmAzH08cCmD30M6n2ZvsfGKHDe22Rx8irzRfVwTd+Y4YX1sHj5LvMplshAPrLPq9yrZeG+Svke7UAPxMv3Mt9AYYcOHTKX5vbo9IM/2L7RCLyWa1IeRv3SuJ2ScRjPa/mdqqA6+R467VT73Xvu+61W89r04OJMnPOW24iV150LSKFM827TiZUHzTEQXJyp5Tb6O0eA9aQy8uPbcpux8jqddiptWbbrrHtu3W1syr1mkzGEZJDpfd/zWm7vvj3GFmt6Q/NJk2HTG5obmyOdaf8pgpDJIn3jzRc2fbMvc2MZbPqdfFp7tKXJTExv8rRuH6VfPw9bl5T/lMRvx8QuRKTRSA+3fK/lNjYAoNW4yiza0CB2EeSOicQh3mvO5MbFVxi3seE1N33fGx6/fdBDI4hthNwxkXTS2dHsUEH8onQbG17zqu/7lp2mL87ELUYS3TFOUMKCHGXixcz2jpXFLKUMzhFlMUvmcNHJY52R68GAGJMV0SMyViiGEKcHQpXVe8hrNhMVenrLK5crokcpb7LUWKFl27HyWp3oGAg2mVI+OzzB8pNizK6z3mqsc84tO5MbvS2cHsyKNVkP8wFWpNIDxuZDS6QeDxiYL6InVl631GE9dl/mxjIh0+/s06prSz0mpgezp3XnSaI7ZpZlG7yPHSsT0WOiU62HMdu+AQt1o/QAwDXoUU7fMH9V7NJF9Fyz+XqYvvu6nZ+E/KRou86649QAwLYzudHbkmayG2j6a0g51q/p+3pSbtWndSD0PW7XWRdHYzerH+ULd27DkAiib2RCfZC1Trhvp3KGeWYJIgkk8c+ISIAg2iLHdrvdyaIQuS5eYpVt+Wff9z15XSff47r8G8s5D16dCd/rB0e/KIa0uFyR+TEiY5av4ABAy20qZMLy0PkFGpkyfgUn0KOX193CTqXljzKv5Ur5SM4KmacCt3HOCttOBW876UxmYD6sB5tMl7Pi5HuXDx/cI9pvvfe7N09/KM0hTJ/OjaUyI57XAoD61fL0ROY7/+krsTkrsPliTW9oPrXJzMyNxbAeabJoX92QdKY3MZnGfEam34anVdcOmcz3PfnCnF5eN2b8tO48SXTHO3kKPpT0QHMKXpe4oDg+rEt6oDwFH0r4YJb0ACcxCK9Qf0kPdiZnRfe9jMzXZ86K1bUgxce5C6XeOStSmfzePTNSzyeflihnRWc6lLNCMWbFBHeQAd+eIHaSVGZEtn2vOcCREEQ3ifx2TBDbj2UHOwDca23VfgcA6dxYdqig70QQ20gS3XGkAKKylqVORlcMsV+dkdPruqKKuEanrmCiTo/uvpzz9oH9dj3KoN2tp7e8erkQzLKl/OJyRWb8KFXrso3TbrDw0iE9VqxptFMO5ztWVqoNl0DFpVGratND6L5BBVtNWdXzH26MTHxGtFvNq87VqwBg25lsfjq2Lmdv80m0JVANzIeRJlP1Dd5BNDC9unSpifkipt/JpzX2KYuYvl/zwUBJojvmvh9/0jxcQzO+GKJGXqsTANCbQMq+kdKlv3r7UreeSDHE2Pv2qmWpqoNpWPsyNDWk57n//IgsjfrUX72hS2LwxtvtqqlPfmNOlg199qfz0qPhjchv//t/LZfl1PyKbP/w2OnfXFhVTNmy5MP9+GP7v/nVfaL9zLHTwZKiMWAT3Ld/+m+e/X3Rfvn1JVnd9eFDt3/riftE+/iJs3/9s/nuvljnTDEv9ZyaX5EVAxr1qnO1DACWnR4e29O3+VQmMzW3rnSp7/G+SpdqTK8tXWrypISr1u7Y09qjpKl8WjnEl0DtYT4qXUoQCSWTHbPsdvoet7He2KoCgGWnh0apSCBx4yF3TBBGpLNjdjov2m5jo9Xc9FoNO5UdHtsz2IERtwzkjgmib9LZ0VQmcM1u46rvufStmbhOkuiOZ4r5YqH9C7FcdWS7VKmvrm0pZeTZBF1wQKcz0pZ6Qpv6jB24e6ZbnrFQKE8tA+z8BzWpCQcZ7ts3pZTnshglsHMXS+09Ok1cCBgTZVK75acnhsS+cOQW73+wLvX84rWLQrxUcUxiO+VqEF4rVerBCqG+OEQWDsE56jgMCuWVKo7UX9bJo/ZaKNxXxfdC4buGTs+BzxXlGJQhPpNYkD00LlLQAYDb3ADOm/V1xmA4fGZVpwc4D0yM27pQnkyx0ENeF6rSRF97hLaUU9aF8gzDZbJtEsozbAd6IF5PjzAjDJQkuuMjj+5XxoKeOXb609KGaN8zO3H0yftF+/iJs5+sdlyMJjgwNzvxxx15rFMc9xLtl167eOKXi6KNgwP37pv8/h8d7O6L21MTQfnUiP5nfzovpybHM1PM/9kfP9SWP7Ny+IFAHpcufeqvXo8J5THr6JOfl6VLn3o2kD/6B59XDul7P/57WW/7rXc+7CsWVCxkg+mfWZF6cFxobnZCygCAbL/17kfSfLpQ3tRETsq/qZHH7cnxYDy4usdUIdCzsFRW9p2ZGJImwB8DMbV2SxNf0q1PKj0CwMWeBvc9191qOjUAGB6/Q6en71BecHLH6juUx1MMheDi5XVT1oXyDJYIt41CeWZtdSjPZC4RcwwykpdId0wQtwYykwbnXBQJBIBUOpcZLg56aEQSIXdMEDuBqN8KAJZlN+pV4ZrtdDaXnx700IikQO6YIHYa6ZoZs5qNdbdeAwA7laGE+rucvkuXFu7/jsxkuE1886uzU4V2DOql1y74nXxLM5P5uX1ig48tLK2trnXCd5Z1+OBe0T5/qSY3EO+5S+TE4QCwuFS5guR9Vd6pcq3ROePAzl+qSj3F8Sze6MS5oB5/dL9oLy5X5BmHtVpzcjwjdcrAAuf8m1+dBWAAUK46OvnieLveZanqPP7Y3bJUsDzjAAAyzRizrKNPfr4jX+ecC/2MwVvvfqxMFVbZaHXraW8FovK9sv3IQ3dOFYbEME7NX5ZLt7bu4vRgUn56cljeCy91qeoo9Vt2sKFZHM+EzS2ilLxUdaYKOTG1xeXK3GxBTlN+VE6dWZEmO/zAHhQSuCAjtDPF/OGDt4u5lKuN4FiKZR3pmBLrwRujujRgobMP6DqgxLucc2Vdzoi869Q81/FajVQ6lx2ZkUuE04xh0+O+4jbdy4vbIT3IZDr56C1UJsN6dPI6nZZl42R+yr4m2eZ0egz7YnPswDGQm6x06VRhSMZhXnzl/Svlq6L9yKHb5ZGwhaWyvH5g/4y8/vLrS/JZunffhDzi9cOld6S87uzQTHFE6sHPZKlSV5YTnimO4FN5+NiYvBdjgYGnJ4ak/pPzl3Xyq2ubMj7z8ME98tQcdsf4HNHc7IQM5QGAbJ/45fnYcsI4o5suFnTv7CQKx30sh5pKZUAVF1pd2+qvfK9lMdZeoitrW9JtPXLo9iOPts2ni6DiEBwO5QEKIS4slWWktziekzpfeu2inMtMMY/Dj1iP7jQdTm/W16m8HvKpzIgIAzLGmvVaq7kp3p8bnfyM7BuYzPBUHj6ZZhLKMznJhkJ5RtFOjU5tKE9/+k6tB8BG70fEh/L05qNTeQRBRAm92uysA4B4SSObpw2NWxZyxwSRdMT2oPhvy22IlzQYs4bH9w56aMSNJInuGKcTY4zJn1elqqO8Dp3f6VE9FSQPIXldW6nHUF4pE0kbbyLPufwhyEpVR2ySlqp1pCYkL/8Jy5SqdfEDNuigfsUdawrkcVtnji4tqnuhtsl4dObGY4DwMqpNj/qCmcn6Nb2J+WL1dMsrzREZUSY3lsmNMWZxzt3mhltfZwxsO5MdmUb645daaW4j80UU9WnuWNP3kI/XY/akmzytO08S3TEE3kTA8HUIVq19vVxzkEtCDxWDcs2RYaXgw2dZ3FMECsq1htRfDulhyr7lWkPqL3f8ZltedZ6qVHXkvHrIi0c0Mp2uD0rIj8h/feaFt3FFnPAw1M8AWp5gGE98/R5ZkOmZY6dx4SLdMxn0/drdspDSwtKa2NtljL34ym/PXSh1j4dFFbb/9613P37znY/kfeUYcJWdmWL+6B98Htp/lkL+VH4kmGX9xbd/T8zl5deWnnr2DakH/clplGsOAHDOQ3/5NKbvilmpzYcvmphbZ46IKiyfyY5lsmNiSM16Tb4/lx2ewp269YT0R+9l0gYDGUU7tIz6T7V22VVt0Ojp1VdjvsGSRHc8VRiS8ZlItR7l9eJ4cB0HYXB1H13JFlympTg+HFQAQieAb1RxJjz+K2tbJtV65u4qyFAeXiIsj0N5ODTXb3Gm8Mm6gpyavvoO0oP6YvPhQko6PbriTCbVfYpoSReW1uR48FLjIkzFQlapZ7owhIs24QW6iYozpTJ5sd3MmNV0ar1PnVBxJuWYFRPcQZLojgmCuE4ip048t+61Gtnc6NAYJTlKLuSOCeIWR7rmVDrrOuueW/daDgc7m5+K7UvsJEl0x7pqQLhaD073BYyp03pp0oOBpoSMhYstXUJpvW5ccSYTeVxx59SZFXHMIbJZERrDmcsdmToutgToR5xJcSYsjws19aiUg/SoM7rhYkgmGd2YxjQ9qvsYZHRDY6hoxhBOzoeX6BYrziTTaHhey3VqANDOPzd+h3KaVJxpJ0miO8YpwV585X35kvYUSt/11nsfB1ncOFen9ULpwbC87myCj4otAQtcJ9y44kwm8nhD8PAD+BjIUvd4GOeHH9iLjn4s9lWcKaj0w9if/8m/lfutf/j036rf4Q+35WOpy+iGj2yYZHTDZwF0abcO3D0jM7G99OqFoPCSnZKn4HBGt+Mnzv787xYU40c6OffxMZAgo1u/KcFuquJM4sjJUDrPmOX7nnh/zrKs3Oie7uWi4kw7QBLdMUEQO4/Y0xAurO2aGQMrRZk0dgxyxwRBROl2zYwxRq55myF3TBBEL4RrFj/whWu2U6lUKpcbvW3QKbtDPwAABThJREFUQ7vVSKI7xrEUnBFNF8or1RxlPGdhqXJl7SzryCuLJ0WKLR0/cRYAOEC52ggGpA8gHDvR1l+qqPVHijMdP3FWvDJa1svj4ky4eBJeIhysWFyuwDJA++wMqtyjCeXh92Hv2985xwUMh+9minllYSfcXqs1g1MqKJR3cv7ywlK5Pc1qY2GpLJZ0QRe91ITypieH5RjwZp8wk9B/HunEcaGFpTVhSgBY0NTNiiz7sRNnAYABlAxM3yNOFSmYJLk1ijNlhwrZoYLI6CZe0nCbW5bdTg1KxZmuk77d8XZn14SuUJ5Mu6UL5U2N55ShvHMXSzI92Fe++Nn+ijNZdpCNUBNkWC1vftoZw0wx/9zTX1Hql8WZViv1lStVhbxZcaZUOiuXCAcl8DEQo1AeSut19Mn7ZaiwVAmObOhqTeH2sz+dVxZnOndhta/Yji6U9/DBvUce6yS9RPc9fuLsr05/0K0Tx4VWK1ufrLb/Ch7YH4T+dHM5OX/5+Z+dkWOONX2v6j59hfJu5uJM4iWNdMv1fc+pV3zX4b7LrHTbNVNxpv5J4rdjgiBuLjLZMciOib++zcY6A9ZqXGWWTXvNfUHumCCIG4nIoZHJjYtvoG5jw2tu+r43PH77oIeWdMgdEwSxjaSzo9mhAk4VT+jouzjT9IM/2L7RCCbH0sVCTlRnOf9BDafvasdeOF+8VJU5mYLrAOVaY63Wrtzh+16oryh6xJjFrPaHgzGRt0Xcq1xryCo+lm0HRZV83+vsQetKvGD9a7XG5FhGtMtVZ229XU2Hcy4r6+C5lNeb7b6cl2sNOZdSpb66ttW+F2O4sk7LbcoxzM1OiPGXqg6Wh85GZGSoqXRG6rn7zhERvihV6jJuBp3hQif5XHE8K9p4au9/sC43Ir2Wq7wXzr6mWzrbTuHKOkqTtcNuXWZiqOgUNplCjwh2McZ9X7Txx6Bcda7Z9No5IpNh0/eQx8W0AJkPmwybHvfF8iFVGtOHTKaR1w3VTqUD03utvswd0a80mUnfG6UnMmbb3vZvqD2KMyXRHXstt6/qPqE2OprleS1lgTJDncGz5PvK4kxGlYeYJZ8BznnLbcTK62I7OJTnNp1Y+VAoT1OcqeU2+qvug/WkMtKNttxmrLxOp51Ky2cJm8xkDCEZZHrf9wL3pz9VqBtbrOkNzSdNhk1vaG5sjnSm/RcaQiYzC+VpTd/sy9xYBpt+J5/WHm1pMhPTmzyt20cPdzzgM9oEQRCEgNwxQRBEIiB3TBAEkQiSuHdMEARxq0J7xwRBEEmH3DFBEEQiIHdMEASRCMgdEwRBJAJyxwRBEImA3DFBEEQi6Nsdu856vBBBEATRJ/TtmCAIIhGQOyYIgkgE5I4JgiASQZ/umJH7JgiCuB647h/6dsfp3Nhm5YPrHQ9BEMTupLWl+5c+3bG3tb7yXn7is9c7IIIgiN3H1StneUv7clp/lUiY32hcfnXDSo/e9q+ue2AEQewunI1P+5LPjd62TSMZCPXqB41P32Z+QyfQX4LNNulxyBTBygKncoQEQRBxMIuxFN+8CF69h9Q11elza+DWrnFYBEEQuw9t/A5Bb0oQBEEkAnLHBEEQiYDcMUEQRCIgd0wQBJEIyB0TBEEkAnLHBEEQicACADZkD3oYBEEQux36dkwQBJEIyB0TBEEkAnLHBEEQiYDcMUEQRCIgd0wQBJEIyB0TBEEkAnLHBEEQiYDcMUEQRCIgd0wQBJEIyB0TBEEkAnLHBEEQiYDcMUEQRCIgd0wQBJEIyB0TBEEkgv8PihIZVyyzGHoAAAAASUVORK5CYII=;" vertex="1" parent="1">
          <mxGeometry x="619.5" y="520" width="180" height="61" as="geometry" />
        </mxCell>
        <mxCell id="gk2ICgQUbsLSR0b4cpOf-25" value="Display Output" style="text;html=1;strokeColor=none;fillColor=none;align=center;verticalAlign=middle;whiteSpace=wrap;rounded=0;" vertex="1" parent="1">
          <mxGeometry x="670" y="490" width="60" height="30" as="geometry" />
        </mxCell>
      </root>
    </mxGraphModel>
  </diagram>
  <diagram id="LG48JTSbWpguL4df_1HI" name="switch manual">
    <mxGraphModel dx="1420" dy="830" grid="1" gridSize="10" guides="1" tooltips="1" connect="1" arrows="1" fold="1" page="1" pageScale="1" pageWidth="1169" pageHeight="827" math="0" shadow="0">
      <root>
        <mxCell id="0" />
        <mxCell id="1" parent="0" />
        <mxCell id="qvL6NGc2K4KBVcJkoJch-1" value="&lt;h1 style=&quot;text-align: justify;&quot;&gt;Switch_value_manual.ino&lt;/h1&gt;&lt;p style=&quot;&quot; class=&quot;MsoListParagraph&quot;&gt;&lt;/p&gt;&lt;div style=&quot;text-align: justify;&quot;&gt;&lt;span style=&quot;background-color: initial;&quot;&gt;This function allows user to adjust the motor degree&lt;/span&gt;&lt;/div&gt;&lt;span lang=&quot;EN-GB&quot;&gt;&lt;div style=&quot;text-align: justify;&quot;&gt;&lt;span style=&quot;background-color: initial;&quot;&gt;manual by pressing four buttons.&amp;nbsp;&lt;/span&gt;&lt;/div&gt;&lt;/span&gt;&lt;p&gt;&lt;/p&gt;&lt;p class=&quot;MsoListParagraph&quot;&gt;&lt;span lang=&quot;EN-GB&quot;&gt;&lt;/span&gt;&lt;/p&gt;" style="text;html=1;strokeColor=none;fillColor=none;spacing=5;spacingTop=-20;whiteSpace=wrap;overflow=hidden;rounded=1;fontColor=#393C56;" vertex="1" parent="1">
          <mxGeometry x="430" y="10" width="310" height="150" as="geometry" />
        </mxCell>
        <mxCell id="qvL6NGc2K4KBVcJkoJch-2" value="" style="shape=image;html=1;verticalLabelPosition=bottom;verticalAlign=top;imageAspect=1;aspect=fixed;image=data:image/png,iVBORw0KGgoAAAANSUhEUgAAAQAAAAEACAYAAABccqhmAAAABHNCSVQICAgIfAhkiAAAAAlwSFlzAABJ0gAASdIBqEWK+AAAABl0RVh0U29mdHdhcmUAd3d3Lmlua3NjYXBlLm9yZ5vuPBoAACAASURBVHic7J13nBTXle9/91bo7onAwMwAA0OURJCQNGQJCQuEEMqyLDmu7fXa6/h2vev31l6H57XW4X3W3l3b+/GuZcmybNmyZBCyAgIFLJBQAIEAiSRynIEhTehU4d73R1f13K6pztXTPVBfPv2hu6a7+nbVPeeec+655xJcmFAAdOrUqTQcDlPTNIlpmoQxRgDA+b/PxQ2llDv/lySJS5LEq6ur2c6dOxkA+3FBcSEIAGlra5NPnz4txWIxyTAMWu4G+Vy4yLLMgsGgOXz4cHPz5s0GAF7uNhXDYFQABIDU2toqeyHwnPPBeA18PIIQUpQA2wrh8OHDBgATg0whDKbOL7e2tsqRSETOxXSvr6+nhmFQwzAo55wwxijnnNgCHwqFBtNv9ykx0WiUAwmFQAjhlFJGCOGyLDNZlllXV1dW859SyquqqgxLGRglb7QHVLoQ0EmTJildXV1KJqHnnJOamhpJ13XJNE0pGAz6boCP58RiMSZJkqkoitnb22tmsh4opby+vl7ft2+fjgqOHVSqAqAtLS2BaDQqp3tDfX09jcVismEYcjECL1oFPhcX9mhf6OdjsRiTZdkIBoNGJgshFAoZx44di6MCFUGldXyppaVFTSf4nHMSDAaVXIXeNvsZY9R6TgOBAPGF3seJrQzi8TgnhDBKKbPdAEppVsG1lUEsFtPTKRVLEWhIxAoqgkoRgowjfnV1tRyPx5VAICBlOgljjJqmKTHGJEVRJF/IfbyAEMJ1XTcppaYkSWY2hRCPx81AIKCHw2HXOEAlWQTlFhAyadIk9dy5c6rbH6urq+VYLKZmGu0Nw5BN05QLEXjh/cTx2ucCRhihueN1zp/Xdd2UJMmQZTltsC8Wi7FgMKilUwRDhw7V9u3bp6GMMwfl7PDyiBEjgm7BvVAopMTjcTVdpN40TckwDFlRFDmb0Frmvj0DQBVFST736of4DH4IIcwSbGY/t//P8jmu67ohy7IhSZKraR+NRnkgENCi0aju/BullHd2dsZQplmDcigA0tLSEnQz96urq+VoNBpwE3zOOdF1XVEURWaMpRVey+eXOOdUlmXJF3SfYiCEMMMwTCsukC3yz3RdNxRFcY0DRKNRHgqF4m4WgeUWxDDA1sBAKwBpxIgRIeeozzknqqoGVFXtpxRswZdlWUk32nPOKWNMkiRJzkfg1Uun1dFxLQ20dkg1qa6qpoGqGhKQq4mshkB8d+CCghPODS3K40bYjMXCiPT2sp7zYXbo2Bltz47uXE9DCGGmaRqWMnD14Qkh3DAMPZ0i0DTN0DQt7vybZQ1EMYBBwgHr5FOnTlVPnjwZcB4PBAKqLMv9YgCcc6JpmprOzLdHekmSlGxCr0y/cmhw/jVXS8OGTKRVNeNoIDBWUuTRRJKGFPerfC4EuGmeN3XjOIvHj7BI7yHz7Pn9sdc3bNHf23ou0+csZaCnswxs90BVVc3t74ZhaPF4XHMeb2pqiu/cubPf8VIwEAqAjBw5MqRpWkoEv76+nvb29gbdAny6riuSJKlpBJ+apqlIkpQ2R0CaNKm2avGSuUpT82yppvYqSVXH88QCIR+fnCAAMzXtoNnb845+smNj5KUX3jT37etJ937TNA1JknQ3q4AQwk3T1BRF6RcDiMVirKamJubMI1BV1Wxvb4+ixC5BqRUAbWpqCjnz9aurq2UAQeebTdOUKKUBNx+fMSYxxuR0gi+3tlbV3HnPMmlU8zIpWDWD+ALv4yEcYGYsss080bGq96nlq4zDhyNu77PcA4NS2s+Mp5Qyxlg8TbAw5owNyLLMTp48GUUJpwtLqQDoiBEjqpz+vqqqAUVRFPGYbe7LsqzAAeecUkpVxli/HABZlmn1pz9zrdI6/jZSU3MNAQl5/zN8fFLh4FHe27tBP3zwmfDDD71mGEY/AaWUmowxzc0iMAxDd3MLdF3XNU2LO87DOzs7IyiREiiVAugX7OOcE1mWQ06TP92ozzknlqnfTylItbVy7d98/i5l9OhPQJbHlOg3+PhkxzCO6seP/67nwf9Zafb09Ivum6apW66BM+Dnag3EYjFmGEZUfH8pg4OlUAByQ0NDykhcX19Pe3p6Qs7pPV3XFUppv8CgaZqyWwxAaW4Jhv7qEx9Rmpo+TCS5sQRt9/EpCG4ap/STJ/8Y/e3vHtM7jsXEv9kxAEmS+ikIxljcGRuIRqO8trY26owLnDlzJgqP8wW8VgBSQ0NDlXjATfgtkz8gy3KKP885J5Y1kGruKwqp/crf3SePHvO3lPqRe5/KhTHzvHH86C97fv7Tx6HrzlHfZIz1m/4zDMNQVTXleAYlEIGHloCXCqCfz19TUyNxzlOsAcYYJYQEnSZ/ulG/6oP3TgvMnP3PJBiY6mFbfXxKCo/Fd8bf3viDyIondojH01kDlFLGOY851xkQQqK9vb2m8D5PYwJeKYCchR9AyCnkhmGoTl8/OHlyjfqRT/ydPHTo3fAj+j6DE2acO/ek9tjvfhrbu7dX/INpmrosyylz/ZYFEB1IJeCFAiBNTU1V4lSfm/CbpikRQoKi8Kcz+avv/cgMddasH0JSRnrQPh+f8mLq7dqmTd8IP/HYNvGwm0tACOGc85gzOOhUAtYUYQRF5glkXF6bCyNHjqzSdT15nvr6ehoOh0OKoiQFPY3wU+tYShvq/vc/fUq6bOr9oLS+2Lb5+FQElNbS0WNuCcy4Qo+/vmGrfdiSAYlzLi46IoQQmTHG7CrFABCNRuW6ujozHo9zIFHResiQIVJvb2+/5KJ8KEoBTJo0KRAOh5Omu5W3XyUG/LIIf9JqUC+dVlf9d//4Y9LQcC9I8YrJx6eiIJBIbd3cwDXXT+cn2jeYZzrt+X5CCJE552YmJaAoCgmHwzJjzCAkIUqmadLRo0eTs2fPFhwULEbQJEJISjafLMtVoVAoKdRWwC/F52eMSZTSFIUQWrx4bOBD9/4ageD0Itrj41P5qMpY+corb6Tc3GAcONBlHU0KvFMJiIpBURTCGJM558lRPxaLSdFotOBqxIUqADJixIgqUYgVRQmKFXvcAn6W8AfEY8G77pqqXL/4l5DlpgLb4uMzuKC0jo6fdBOtrXrb2L270zpKKKVSNiUgyzIBQBljyVmEmpoaORKJFOQKFKQAWlpaQqLfX11dLUuSlFzRxzkn1shPhWPUOfJX/dWn5koz5/ycSJLv7/tcXFAaoi1jl8ojR+7Ut209Zh0llFLJ6Q5QSiUASdNfkiSqqirTdZ0BCXlraGig3d3deScJ5a0A2tralNOnTyeFvb6+njLGUiL+8Xg8ZDUaVgOpMw4Q+tznF9Ep039MCPXz930uTghR0di8RB4/7qCx+e2DyaOOUd9KnJMc5cfkqqoqww4KGoZBp06dytvb2/OaGsxXARDDMFLMesMwQpZZAgBwLuqxrIGUgF/wE5+cR6dO/zEhxLUWoI/PRQOBhGENH5Cam98ztm9LWgLW7IApjvqGYUCcHoxEIpIYD+ju7pbydQXyUgCTJk1KqdwbCARUsYqPtbAnJTDodAWCd90zlbTN+jlxvM/H56KFEAmNTQvlmto3jd07kzEBQogEIfffdg/smQFZlgmlFKZpmkBisB09ejTymRXIRwFQQvqW29bX11MIa/otqyAEIbnIMAyVEJJUEOoHFo+Vrv/AA6BSXR7f6+Nz4UOISkeNvoGY7C/mob7ZAdM0iVhbwJKnZDyAUiqJroA1K5DzpqU5K4CRI0eGTNNMjuSmaQZlWU6+1jQtKPr9dm6//Vq5/PIh0p0f/DWXJX8Vn4+PC5ySEBk/4XpyqmMVO3UqBiQEnDEmbk5CdF2nYjwgGo2mzArkkyCUa469JJb0qq6ulsUpP9M0JXFlH+ecisIPAPSej3wfsjwqx+/z8bk4keVR9J6PfF88ZC2So31vkWXTNJPyFwgEJKvKFgDAktWcBvec3iSO/lahjpRUX2eyjzXXn2yw8g//+zNk6LAP5vJdPj4XPYoyhl5+hcHeeP0d6wihlFI44gGEkOQoH41GJTFLcMiQITQXKyCXxUApa/ydVXw1TVPF0d40TVks8kHvu+8q6erZD4ixgEqGcYAPri3efXKEgIAOkmLvnHPD3LLxc+zxx20lAKuCUFIJmKapqaqaXFHorDKcS+2ArJejpaUlJEb+KaXVdq6/M9tPSAAiAEAnXlpHP/OZJ0gFZPlxDhicQWd9D4NxMG49AHDuC/7FACEEFAAlBJQQyJRAoTT5kAkFqQBFwQ3jJHvooXvZ/j3dQHKlYLJcmHP5cDQa5YyxsP15a7ORaKbvyOYCSIqiJEfzUCikiNN+mqapjsCfak1dAADoF778dRKqmpnbz/UWDo6YydCrG+jSNJyNx9Gj64gYBmKmCZ0xmJbw+2J/8cEBMM5hcg6dMcRMExHDQI+uo0vTrD6S6BkSISjLJlqU1mDS5KH81XXrrCPENE0IswLEMAzIsmwCibUCsixzu0ipYRg02zqBjAqgtbU1IAb/GGNJ399O8BH+JommP7n7Q1fQiRP/CQN45QzO0WvoOK9pOBePI2wYiJsmTH9k98kTk3PETRNhw0CPpiNmmmDgkOjAuhEkGLiE19W/iV07TwLJXIDkegE7FmD7/rFYLCU5qLGxEV1dXWlThDMqAFVVk+m7LqN/QBz9xcAfl2VKP/zRn0KShxf0q/OAcY6IYeKcpuF8PKG5fYH38RqTc8RMEz26jpiZmJGTKAEpva9A0DhiGnt13ZOEJUwSSZIIhICgruskkxUQiUTS7jKUSQHIoVBITOkN2im/diUfWKO7VdEnGQikX/77j5EhQ28r5NfmisEZuuIJ0z7qC73PAGJyjqhpolfXYTAOmVLQUhq6ktxALpvai7fe2A4kptlFK0CSJAohOSgej1PbCuCck2g0ypCmfFhaBdDS0hKwy3zV19dTSmlSwHVdT8nwSxn9x0+uIdcv/HcQ9Cv37QU64zhvjfY6K9mGKT4+OaGzRJxJ55YiKJUeqK65nB849Cdy/qwG9LMCiLhOQJZlImYHNjQ0kHQrBdMpAKIoipirr4jmvuX7u47++OvPfBo1NdcU9CMzYDCO83ENXZoGwxd8nwrDYAxhw4DOGBQqgXrtGhASwNgxGnnj9c2AuxUg5gVomsbtNQJWMNA1J8A1E7CtrS1lzl7X9aQrYBhGym69YjVfMnxkgA8bfh/niWk3rx7dmo7OaBQxc8B2TfbxKYiYaaIzGkW3pnsqA5wDfNjw+8jwkUnLWpQ9zjkxDCMpt6LMAv1lOnkO14OSlDT/a2pqJHF5r67rqpWVZGuhviSgz3z2w7S+flH+l82dmGnibDyOuC/4PoMMjTFEDQMSpZCpN1XtCaUhc1zrebrxzXeBhPwBSNYNME0T9hoBRVFIIBAwNU3jABCPx+HmBri2LB6PJxWDpmlijj9RFEWcFuwr+lFXJ5HGpo9zFP/P5Bzn4nGci8f94J7PoMXZj734RxqbPs7r6lxlUFEUSbTORdkVZVrETQFQcYMPcdGBi/mf/AJ2z703cElqLtbM0UyGM7GYb+77XDDETBNnYjFoJiveDZCkZnbPvTfY5xZl0OkGiLJryXQ/ee93YOrUqSknFHfzNU2zT+AZk1Jq/o1quZUjkXJU6CNsGDjrj/o+FyAm5zhrJacVKyd8VMut9nk551S0AkQZDQaDVBywRdm26acAuru7kyerqalJMRtUVRVLfvfNCkyZMoSHQvMKNWsY5+jSNPTqRe1x4ONT8fRaqcasGJcgFJpHpkxJbpIryqIoo0CqDIuybdNPAaTz/03TTPEvxPX/8RtuXMZBlEJMGlv4/UCfz8VC3DT7lEAhbgCIEr/hxmX2+Ry1OIho+meLAzgVAEnn/4vPreh/30Tn8MZbCrkQjHM/ocfnokRnDOfjCSVQEILMcc6J6I6nk1tLtlMSFJwKQKzjT8QtvkQzQ9zaW581t4mrytR8zRiDM5zXNN/f97loMXkiq9XgLH83QFWm6rPmJpfZizIpymooFCKO3bhTZD7lRVtbW/J1bW1tijIQp//EDT35lTPm5GvCmIyjW9ML134+PhcIjCdkwWQFuANXzphjn0eUSed0oCjLoowDDgXQ1dUlmhEpCkB8nyzLfdbA0IaZ+UQwGefo0X3h9/GxEWUiL1ka2pCstSHKJJAqs6IsizIOACnTArFYTDQjiJXwZ2/yaZ+YQvAjWHXVzERzcoADPbrum/0+Pg5MSwnUKkrOFTR4dV+xHUvgKSGEAQmZtSsFiXE9UcYBhwVgmqbo89Nsz815C1o4lUfmarL0GoYv/D4+aTA5R69h5O4CUHmkOW9Bi/35nGRWkHHAoQBETSF+SIwwQtBP+tSpV+f642Km6a/i8/HJgmGVJ8sVhwwmZVOUWYcySHXnxRfiH0UfQlVVyizhTTlxXe14noP5bzDuz/P7+ORI3DQhWcVKs8Hqasfbz0XZFBOCRFl2KoC0y5TEKUBHAlCfOREItmZP9AGiRt67Fvv4XNREDSNRoj7bjFog2Gp/RpTNlJ24BVl2ktYFEHHMAvRpE0Udly1SGbVyn318fHJHlJ2MMwGKOk74mOugLZLJAnD9sPN5cg+AUIhClloyJStozK/V5+NTKCZPyFAmGYMstfBQKLlrVybZFU7dt4tXnm3qW2s8a25Lpvx/xgHd9IN+Pj7FoJsssysAomiz5rYIH8mrFpmrAhgyZEhWU8IcMmRophNrpumb/j4+RcKRkKVMpJNFUXZFmRbJul+f04ywE4JYIFCVbgbA5Nw3/X18PMLkibUzUppCoywUrLafizKabvAWKXjDTh5Qq9PJuG/6+/h4i24yUMm9iDdXlCrXP+RAXgpA1C6mEqhyk39/rz0fH+/hSFgCbuXGTSWQVAC5jPoihVsAilTtJup+tp+PT2kwGIMi9Q/bcUWqdnl7ThSuAIgccroA1sSEj49PCbBX0xJHoJ8TOVToOYspWN7vsybzxd/Hp5SkkbGC5bhgCwCEE3G8T8xJ+vj4lJKkFZCS1pOf3y9SsAJgLCH0ydf+tJ+Pz4DAOE/ZjbiYsFsxFkCKyPvi7+MzMNjrAJKQwkffwhVAIu+44I/7+PgUTors5Tn1J1L4LADzR30fn3KRYn0X4QIUPgvA3ZcO+/j4DDBFyKI3+xb7+PgMSnwF4ONzEeMrAB+fi5giYgCFRx59fHw8pAhZLFwBkDSLk318fAaWImSx8DyAiwxKCEYEg2iuCqG5qgoNwQC6NR0dkQg6IlGcjEb9XY4HCIVSNIVCyXtRpyo4E4sn70VnLOZnpuZIwQqAFDP5WKFIhGBOUyM+MGokJtTVYmRVldXJQmgMhdJWZAES87Jn7U4YjaIjEk12yKO9Ybxw7DjOxeMD92MGMUMDASxpGY0xNdVJIW+uCqE5lHg+LBjIWPjO5BynkvcgivZIBAe6e/CXE+146+SpC65aVTGyeNFbAA3BAG4a04Jbxo7B0rEtGBYIFHQeYp2rIRjANPQv0WYwhg0dp/DM4SN49vAR7DnfVWTLLywuHVKPW1vH4rbWsbimuREyLdw7lQjByKoqjKzqXyjnbDyO1UeO4bkjR7Hm6DGciV3cSrmIVODBGwO4cngDlo1NCP2cpsaMI7tXyJTi+lHNuH5UM348bzb2dnXj2cNH8MzhI3i1/eRFV0hFphQLRjbhttaxuLV1LCbX1w3I9w4LBPDRyRPx0ckTYXKOt06ewnNHjmLVkWPYevrMgLTBc4qQxYvKArh93Fj86+yZuHxYxoLGA8Lk+jp89Yrp+OoV09GlaXj+yDE8uGsPXj5+otxNKymLRo/C30y5FDePbUG9qpa1LRIhmN/chPnNTfj+7Jl49+w5fGvj23j60JGytmsguSgUwNIxLfjerKsxq3FEuZviSr2q4sOTJuDDkybgxWPH8fU3N2HLYB2N0nD18Ab8aO4s3NgyutxNScvlw4biz0tvxKZTnfjOpi1YffRYuZtUci5oBXDD6FG4f9bVmN/cVO6m5MyNLaOx+J7ReGL/AXxr42bs6+oud5OKYlJ9Hf51dhvunTghvx0rysisxhF4/pab8HrHSXx70xasvYCtsgtSAVzb3IT7Z7dh4aiR5W5KQRAA902cgLvHj8ODu/bge5vfQUckWu5m5UVzVQjfabsKfzPlUihFBPTKyfzmJrx828145UQ7vr1xM17rOFnuJnnOBaUAahUFv7z+Gnxk0sRyN8UTFErxhWlT8FeXTsZ/bn8PP972Ls7HtXI3KyNDAiq+NuNy/P0V01EtXxjda+GokXj1zlvx2L79+Nt1G9Cj6+VukmcMTtXswqVD6vHW3bdfMMIvUi3L+ObVV2LPh+/BvKbGcjcnLfOaGrHnw/fgm1dfecEIv8hHJk3EW3ffjkuH1Je7KZ5xQSiAO8a1YuPdd2DK0CHlbkpJaQyF8Modt+AL06aUuyn9+MK0KXjljlvQGCq4QvWgYMrQIdh49x24Y1xruZviCYNaAVBCcP+sNqxcuhh1qlLu5gwIKqX4xYL5+M0HrkNIdt8qaiAJyRJ+84Hr8IsF86EOUl8/X+pUBSuXLsb9s9pcd+oZTAzaOzY0EMCzNy/Bt9quHDTRZS/55KWTseHO2zC+trZsbRhfW4sNd96GT146uWxtKBcEwLfarsSzNy/B0AKzRyuBQakAZjQMw6YP3o6bx7Zkf/MFzFXDG/D2PXdg6ZiBvw5Lx7Tg7XvuwFXDGwb8uyuJm8e2YNMHb8eMhmHlbkpBDDoFMLamBmtuXYqJdQOTOlrpDAsE8NyyJfjGVTMG7Du/cdUMPLdsScHrJi40JtbVYc2tSzG2pqbcTcmbQaUA6lQFzy5bgqYLPNCUL5QQ/GDOTPzr7LaSf9e/zm7DD+bMHPS+r9c0hUJ4dtmSQReLGjRzNRIheOLGG8qex38mGkN7by86I1EMCQbQXF2NxuqqAVlQlI1vXn0lenUDP3pnW0nO//WrZuCbV19ZknPni8k5ToUj6AiHcT4Wx4iqEEbW1KAhFCxbmy4fNhRP3HgDbln1wqBZcjxoFMB/LZiPmwbQ123vDeP5/QfwwoGDOHS+C+29PejoDUMzzX7vpYRgRFUVmmtq0FxTjZE1NRg3ZAiWTBiHOaNGDuho+cM5M9Gr6/iv93Z6et4vT5+KH86Z6ek5s8E4x1sn2vHCgUM4dP48OsJhtPf0oqO3F52RiGvRD1WSrHtQi3FD6rFkwnjcPHECRtYUvIN2Xtw0pgX/tWA+vrB+w4B8X7EMCgXwD1dMx+enXlbS72CcY+OJdqzatx/P7d2Pdzo6ct74hHGOk+EwTobD2CZki3533XqMqKrCskkTcevkiVgyYQLqAqVfAfeza+ehV9fxmz17PTnfpy6djJ9dO8+Tc2WjO67hhQMH8Oze/Vi1bz86I5G8Pq+ZJo50deNIVzfeOn4cj+/YCQLgquZm3DJ5IpZNmojZJVbKn596Gfae78K/b3+vZN/hFRWvAO4c34p/mze7ZOdnnOMP7+3Ev7z6GvadPef5+TsjETyy/V08sv1dKJTi+tax+MqsNtx+SemmzgiABxcuQMQw8MT+g0Wd696J4/HgwgUln2p9+v29+PmmzVh3+IjnpdU4gC0dHdjS0YH7X92AScOG4v8uuBYfnT61ZIrg3+bNxoGeHjx18HBJzu8VYiYJqaqqUgEgGAwSxpgCAJxzCiD5nBAiA0DkqrZZZl1dSaNOVzQMw6plN0GVvE944QD+tHM37n3yKTzwzlacjcY8/w4njHMcOH8ef9yxC2sPHcaU4cPRUleaeXxKCO4c34otp89gb4ErCm9pHYMnbryhqOo82Xjz+Al89Kmn8f9efxMHzp8fkFp+Z6MxrNzzPv60azdGVFVj6ojhnis4QghuHzcWzx4+ipPR0i7kkrq7N1dt3fw2AHDOTUqprUENSikHAEqpHo/HOQBEo9HkgpKKngX4xYL5qCpBTvkze/fhygd+jfuefAq7yrTu/tUjRzHv4d/ig8tX4v2zZ0vyHQqlWL5kEWYXUAdhduMILF+yqGQr+d4/exYfXL4S8x7+LV49crQk35GNXafP4L4nn8KVD/waz+zd5/n5q2QZv1gw3/PzeknFKoB7JozHNR6v49cZw1fWvIjbH1+O7adO5fYhQgEqAZIMyErioaiAGkj8bx+T5MT7qJT4TI6m5ZO792Da/zyIL61+AeESrDILShKWL1mEhmDuc/YNwQCWL1mEYAksr7Cu40urX8C0/3kQT+7ek9uHCOm7D/ncC5Jb995+6hRuf3w5vrLmRc/dj2uam3DPhPGentNLKlIBqJTiR3O9jTh39IZxw+/+gP/atDnzGwlJdB5ZsTqWAsgyIEkApYmHLdyE9B2TpMT7ZDnxGUVNPCQ5a0c0GMMv3t6C2Q89gj1nvLcGxtRU4/eLFubk71JC8PtFCzGmBFHzPWfOYvZDj+AXb2/JXgOR0MS1s6+jfR/yuReKdQ9lxVIImX//f23ajBt+9wd09IY9+sUJfjR3ZsWuk6jIVn15+lRPM/1eP3YcVz/4MF7LVOJJ7GyynOhIxUJIojM6O2Iadp4+jVkP/QYrch0Z8+CmMS34TttVWd/37bYrSzLdumL3Hsx66DfYefp0+jc5Fa+UXWhzglJLIQhKOQ2vHT2Gqx98GK8fO17891pMrKvDl6dP9ex8XlJxCmBYIIBvtXmXbPLYjp1Y+Nvfo7231/0NkpTocF51tkyIHTGNIujRNNyzfCW+9tJazysFZxPuXJVEPhiM4WsvrcU9y1eiR0tTzIRK3ireTNhK2b7nLrT39mLhb3+Px3Z4l0vxrbYrKzJ1uuIUwLfbrvJsddX6I0fxqaefc/frqN0JyjATSoigCNxvwU/e3IhFjz6G8zHvZicymff5uAm5cj4Ww6JHH8NP3tyYpkG0T/DLkUkpyYk+4KKMdcbwqaefw3qPApRDAwF822Pl6gUVpQAm1dfhS9O9KXax9+w5kUNSawAAIABJREFU3PWnFf0z9wjp63S5QkifjylJgCxl9kfzOa8dyHKJE6w/chQ3P/YEetONnAXQEAzgT0sWpfikKqX4U56Bwmz0ahpufuwJdwEitC9oV8g1c4u7yFLfvbDvV67YytjxGc00cdefVmCvR/khX5o+BZMGaP+DXKkoBXD/rDZPpp3ORmO45Y9P9J/bt03NbJ1D9N0DAUBVE49kQNASfDHYpCiJ9wQCfZ/J1aQlxPJ5+yulN4+fwB1PrEDMMPK4ApmZ0zgCP5w7K/n6h3NnYY6HJdNjhoE7nliBN92q6UrW9cpFQG2XyXld7estC/dBEgKw9v0K5BFLsAcGhzWQti8VgEIp7p9V+gVb+VAxCiAoSbht3Niiz6MzhruXP9lfa9sjRTpss9zuPMX6o04louRwPskKgjn66tpDh3Hviqc8jQn8/eXTMLepEXObGvH3l0/z7LwGY7h3xVNYe8iRAUdgTdFlmVqkNHGt8hHebOdz3tdM53PpJ3vPnsPdy5/0ZIrwtnFjSzK9WigVowBubBntSSHJn27chHWHhZ1d0mj21L9bo0YpA4FUUAaZOiGlgNzfSnlm7z584s/PeJYpRwnBQwsX4KGFCzzz+xnn+MSfn+mfVENI4jelU4C28rWFPsNMSVEkA4BqZivExVJcd/gIfrpxU9FNqJblitocpWLWAtw1vvgii2eiUXz/tTdSD6bzM+1OV475WdtsNU3AzbS3lZZhAKwvhvHHHbtQqwbwwC1LPWnGVI+LqH5+1Rr8cceu1INUymx52WZ8Fq4fPQrzRjZnfM8b7R1Yl+smHpQmFAFjievsVKx2fEbvi798/7U38OkZV6ChyHoUd41vxTPiIFVGKkIBSITgdg+qrH5v/YbUqHk64Vfk4kYZO8jEOQCOnJcNOrEVgWEklIETWQYMpCiBX72zFZc3jsBXKsyX/PmmzfjVO1tTD2YSfimLYnBw87hW/NPMzFH0//f2O7krAJukIjAB3aGMbSVgJDI0z8di+N76DfjpTYvz+w4Ht49rhUReq4iaARXhAlw3qrnoCPTes+fw35u39B2QXEZ3QhI3OxfhJ7B8eNk9wJcMNgXSBArzcCdsH9XNGpH7K6t/fPFlvFVB21W9dfwE/vHFl1MPphN+W+ByFX7bbKc5XEtJcgQK7fuQw/dQyzVw3jNKU4Kz/715S9GzAg3BAK4bldmaGSgqQgHcNX5c0ef4+tpX+oI0VOpvVtodL5NQEpKYTrIF2xa+XKb4+k0V5hlQTM4EuCgnhxLQGcOHVjyF0xWwXdjpSBQfWvFUaoAsnfDbQdFs19I1cJdHV01OFdr3wZ6VyaKUkwOE47skKXn9dcbw9bWv5N6WNHjR572gIhTAnUWa/+29vVhpp88S2r/z2dND6ZBoX2eTPE5K6TcboGRWBrKcGLncjgtCcLS7Gx//89MDsnw2HYxzfPzPT+Not7Dc2O36A4nflGnUpzT1GnkdkCXESvyx73OGe2BbcSLC9V+5e0/6zNIcKbbPe0XZFcDMEcOLXnjy1J69fW6488bZZqAbSXO0gISUQrE7erYotJu1oigpSmDN/oO4/9XylZ66/9UNWCMWHCG0v6LN5nbZlk82xegltm+fzu0C+tw/EatvcST6XDGMqanGzBHDizqHF5RdAVyXJbKbCyv3WKO/c8WXLLl3PFvwc01IKQXZ2mALjqsS6Dv2vVc34IUDxVX9KYQXDhzE90TlYwuySLrfIL4/kxCK8Bzm4HN5Tz5toFbWp/h+qz8l+1wReNH3i6XsCqClyNH/fCyGVw5ZUyriSC+lBm+S2O5ABVTxBZA9KOYmQHKfoDHO8elnnkNXPF7CRqbSFY/j0888l+p+yGmE341MQc9yYCsC17iFnOouWH3slUNHil6nUWzf94Ky34HR1cVdhGf37k8EoESfkRKXDon0QbZKQEpj9gP9FRZJ/X0nenrxf17+ywA0MsH/efkvONEj+MBOF8rNGrCP2wlXlUgySOk4Lit9sxBWTEdnDM/u3V/U1xXb972g7HkAo6qrivr86v0HEk/s0d5OORWxFUKaUf9jkyfi+7MHtuT1omeex/5uR60+W0B0PZGgIh5XlMRxe9S1o9xWjsCvtmzFR6ZNxcLW4tOpM/HK4SP41RZhvt+eJXG21W06LU0gdurQIfjFgmsyfu+Euuy77nz0kkmY25zZrP7iqxuw89z59G+wVygaOsAcFo6uJQIAkgyYJlbvP4CPF5FGXWzf94LyK4Cq4i7C0e7u1CkiZxQ/Q8ezqVUUtNYO7LZOGRc9KUr/LMGkEtD6Eo9kGdA5wBk4gM899zy2f+4zCJagjiKQWOTzueee7wu4OiP+tpXVz2XJnO1Xp6q43oN58TE1NRiTZXuuunRuiYidiSkqYnsWwb4nhKbOfhRAsX3fC8ruAhSrBTt6w30jkD3lZkPTmKKDAdscFbE7pogsJ03WvWfP4bvrXytZk767/rW+JBgClxmXNEHLSjX5s6EIpj/gcDNp0aXDKsECKKsCGBYIFL0yqr23t08BpIxGLnGAwYab9eL0rwkBpL7XP3lzI7Z0dHjelHc6TqYW9pAcI73byD+QU3ulwuk62n2M0qJzAYKSVPYqQWW9O8VqwIiuo0c3UotE2FRSpL8Y3JSAnW0ovrZ+u8EY/ubZ5z1dOmwwhs88u6rvnM5rLUn9Bf1CEH6gv8IVir/06AYiRVZyLrcVUNY71FxV3KqqFPNfHP3zFf5yZNPl851uSkCWHeZpnyvwTsdJrNpXXIRaZNW+/Xinw9rzjCB1epUSF1cgT+EfyOtfyHc5lYBgBRTrBhQrA8VSVgUg5ZPf7YLJeV8Ovi3wbqPRhYCrEhCmrARX4MqmJiybNNGzr142aSKubLL2aBBNf7cZl0JG/kpXAECq1SX0uWJX9BUrA8VS1m/vyHPjRyfNNdV95r9NiSLgFYG9SMbGGeegFBKV8OCtN3u6nZdMKR689WZIzik/N//4QlS+NuK1t9yA5iKTeYqVgWIp6906UeSPr1VVVItR5gtZ+G3sGgI2lKakq3513hy0lSDFtG1kM746b07fAVnqHwcYrNH+fLD7mCShWlFQm8u0YgaKlYFiKavEnI5EoZlmUZt/NtfWYH8k2n8KMA/Wn2jHF9auK7gNhdARLeLGy3Ii791OVJFkwGSYUF+Hf7m2dHvR/cu18/Hk3n040NWdPQ6QB++dPYd5j6/I+J4vTp+CT0zLvLnG73bsxC/e25XxPe919+TdvhTsSk5I9L1i0EwzsaS7jMHqsioAzjnawxG0FrFDblIBFNEBd545i50nTxb8+YIIBIu78bIjKUhR8MubFqPKbSmxR1QpMn5502LcuPKZvoNucYA86dV1vNmeeeryzhwyHE/0hLOex5M1CLIM6HrRCqA9HAG341hlouw284ne3qIUQEtdHXCqs7ibyhigeb8xZ0bUQHE3PlmzLtHuT02bgsUlTgMGgMWtY/GpaVPwm527Ewe8WErNGJB174NcpjVzOI8XcQpKAWL1vSI4UWQegReUPWJzvKe4i7CkdUzpqshWOpb/31gVwk+y5NJ7yU8WXIPGqlD/OMDFBJUSfa8Iiu37XlDeu0cITvQU55PdPmECpIsh+JQOScbPFl6HYR7u6pONYcEAfrbwuvJsq1YhSJKE2ydMKOocJ3p6yp6sVnb1fazIoMzwUBDXtYwqrhGEJAJZA/nwiFtbx+K+yd7N+efKfZMn4lavXA47gJvpkVNlzxzO45HAXdcyCsNDwaLOUWzf94Iyq3CONzyobnv3+HH4y/H2wk9gLwEdSDzoiLWKgl8sKF3UPxu/WDAf6060o6fIdNjkHg2Z35TLibKfxyMFcPf4cUWfI9H3OXL7baWhvBYAB14/dhwnw8WlU945vrW4S8jMRPBoIB8eZL/9ZP6couspFsOYmmr8ZP6c7G/MBueJYGamR06bL+RwHg+uO0GizxXDyXAYrx87XvieEh5RdheAcY6n3y+uwGJLdTWWjk2/731WOBIdYyAfRfLxSybhs1MuLfo8xfLZKZfi45dMKu4knCdmAjI9crlmXp0nC0vHtqClyGo+T7+/t6wVnW3K6wIQAhBg5e738dmrrizqVD+aMwtrjh6viItaaqYNG4pfXjdwUf9s/PK6a/DO6TPY4dE22m58/S/r8fVsZc+ybUPmAZQQ/GjOrOxvzMLK3e8nTImLPQgIDrx86DB6ss4DZ+aKhmH45KWTPWpU5VKjKFi+5AZUVVDac5UsY/mSG1BTaPEVayDI+Mj5XNkexQncJy+djCsahhV1jh5Nw8uHDpfd/AcqQQFQCs00PVm+ev+sNoTkAqYE7S2lBvJRYEd8cOG1uGyIN5t6vn/2LN4/e9aTc102ZAgeXHhtYR8mxNq9J8Mjl6leScp+niIUQEiWcL8HezKu2rcfmmlWRA5FmYOAPHljV+5+v+jTja6uwlevmF70eSqVL0+fivsmFjf3bMMBfPbZ5/HZZ5/3bCC6b+IEfHl65nz9wcxXr5iO0R4U8Ej2dUkqTy0KgfKrIEIAQvu0YpF846oZmD5sqAcNqywWt4zyJuJu8cCWrVh/5CjWHzmKB7Zszf6BHPnJ/DlYXGxeRgUyfdhQfOOqGUWfJ2ntkhz2mxwAyp4JmGgFRY+mYY0HO9zUKAqeW7ak7JVWvOSa5ib8eemNUD0yGU/09OKfhIDaPznr/BeBSin+vPRGXNPc5Mn5kkhSYt1BpkeJMkKbq0J4btmSwmMcAmsOHEzEu8RCtmWkMiwA62J8+5X1nkTxx9bU4Jmbl1RUoKxQ2kYMx6plN3n6W760+oWUnYS64nF8afULnp2/SpaxatlNaPNy7zux7mO6RwmEqUqW8czNSzA2S7nxXGCc49uvrE+8KFF786X8FoDw2HbyFB7Z/q4np545Yjh+v2ghaC4X2a60M5CPHNo1fdhQrLllKepU76obP75zF57a0z/e8tSe9/H4zsxr6fOhTlWw5palublj4oap6R6ZdvO1kXI4Tx5WFCUEv1+00LNNPB/Z/i62nTzVr9+Xk/JbALbZZq3o+9Yr64uutGpz5/hW/Oc1c7PPIuWSi+71IwuT6+vw4q03o8HDRT77zp7D555b3XdAklMW9HzuudXY5+FcfkMwgBdvvRmT63NYNpttdM81FTjreXKDAPjPa+YWnfFnE9F1fCs5+lv3vwIWsZVfAdha0Lo5J3p68WOx/nyRfGX6VDy19EZPR9FSs2TMaLxx1+2exjGihoF7VqxEt236i0rPGoW643Hcs2IlouKOREXSXBXCG3fdjiVjRnt2zlJTpyp4aumN+IqHMxo/fnNjX5zFNv8vehcA6BN+4YL82xtvFV1uWeT2cWOx8e47MGWoN/PnpYIA+OerZ+D5ZTd5OvIDwJdXv5AwP23EKj7C820nT+HLHsYDgIQl8Pyym/DPV88ofM0GzWF092CV5ZShQ7Dx7jtw+zjviqt09Ibxb2+8lXghDni+AkBqLT/LNOrVNHxn3auefs2lQ+rx1t234y6PTDqvqVMVrFy6GN+fPTO3uEUe/Gbbu/j11u19B6hjWayw7z0A/HrrdvxmmzexmORXEoLvz56JlUsXF2aNUSkH/744k/qu8a146+7bcemQ+qLO4+Q7615Fr53pKpr/vgJAajBEuCi/3roN73V2evpVtYqCFTctxk+vmYsRRa7l9pIZDcOw6YN34I5x3iund0914ovPr+k7kG7prSMw+cXn1+DdU95efwC4Y1wrNn3wDswoMp3WS0aEgvjpNXOx4qbFqPV4L8n3Ojvx663bEi/EPu67ABZCLgCAZFDK5BxfWLXG0y2ugISZ/b8un4aDH7sPP5wzs6x7s11SX4/fL1qILffciUvqvR11gETO+T3LHT69Yx+BfnX+LaKGgXuWryx6jYYbl9TXY8s9d+L3ixaW5HfnyrBAAD+cMxMHP3Yf/tfl0zxflW8whi+sWtO3eYgdcK2QHAAAEG0mUlVVpQJAMBgkjDEFADjnFEDyOSFEBoDIVW2zzLq64hOjCUnucQ/GrNccAMeR7m6cjkRwy+Qil5u6oFKKa0c244vTpyAkS3jnzBnEPMhEzIWJdXX4j/lz8Mvrr8WMhmEgJegIjHN87Kln8NrRY30HJUdBTHtazP7dxFoxwxNK90w0ij1nzuJDUy7zvI2EEFzeMAxfnD4FE+pq8e7Zczgn5Cb0/0E5LOXNMdI/JKDin6+egT/eeAMWjR7lWYKVky+vfgFP2mm/4lbq9rZuHm1eK3V3b67auvltAOCcm5RSe9Q0KKUcACilejwe5wAQjUaTWr38CgDoWxVld0RKk0rh7fYO1AcCmNdSmihyQJJw/aiR+OK0qZjRMAxVsowT4QgiHkbCgYSPf9OYFnzjqhl44PprcPWI4Z77+jYciSm9P7y3o++g2AGBvuq4tikqbvxpKWAA2HX6DI739OK2SyaXpG4NJQRXDm/AF6dNwcS6OjBwtEciiJsOy69IBTA8GMQHJ4zDN66agV8suAZLxoxGoITTcP/x1iZ8/7XX+w6I+1Xam9l4pHiKUQCVkSpnj0L2pgt2UMpSAl97aS0mDB2COy4p3XLfOlXBhydNwIcnTQDjHBtPdWLVkWN44egxHO7tRWc0ltc+cAqlmNM4AjeOGY3Fo0dhduMIT7frysQ/vPAyHrL9TgCuO9yKnV+S+gpmAIn36n1Vix7aug21qor/WLKoZG2WKcUnL52MT146GQZj2HiqEy8dP4EXjx7HW6c6odsJVDkgEYIRoSBaa2qwZEwLlo1twezGESVTuE7+/P5efO2ltX0HxKBrMuBdfu8bqCQFACRusG0FSH0KgHGOj658Guv/6mMl2faqX3MIwdymRsxtasT3Zl2dbMOpaAwdkQg6olF0RKIgAKoVGTWKghpFQbUsJ/8fFgwgWIZEj/+77lX858ZNqQedpma6IKDo79sbj1j858ZNqAuo+JfrF3jYWndkSjG/uQnzm5vwnbarEDNNnI3FETYM9Op68v9eXUdYN8CRyDdoDoXQXFWFxlBwwITdyeb2Dnx05dOpKe1iP5AdcYAyUxkKALBMT5a4QIZhRUxlwEyY4hFdx22PL8dbf/1XGFPkhgwFNY+QRCer4EVGP3lzI7736obUg24beCZ397X+t3ensa+9/TdZAYy+rMzvvboBdYEA/nHu7BL+iv4EJQmjPFiGW2qOdnfjtseXp2aySsL1rjDhByphFsDGzvWWHOaSsH1ye28vbv3j8pJEpgc7v3pna6rZCSRMT7GzOU1/p1nt9Esp7Te3/rWX1uJX73i3fPhCoUfTcOsfl6Nd3O2HOLYUt5/nsq5hgKiglriYSUBq8ATA9lOncPvjy3E2GhvAxlU2j+3Yic+vWpN60Bn0c8YBbGF3KgXFzWJI7SafX7UGj+3Y6eEvGNycjcZw++PLsf2UkGnpvN4pW4uXfw2ATeUoAKBv9HGmdTrM2FcOH0HbQw9j60Bv6FlhMM7xzb+sw8ecPiehqZ0PSH1N0H9GgKR5r/1aUAKMc3xs5dP45l/WXRRFWDOx9eRJtD30MF45fKTvIHFM8dlpzEBFmf9ApSkAZ6e0cV5QAIfOd2H+w7/Do+/uwMXI6UgUSx97HD/Y8EZqSS/nyAP0X37sNv8sHnPLFnRYBhzADza8gaWPPZ7Y4voi5NF3d2D+w7/DofNdqX9wi7u4Pa8AKksBENLnHxHHnK6LEogaBj7x52fwd2te8jxjsJLZdKIdbQ89jBcPHEr9AyH9dzhyLj9ON1fuPO62bFlR+2WvvXjgENoeehibThSxM9Mgw2AMf7fmJXziz8/0XznpFH5K+6wnqTIWAIlUlgIAUjecdI5clLpuSPmzTW9j0aOPFb3D0GDggS1bseCRR3Gkqzv1Dy4Kst9I7mYdiLj6/44O67Id+JGubix45FFPawtWKifDYSx69DH8bNPb/f/ozLR0Xv8K3Ey18hSAGC1167CS5BpEWX/kKNoe/A02iKmvFxAxw8BfP7MKf7tqNeLOlGVb+FNW+CFzHCAdrv5/lu8CEDdN/O2q1fjrZ1Yh5nEWZaWw4egxtD34G6w/crT/H6mbxSRcpwpZ/eek8hQAkBqUSufTumjT4z09WPDIo/jQiqew6/SZ0rdzgFiz/yDmPvxbPLxte/8/phHIfuZ6jmXI3K0G1eU9Lt8J4OFt2zH34d9izf7iC7xWCrtOn8GHVjyFBY88iuNu29lLLlmKovA7g64VRGW2CkhcVHsksWv2iSOLrVFNPWWHFQ5g+a7deHL3Hnx0+lR897oFmFjhhUDS8crhI/j2K+tTF/SIpNsKS3UIv0T7j06ZkKTEgiA7H5+QxDnF/AtbMRhG32Iui20nT2HpY4/j2jEtuH/hdVjo1TbiA8z+c+fx3fWv4g/v7XSf7SAAJJc6g7LDFahA09+mcltmrwtILqW0NlEQzV9KAWJ1Qp4aBGSc49F3d+CPO3bh0zOuwLcXzC9LBmEhvHHsOL697lW8fPBQ+jdJsrtQO/14t9hALsgKwIRdjG1LzFmvUZYBkyQzNkVeO3oMH/jdH7Bo/Djcf/2Cki3o8pqj3d24/9XX8fC27emDy3aehdMKcgZPRZe2AqlcBQAkLrDY4WS5bwdYG7tjuoxEQCJi+6t3tuK329/F566+Et+4Zh5GelDiuRRsbu/Ad9a9mnmbtAzmt2vV22IKXChK6qhvV+91KgE7qchw33775YOH8PLBQ1g2aSK+d/2CAVnPUQjtvb344YY38MCWrf3jLCLpLC/bUhWpUNPfprJb52b6253S2dFkGWA0JXddJG6a+PmmzXhgy1Z8YFwrlk2aiFsmTcSEMrsHXfE4Xjl8BI9sexcrXcp1p5Bu1AHSC38xgSe3UT+dEkiuHehvjdms2rcfq/btx12XXoJPzrgcC1vHor6MBVkA4MC583jOatdfDh3OLPhA4je6TaOmi1VVWOKPk8pWAIC76a+qiQ7oNM8o7fNL03TCuGli9f4DWL3/AP7XmhdxWUNDQhlMnogFY8dAKfENi5smNhw9lhgVDx3G2yfac1tmnGnrazfh96rzuSnhTEoggzVms3LP+1i5531IhGDmqJFYNK4Vi8aPwzVjWkq6Rh8AdMbw6pGjeG5vQuh3n8kxWJxJ+drXQyTH8u/lpvIVAOBu+tsdzW1KTFES78+gCGx2nzmD3WfO4N/f2ohaVcWSCeNx44TxGFtfh+aaGjRXV6OxugpSgSOpyTk2t3dg7aHDeOngIWw4eiy/aTJ7esnt++3f2m+uPk18oFDsczmVgK2I3awxbsVwMigCk3O8dfwE3jp+Aj/Y8AaCsoxrxrRg8fhxuGFcK9pGNhd13U+FI+gIh9HR24sjXd148cBBvGBvzZUrmQQfsLYsc4iRmytQoQyOVgLupr89yrltJGILB2NWMDF7pmCPpmHF7j1YsXtPynFKCIZXhTCypjahFGqqMbyqChFdR1jX0Kvp6NUS/4c1zXquIazriOh6YfnymQQfcB91gNKNPG6WmD074GaN2dOJOSgCm5hhJOMFQOK6VykKqhUFNaqKGlVFtaqiRrVfK6hWVFQpCk5HIujoTQh7e28PTkeixa1TsFfyZbKi3CyvbMlWFcbgUQCAUKlGOJZpJLL/btcaMI2CtmNm1mhyKhzBtlIvQMo24gCALLlPLbmNRl5in9tpdSlK4toaLkIuKoIcLDIRxnlSmQ5YlqddhyKT4KezvNySryqcwaUA7LlnpwmXaSSyoRSgqlX6yrIIKmkhWy6CD6Tf367Uwm+TTglI1rLhdNu65emaDSgE1tqTHOr0pbO8ANe1EpXO4FIAQPr5aMAaicxUX9WJuOjFTnbhORSc9BpC+hY85RKsSzfqAAPvc7rFZOx2ZLLGgFQT2a5DWM7rLwmLdbKRKbZS7IxLmRh8CgDI3NFsv800+49STggFZFsZ8NQO6TWiwOezKYSdSJKu46VzB0pNOrPftsbs659JsFOUMe+7B6VSCKLCzUdYpQICsYOEwakAgNwCUHY2YS71/t0Eze6UKc+55TrYHVTI9073nBSwDJQgfbafTZ7bXXtOJrPfvpamacVespzLVoopCkF003j654kT9F13UcHmo2zT/YZ8A7GDiMGrAGwymf2FKALn5wdas+ci+JU06mQz+/NVBDaEAKRM8+jZBB/wfqq1TAx+BQD03SxDd+9gxSqCgSKXTjVQwb58sK0xt7wMG1ERVOpy4VwEnyB9NuAgpKieJF6msgfUk1mAurWzjQu2IpDlPn8/lx1nSoVt8lKSW6HISh917FmMTAJuCxkzE/epIq5/joFYezuvCrC8vGpB4QqA9jWi7MJvY08TMmZNNeURgBIVQimhBQSi7Ch/BXS8rCQXBhmZryWV+qpRVPr1tweOChv1k60volkFKwDKOUmJefEKUgS2X5pLJBroHwC0R6V+AUBkPpcY/LPPa7cn38iz/TkP95AbMJxZmNmE2nn9RYVgv06SpaO5Bf+cAcZ8fkcF5vQTpHYlynnBI0MRLgAFcdyIilEANoUGoHLpKOI6ea+p0BEnb8QszGwWmUg+gleK+5BLILaMEMAhe4X3k+KiScJFT1gBFacCEhSqCDLhC37u2BZZvoogFy4iwbfxcqv2whUA6W93UAAVlODZn2QAqgICgCKD1dTPF1ER5OIaDAT5BgLLDIVLAJAU3okLVwCmGXceooQMjp1iyhUATPl+ITPwYkO8/nbmnz0jMJDfX0hcpsy47nrsIou5UrACIJoecbt0EoAKnWV3xy0AmBIE9CC6OchGmQGFUgA00XEAb60zZ2bgIL/+Etyn/4imRwo9Z8EKQNK0qOEiGZQA5iAwAtKSrpO4zQjYOItwuj33yQ236y9e73TPgf6R/wsMak+3OZA0reC92fJSAIT0xR6JFouQNOkIMjgqNNercC7gjlXx+EoVMoB08ka0WNICEGU01/NmhBDCuaVpUxTYezQkAAAWOklEQVRALB5NZxvbgYrBbAj4+FQKBPZEn7tEJWTRei7KaA7KwNUhOn/+fPYPdnV1E6tx/R7kQllk4ONTfmRY3g3cH7TLuVFkf9LJdNaIiEOLJJ9X7dh+HBwMVpzM+aDoi+v4+PgUhgRLSNPIGThY1Y7tx4WPFGwBuH7Q+dx+zbq7dejxzkwnT/gtPj4+hUCQgyWtxztZd7cOpMqn/drtOQRZT7EAKKWuGsPtw4QQTmPR42ndAOsxuMsl+PiUDwWZZYsAoLHocUE+s47+ThlP6wJEo1HXkxmGYWdrcBqOHO/3QecXwlcCPj75oiC3DH9LBjmQIpspMivKcr/Pp7wQtIN4Ak3TxBMnn9OurmOZnBP7IYH78QAfnxyRAEg5yBXALRlMIMqmQ2b7TP5cLQCH/yDmaCaPKwcO7slmoiRdAc79eICPTxZEWclJrg4cFHexcZXZTMHAFAWgKErf6E6p6wns54QQM/DOpkMwzO5clBUBEPCVgI9PWlJkJBcDwDC7A+9sOkQIMYH0QT9RlkUZBxwKIBgMJv8oSZKrMqCUmkklYJqMdnftKOgH+vj4JClENmh31w5imgywgvKUJpfhiDIryrIo44BDAdTX12dVANaXMWvKgdHTne/mpq4SDwIOdTCsGPTxGUBUnpCNfGSJnu58V5RF8XzpFIAo44BDAWzevDn5x56enhQXQDyhYSR2gzBNk6m7dm7Ls92gnCPgKwEfHwCJkZ9ynpcMgQPqrp3bTMsCsGUSSAi/6AKIsizKONA/CJgi9OL0gaZppvC35FRgYPvWY9BiHbkGLeyHxDmCjPnugM9FCwEQZAxSHkE/+wEt1hHYvvUY+vJyxBmApKxGo1HuCAJmVABcnCaQJMl0e27FAZj9pXLHqXV5qy9wUHAEfCXgcxFCAAQYAy1AbgBuyVzSHWei/59Bbu0TJOk3DSjLMhOeu54IABhjuq0AAm+/sRaM80J+C+UcQWYWU9nYx2dQQYFEny/A7AcHwDgPvP3GWiChABhjKXuzibIqyrAo22JbUhg6dGhyKb+qqqLZz3VdF7WJYWkfU921qwPR8O78LkMfhAMB04TsxwV8LnBkzhEwzX4VtfMiGt6t7trVQQgxrdE/KbO6rpuiyS/KsCjbNv0UwM6dO5Mf6OrqYmIcQDQzDMMwADDTTOwFpRw7+kph6kyYHWAm1EooFOnjUwJUxqAyM+9ov/ORkDXAkj1mySKAVBmNRqO8q6srKVCibCff79JOM10cQFGUpKlBCOGiGxB8+cV1xDTDRf42yIwhZBoJ88jH5wKAco6QaUBmrCjZAAeIaYaDL7+Y9P8tGUwKiyijLv5/TgoAgUAg+UZVVZPaxekGSJKk202Tzp2L0o721UX/QnAQzhE0DSi+NeAzyFEYQ9A0rMrdxT9oR/tq6dy5qH3AkkEAruZ/UnZFmRZxVQB1dXXJN4fDYUN0AyRJMoAU7ZMMQoReXP0UDBb34HcCHFBMEyFDh8R9ReAzuJA4Q8jQoZimJ7IADsBg8dCLq58C+oLwohVuyyaQMP/D4XDytSjTIq4KYOfOnSnBAlmWDfG5XXiAEMI45/HkdOCJE930zKm13v3ihDUQMAwEDKOY/Q98fAaE/v3Vuwc9c2qtfOJEN5AYgG3Zs+XRKadiu5wybZNu9o2J0UMXNyBpBUiSpFnRSBMAguvWrgDnhoe/G+CAxBhCuo6A4ccHfCoPagl+SNcheeDr939wI7hu7QogsRCPEGJasscAQNd1I535b8myqxmddvp91KhRSd+it7fXjMVi4ooi3fpSbhgGY4zp9myAun9/p9zRsaoEVwAAh8RMBHUNAUP3FYFP2UkIvo6grkFiJkrV7+WOjlXq/v2dQCL6zxjTDcNguq5zIDX4F4vFWG9vb3IAF2XZSdo6He3t7byqqkq1X6uqSiilEpC0AighRKaUUgD2/yoASIcO7NKuuOoDoFJVLhexECjnkE0zGR/g4qYQPj4lhHAOmTGopgHFMEs/EOn66erHfvcjGo/blncMgE4p1QAYjDFNVAAAkgMyAOzfvz+W7tSZEvB4KBRKmhGxWEwXg4GKomiw1BOl1GSM6YwxDQCkrq6YunvHw6XShil+EWNQDR0hLY6ArkE27XlWHx/vIEgMOAFdQ0iLQzV0UMYwEH1c3b3jYamrKwYAjDGNMaZb8/0cALdkEUAi+BeLxZLKwJLhtAKRsVJXd3c3qqqqFAAghLhZAYRSGmCMgRBCJUkisKwAZd/eI/HpMy5DQB2Z9ep6BOUJF0ExDEiMgXAOApKwDnx88kRiDLJpQDUMqLoOiQ3AaO+AdPe8U/vH3//Wfk0pjQLQ7ei/aZoRR35Oyuh/8uTJODJs2p2tVB+rq6tTGGMESBQdVFU16RZYyw6Die8lMueccc5lQkhCSfR07zEmX7oIhAx4XVDCuXUDTSimAclkoIyB8sTMAiHwFYMPAIDyRN+QGYNsGFAMA6qhQzbM5EBSFhiLhl54/vvymdO9iZdMBxC1ov4apdSUJKlXDP5FIpEYsfq1LMssHA5n3Dk4a9nxkydPxhsaGkJActTXFUVRgIQCMAxDAyARQkzOOZEkKco5VwAg8P7udn3PJf9tTJn6DwVeAm/gAOXWgiOz358AQoT/faVwIUPAgWTZrcq+2/KeXf8deH93u/1akqQoY4xbssYZY5q4wEfX9ZSsQGv0z/wdObTDkGWZGYZBASAej2u2AgAAznmUUhpkjBkAZEtLxQkhAQCoee7pdd3DR1xhDh++OKdfXQ6EjlDJHcLHeyo1WiSdPv1SzXNPr7Nfc87jnHMdABhjBqWUM8ZSdgWOx+OaOPoD2ffozala92WXXYbz58/LQCIWQCmFHQuglHLDMBRKKSWE2JsB6bZrAADKgX1b9WmXz+WSXJ/L9/n4XMzQeOxI7R8f/QHpK+zBASQTgAghmhX5j9oCbxiGJvr+Y8eOjbe3t2dNoc1JAbS3t6fEAqx5SFmWZUIIga7rRJIkhTFGLCVg1yRTAYBomkkikfeM8eMWglJ/nxAfnzQQ04iE1r78XeXY0XPJY4SEOecGAHDONUqpYZpm1A7+xWIxput6cqpPlmW2d+/etFN/Ijnv1xEOh7k9IwAA1dXVDKmb/lBCiGRbAZxzE4nYgAwAcuepbqaq+8zmkdfCChL6+PgIMKYHtmz+Qejtje/bhyzTPwr0jf4AYpTSuF2nU1GUmKZpSW+ms7MzhgyRf5F8BJE1NDRIdizA+kIqSRK1GiKbpsk550mhh9MVOHL4JK+tP240Ns6D7277+Iiw4I4d/171ysubhGNJ0x9IjP6c86gkSYYkSXEA0DTNcM77d3d3a8iRvEbi7u5uVlNTo3DOk66AaZqKoihE0zQqyzJhjIFSqgJ2oJXbSgAAoBzYd9RobOphQ4bNzOe7fXwuZJSD+x+oef7ZteIxxli3netvrfyLyLKsG4ZhyLJsRqNRbhhGctqPUso7OjpiyCO2ma8pzseNG4dwOJwMCNqugFVwQKGUmpxzCZZ7IBQsDNgnCezZvVcfM5qxuvor8vx+H58LDvn4kd/XrVzxlHiMENIDQEzvjUmSFAEASZLihBCuqmpM1/Wkqd/Y2Kh1dnZmjfyL5O2Ld3Z2mmJAUNM0TimFJElU0zRJkiQKwKCUqpxzCgBWPIAKrgECO3fuMEY095pDh1xFfHfA5yKEA0w9cPDBuqdWrEw5znmMc54M4lk1/3rsgjyKouiGYWjRaFRc/ssOHTqUU+BPpKBgXDgcNsWFQmbC+Zes9ACFEMJN0zQopQH0CbdhxQeS3xl4f/f7rLa23RjWMMsPDPpcVDCmB3bv/Gnt6udeTD3MNEJI2H5tmf7ddq0/SZLiuq4buq6nJPl0dnZGUEBaQ6FCx6dOncrt3ACgTwkwxmQ7MChMBRLrx+hOJaAe2H8Yqvq+0dg8DySnxCQfn8EN47HQti0/qF73l7dSDieEvxfJBFXCKaW9VuQfuq6bpmnGDcNIzv8DwLhx42Lt7e2uFX+yUfCo297ezhobG6mmafbiINTV1ZmMMUUw9Q0kVhwmpwvdlIBy9EgHjUTe1keNuoJLUl2hbfLxqXSIFj9e/dr6fwlt3pRSRt8p/ABACIkCiNivKaVadXV1OB6PJ99TU1Oj79q1K+eov5OizO6uri6zrq5OtuMB8Xich0IhPR6PB61YANBn+idHd0JIP3dA7jx1Prh3z0ta6/gmHgi0FtMuH59KROrqWj9kxRP3K8eOnhGPC2Z/UrCtcl9hO7df13UzEAh0ifv8ybLMjh8/nrffn9KmYj4MJOIB4tSgpmlcURSTEJJcQGQHAa30YYLEDzVhrSK0z0U0zQy9u+0NY1jDGbO+fgYI9V0Cn8EPM+PqwQP/M2Tl8keF9F4ACUFHYoVfcptvzrkGICzW+CeEdEWj0eSsAKWUnzp1yq4OXDBeBN54JBIxxSxB0zRNVVUJ51wFEmnB1iomYo36xNJshvWcQpgJCOzfe0AKR97Um5rHc0Ue4UEbfXzKAo1Ed9VueO1fq996/R3Hn1ga4Y9zzmOyLIvCHo7FYhHxw6dPn44ix2y/THg5/Sbby4YBgHNOgsFgvZgERAgJmqapEkICtsWQOEyChBCVc95vxO++6ebF8THjPgnZjw34DCIMsztw9NAjdWuef8n5J8sF1qypvmTAj3MelyRJE6cAOeexWCzWJS7zPXPmTBQ5rPTLBU/n39va2pRDhw4lBT4UCimMsWpKaYBzTjjnhBASZIzJlhKw4wTEei3by4hFjIaGmu4bln7aGDbkBnB/H1GfCoaAyWfPr61bu/ph+cyZXuefLd/esEZ/W/gZ5zxOKTU45zG7zDdjLE4pDYum/7hx42KbN29OW+Qz/+Z6zNSpU9WTJ08mhViW5ZAsyyohJCgqASsIqDLG7FGfUEoVxphCKVWsbMIUIpdNGxO58qr7WG3NfMDPG/CpJLhJe3pfr9r6zuNVu3ccdf6VEGJatfx0q2YGBxJJPpxzzSrykRR+znnMMAzNMIzkmv+mpqb4zp07C474u1GSDDzREuCcE1mWQ6qqygBClhKgtkJgjMlW1qC9dkCyrABKCEnmEIhEx01sDLfNvMccUr8QROpnMfj4DBjcjEvnu16p3vz28tCh/afc3mEF9eyNPEwgubemZu2yzS3hZ5apH9U0zbDm+zng/chvU8oU3GRMoKamRuKchzjnJB6PBxVFkUQlYD13ugT232SapoaA3tRU3z1r3lKzYeh1XFZbSvhbfHxSIIZ2TDpzbn3dpjdWKydPdrm9xyrcmRRwOEx+W+Bt4bem+mwrIGrX9vfS5+/3O0pxUgFpxIgRIcYYCYVCipUaDE3TVEmSVKfgC+Y/QcIlkBljCgBkUgQA/n975/fbRm7E8eGQ+0OSbSUIVMFGYD9U7YMPh+tVb/fev7rvfXOvh8P5oU0fbAQ2VCNIZFtacskZ3oNJZbWVbcWJnLWzH8DQclcStMZ+hzNDcgiz738Yzf/057/x9s5P7WSilk0giC7x6vIf3f/8+++9X395c9v7ovABAILL7wAgxvUWES3AsiEgojJN0zJ83hRFYRHRX1xcFLBiV98vdk+b+uIKOBwOO845TJIkD6EAEJEMCcHoCVR7/3puIGVmCXC/IfBJgrMffvzO7O796La3v+Ms/yMsFy5paVkXi0b/V11d/Zadn/3c++Xn30Rl9V2dmvAp7JOxFOvDshegEZG99zpu5V2WpbPWaqUUTyaTLzLUdxePtQpPvH79Oi+KQimlOlmWRTGLsiwzKWUS9hdYJPa89zIkBWWlvZQrkFLKVcnCKpxlydVf/vq9+8Pw0GX5nk/TXUiSoReit8kbbnlaCO9nYO1ElOW5MvpM/W9yvP2vf/6KxtwZdwshiIioHtvHdtw0J7Yr5wwR2TRNTYzzjTHknCs6nY57+/btJ63rfyiPugw3JgerRgDgxhtAxKwsy1xKudRb32cIwjkVZhmuPURohsMd83p/nzqdHZ+mXZaqA0nSZSU7QmDW7ILRLZ+KAA/es0FHBZCdo3WFKMu5LIrL7O3paTaZXN7/LQuYmSn29gDrCR8AIIheM7OJvT7AR/FvKtl3G1/jKcfBYNAVQvTyPF8SbFmWKSLmMQFYvea9xzg8GJKDMrSr3yG89xg8g6XZhS0tn4EPcTqFWXvVBTschR6Sd1H4S657TPYxs46xfkRrzd77WVjSu1GXv85XE8jBwUGutd6pegIAH8OCJEm2qiFBhTh0qILIMSQLV60biAYB4zG0RqHlbnwUORFxXfARRHQhucfBCLhQuGPVe8lae1119yPGGMrz/PLk5OSzFvU8lK8tBrm3t/dCKZXWL4Revuu979W9gcp7UEqpmFl67zHkBdQthqOKgI81CxdTksPehi3PHCKKO29CRZCLc7eBiERELvT2XGmv7LWDRzATQszrwge4qeV/dnb2ATaY5b+PRjzwr1692kbEXqfT+b/fw8zIzFurwoIagpkXicFYmCSEDO304ZZPJozTExFxmLBDRESVnXlv+5wPGf7rWLq7SlEUnpln7969u9roDaxBIwwAAMBoNMq01j1jTLrKEBCRBICOcy6TUq6zTFgErwCllJKZVSUcwHCtMfff8vUIPTUDAEe3P2y+QcEIrAwD6hCRU0oZACiqCb5IURQ+y7Iyz/PZmzdv7t237zFomgDUYDDIO51OorVO60lCgBtDYK1NETFTSq3j7tepuv4xLwCVAiZN+5+0fFk8AAARLcptQ5ikU72+LohIzjnHzCZJknKV8LXWnOd5WRSFDZt2bGRW30No4sOOu7u7eVmWstfrKWNMUk8UAnw0BHFaMTNLpZR8gEFoaVmbIHhCRIrTd28TvjGGsiyzs9nMpWlK5+fna+/Y81g00QAAwE1I8P79+xTgprfudruqLMuk7hV470XYsVwxcyxDjuFYeO9RKRWPG3u/Lc0heAPeObdw/xExHgMisrXWJUli68k9rTWnaWrn87mL116+fFk2xeWv03RBLLyBeKLf76PWWjnnVN0YMDNaa5M0TWU0BnWqWf9au+UbpO76r8rWA9yIvixLSpLE1hN7WmtWSrk8z910Ol1ca2qvX+VJPPzj8Tg5PT3NYvHRiPdebG1tSWutJCJZNQjee+GcU8ws0zTF2wxCS8sqguAZEUkp5aqGQWvNUkpKkoSur6+pbjQQ0e/v75vHnNH3UJ6EAQiI0WiUxrDgNvr9Pjrn0DmHYQgRQ3myRTucwyzLRCxS8lg30dIcYvENY4wPmf/Fn9aaxU1dfkZEVkqxUoqrPfwqgru/WPTTdJ7igy9Go1E6nU6TukewDlHsL168WPosEbUhwTdA7K2llEsC/fDhw50hwF0gou/3+/YpCT/ylB92cXh4mFxcXKQPMQQtLZ8LIvrBYFAeHx8vSnw9NZ6LcNTBwYGaz+eqNQYtmwQRfbfbdScnJw4aNJ7/UJ6bWMR4PFaTyUQZY2RrDFq+BIjosyyj4XDojo6OVi74eao8d4Hg4eGhury8lK1BaFmXKPidnR06Pj520OBhvM/lWxOEAAAcj8c4nU5Ra41EJKJhqL+2PC8Q0ddfpZQ+z3Pu9/t8dHTEcCP2Z9PD38fviY2UjgEMGEEAAAAASUVORK5CYII=;rounded=1;" vertex="1" parent="1">
          <mxGeometry x="740" y="10" width="61" height="61" as="geometry" />
        </mxCell>
        <mxCell id="qvL6NGc2K4KBVcJkoJch-3" value="" style="group" vertex="1" connectable="0" parent="1">
          <mxGeometry x="920" y="20" width="140" height="180" as="geometry" />
        </mxCell>
        <mxCell id="qvL6NGc2K4KBVcJkoJch-4" value="Legend" style="swimlane;fontStyle=0;childLayout=stackLayout;horizontal=1;startSize=30;horizontalStack=0;resizeParent=1;resizeParentMax=0;resizeLast=0;collapsible=1;marginBottom=0;whiteSpace=wrap;html=1;rounded=1;movable=1;resizable=1;rotatable=1;deletable=1;editable=1;locked=0;connectable=1;" vertex="1" parent="qvL6NGc2K4KBVcJkoJch-3">
          <mxGeometry width="140" height="120" as="geometry">
            <mxRectangle x="720" y="240" width="80" height="30" as="alternateBounds" />
          </mxGeometry>
        </mxCell>
        <mxCell id="qvL6NGc2K4KBVcJkoJch-5" value="main function" style="text;strokeColor=#6c8ebf;fillColor=#dae8fc;align=left;verticalAlign=middle;spacingLeft=4;spacingRight=4;overflow=hidden;points=[[0,0.5],[1,0.5]];portConstraint=eastwest;rotatable=0;whiteSpace=wrap;html=1;" vertex="1" parent="qvL6NGc2K4KBVcJkoJch-4">
          <mxGeometry y="30" width="140" height="30" as="geometry" />
        </mxCell>
        <mxCell id="qvL6NGc2K4KBVcJkoJch-6" value="sub function" style="text;strokeColor=#d79b00;fillColor=#ffe6cc;align=left;verticalAlign=middle;spacingLeft=4;spacingRight=4;overflow=hidden;points=[[0,0.5],[1,0.5]];portConstraint=eastwest;rotatable=0;whiteSpace=wrap;html=1;" vertex="1" parent="qvL6NGc2K4KBVcJkoJch-4">
          <mxGeometry y="60" width="140" height="30" as="geometry" />
        </mxCell>
        <mxCell id="qvL6NGc2K4KBVcJkoJch-7" value="Read function" style="text;strokeColor=#001DBC;fillColor=#0050ef;align=left;verticalAlign=middle;spacingLeft=4;spacingRight=4;overflow=hidden;points=[[0,0.5],[1,0.5]];portConstraint=eastwest;rotatable=0;whiteSpace=wrap;html=1;fontColor=#ffffff;" vertex="1" parent="qvL6NGc2K4KBVcJkoJch-4">
          <mxGeometry y="90" width="140" height="30" as="geometry" />
        </mxCell>
        <mxCell id="qvL6NGc2K4KBVcJkoJch-8" value="If function" style="text;strokeColor=#82b366;fillColor=#d5e8d4;align=left;verticalAlign=middle;spacingLeft=4;spacingRight=4;overflow=hidden;points=[[0,0.5],[1,0.5]];portConstraint=eastwest;rotatable=1;whiteSpace=wrap;html=1;movable=1;resizable=1;deletable=1;editable=1;locked=0;connectable=1;" vertex="1" parent="qvL6NGc2K4KBVcJkoJch-3">
          <mxGeometry y="120" width="140" height="30" as="geometry" />
        </mxCell>
        <mxCell id="qvL6NGc2K4KBVcJkoJch-9" value="While function" style="rounded=0;whiteSpace=wrap;html=1;fillColor=#b0e3e6;strokeColor=#0e8088;align=left;" vertex="1" parent="qvL6NGc2K4KBVcJkoJch-3">
          <mxGeometry y="150" width="140" height="30" as="geometry" />
        </mxCell>
        <mxCell id="qvL6NGc2K4KBVcJkoJch-12" value="" style="edgeStyle=orthogonalEdgeStyle;rounded=0;orthogonalLoop=1;jettySize=auto;html=1;" edge="1" parent="1" source="qvL6NGc2K4KBVcJkoJch-10" target="qvL6NGc2K4KBVcJkoJch-11">
          <mxGeometry relative="1" as="geometry" />
        </mxCell>
        <mxCell id="qvL6NGc2K4KBVcJkoJch-24" style="edgeStyle=orthogonalEdgeStyle;rounded=0;orthogonalLoop=1;jettySize=auto;html=1;exitX=1;exitY=0.75;exitDx=0;exitDy=0;entryX=0.001;entryY=0.624;entryDx=0;entryDy=0;entryPerimeter=0;" edge="1" parent="1" source="qvL6NGc2K4KBVcJkoJch-10" target="qvL6NGc2K4KBVcJkoJch-18">
          <mxGeometry relative="1" as="geometry" />
        </mxCell>
        <mxCell id="qvL6NGc2K4KBVcJkoJch-25" style="edgeStyle=orthogonalEdgeStyle;rounded=0;orthogonalLoop=1;jettySize=auto;html=1;exitX=0.75;exitY=1;exitDx=0;exitDy=0;entryX=0;entryY=0.5;entryDx=0;entryDy=0;" edge="1" parent="1" source="qvL6NGc2K4KBVcJkoJch-10" target="qvL6NGc2K4KBVcJkoJch-19">
          <mxGeometry relative="1" as="geometry" />
        </mxCell>
        <mxCell id="qvL6NGc2K4KBVcJkoJch-26" style="edgeStyle=orthogonalEdgeStyle;rounded=0;orthogonalLoop=1;jettySize=auto;html=1;exitX=0.5;exitY=1;exitDx=0;exitDy=0;entryX=0;entryY=0.25;entryDx=0;entryDy=0;" edge="1" parent="1" source="qvL6NGc2K4KBVcJkoJch-10" target="qvL6NGc2K4KBVcJkoJch-20">
          <mxGeometry relative="1" as="geometry" />
        </mxCell>
        <mxCell id="qvL6NGc2K4KBVcJkoJch-10" value="Read 4 button status" style="rounded=0;whiteSpace=wrap;html=1;fillColor=#dae8fc;strokeColor=#6c8ebf;" vertex="1" parent="1">
          <mxGeometry x="40" y="20" width="120" height="60" as="geometry" />
        </mxCell>
        <mxCell id="qvL6NGc2K4KBVcJkoJch-16" value="" style="edgeStyle=orthogonalEdgeStyle;rounded=0;orthogonalLoop=1;jettySize=auto;html=1;fillColor=#ffe6cc;strokeColor=#d79b00;" edge="1" parent="1" source="qvL6NGc2K4KBVcJkoJch-11" target="qvL6NGc2K4KBVcJkoJch-15">
          <mxGeometry relative="1" as="geometry" />
        </mxCell>
        <mxCell id="qvL6NGc2K4KBVcJkoJch-11" value="If button1 =1&amp;nbsp;" style="whiteSpace=wrap;html=1;fillColor=#ffe6cc;strokeColor=#d79b00;rounded=0;" vertex="1" parent="1">
          <mxGeometry x="250" y="150" width="120" height="60" as="geometry" />
        </mxCell>
        <mxCell id="qvL6NGc2K4KBVcJkoJch-40" style="edgeStyle=orthogonalEdgeStyle;rounded=0;orthogonalLoop=1;jettySize=auto;html=1;exitX=1;exitY=0.75;exitDx=0;exitDy=0;entryX=0;entryY=0.75;entryDx=0;entryDy=0;" edge="1" parent="1" source="qvL6NGc2K4KBVcJkoJch-15" target="qvL6NGc2K4KBVcJkoJch-31">
          <mxGeometry relative="1" as="geometry" />
        </mxCell>
        <mxCell id="qvL6NGc2K4KBVcJkoJch-15" value="motor1 degree +5" style="rounded=0;whiteSpace=wrap;html=1;fillColor=#ffe6cc;strokeColor=#d79b00;" vertex="1" parent="1">
          <mxGeometry x="430" y="150" width="120" height="60" as="geometry" />
        </mxCell>
        <mxCell id="qvL6NGc2K4KBVcJkoJch-27" style="edgeStyle=orthogonalEdgeStyle;rounded=0;orthogonalLoop=1;jettySize=auto;html=1;exitX=1;exitY=0.5;exitDx=0;exitDy=0;entryX=0;entryY=0.5;entryDx=0;entryDy=0;fillColor=#ffe6cc;strokeColor=#d79b00;" edge="1" parent="1" source="qvL6NGc2K4KBVcJkoJch-18" target="qvL6NGc2K4KBVcJkoJch-21">
          <mxGeometry relative="1" as="geometry" />
        </mxCell>
        <mxCell id="qvL6NGc2K4KBVcJkoJch-18" value="If button2 =1&amp;nbsp;" style="rounded=0;whiteSpace=wrap;html=1;fillColor=#ffe6cc;strokeColor=#d79b00;" vertex="1" parent="1">
          <mxGeometry x="250" y="220" width="120" height="60" as="geometry" />
        </mxCell>
        <mxCell id="qvL6NGc2K4KBVcJkoJch-28" style="edgeStyle=orthogonalEdgeStyle;rounded=0;orthogonalLoop=1;jettySize=auto;html=1;exitX=1;exitY=0.5;exitDx=0;exitDy=0;entryX=0;entryY=0.5;entryDx=0;entryDy=0;fillColor=#ffe6cc;strokeColor=#d79b00;" edge="1" parent="1" source="qvL6NGc2K4KBVcJkoJch-19" target="qvL6NGc2K4KBVcJkoJch-22">
          <mxGeometry relative="1" as="geometry" />
        </mxCell>
        <mxCell id="qvL6NGc2K4KBVcJkoJch-19" value="If button3 =1&amp;nbsp;" style="rounded=0;whiteSpace=wrap;html=1;fillColor=#ffe6cc;strokeColor=#d79b00;" vertex="1" parent="1">
          <mxGeometry x="250" y="290" width="120" height="60" as="geometry" />
        </mxCell>
        <mxCell id="qvL6NGc2K4KBVcJkoJch-29" style="edgeStyle=orthogonalEdgeStyle;rounded=0;orthogonalLoop=1;jettySize=auto;html=1;exitX=1;exitY=0.5;exitDx=0;exitDy=0;entryX=0;entryY=0.5;entryDx=0;entryDy=0;fillColor=#ffe6cc;strokeColor=#d79b00;" edge="1" parent="1" source="qvL6NGc2K4KBVcJkoJch-20" target="qvL6NGc2K4KBVcJkoJch-23">
          <mxGeometry relative="1" as="geometry" />
        </mxCell>
        <mxCell id="qvL6NGc2K4KBVcJkoJch-20" value="If button4 =1&amp;nbsp;" style="rounded=0;whiteSpace=wrap;html=1;fillColor=#ffe6cc;strokeColor=#d79b00;" vertex="1" parent="1">
          <mxGeometry x="250" y="360" width="120" height="60" as="geometry" />
        </mxCell>
        <mxCell id="qvL6NGc2K4KBVcJkoJch-39" style="edgeStyle=orthogonalEdgeStyle;rounded=0;orthogonalLoop=1;jettySize=auto;html=1;exitX=1;exitY=0.5;exitDx=0;exitDy=0;entryX=0;entryY=0.75;entryDx=0;entryDy=0;" edge="1" parent="1" source="qvL6NGc2K4KBVcJkoJch-21" target="qvL6NGc2K4KBVcJkoJch-31">
          <mxGeometry relative="1" as="geometry" />
        </mxCell>
        <mxCell id="qvL6NGc2K4KBVcJkoJch-21" value="motor1 degree -5" style="rounded=0;whiteSpace=wrap;html=1;fillColor=#ffe6cc;strokeColor=#d79b00;" vertex="1" parent="1">
          <mxGeometry x="430" y="220" width="120" height="60" as="geometry" />
        </mxCell>
        <mxCell id="qvL6NGc2K4KBVcJkoJch-38" style="edgeStyle=orthogonalEdgeStyle;rounded=0;orthogonalLoop=1;jettySize=auto;html=1;exitX=1;exitY=0.5;exitDx=0;exitDy=0;entryX=0;entryY=0.75;entryDx=0;entryDy=0;" edge="1" parent="1" source="qvL6NGc2K4KBVcJkoJch-22" target="qvL6NGc2K4KBVcJkoJch-31">
          <mxGeometry relative="1" as="geometry" />
        </mxCell>
        <mxCell id="qvL6NGc2K4KBVcJkoJch-22" value="motor2 degree -5" style="rounded=0;whiteSpace=wrap;html=1;fillColor=#ffe6cc;strokeColor=#d79b00;" vertex="1" parent="1">
          <mxGeometry x="430" y="290" width="120" height="60" as="geometry" />
        </mxCell>
        <mxCell id="qvL6NGc2K4KBVcJkoJch-37" style="edgeStyle=orthogonalEdgeStyle;rounded=0;orthogonalLoop=1;jettySize=auto;html=1;exitX=1;exitY=0.5;exitDx=0;exitDy=0;entryX=0;entryY=0.75;entryDx=0;entryDy=0;" edge="1" parent="1" source="qvL6NGc2K4KBVcJkoJch-23" target="qvL6NGc2K4KBVcJkoJch-31">
          <mxGeometry relative="1" as="geometry" />
        </mxCell>
        <mxCell id="qvL6NGc2K4KBVcJkoJch-23" value="motor2 degree +5" style="rounded=0;whiteSpace=wrap;html=1;fillColor=#ffe6cc;strokeColor=#d79b00;" vertex="1" parent="1">
          <mxGeometry x="430" y="360" width="120" height="60" as="geometry" />
        </mxCell>
        <mxCell id="qvL6NGc2K4KBVcJkoJch-31" value="" style="shape=image;verticalLabelPosition=bottom;labelBackgroundColor=default;verticalAlign=top;aspect=fixed;imageAspect=0;image=data:image/png,iVBORw0KGgoAAAANSUhEUgAAAcoAAACbCAYAAADiOds6AAAFfUlEQVR4nO3dS7LTVhQFUJMCMrPQCRNJxgMTIZ1kZkka0DI8nq+39bs/a60WDtSuW4pUp6Stz5vL5fL1AgAU/dJ7AQAwMoMSAAKDEgCCt/f+4vc//m65DgAYwl+fP/z0u3hGaUgCcFavZ+DNoDQkATi7l7NQRwkAgUEJAIFBCQCBQQkAwd3HQ0r+/+/f739+9/7X3b9b53759Nv33x///Gf49bbKXbtdWq/39foe/e6dO/v+IHeO3KP237U5j37XXm+t7Zs4owSAwKAEgODN5dXXQzxHCQA/3tCjoxx4vb26jd65e/8/3etMauXOvj/InSN31P33WY63xKVXAAgMSgAIdJQAULCpo1zbQfV+vm1vTu/17u0A7613b3e7dTv07mLW5m59Xmz0rkvuOXOP2n9bPe+oowSASRiUABDoKAGg4JCOcu21697P2xz1HGWrDm1vp3ZvO9TqKGt1MUe9e7LW/jtqJyX33Lmj3cMwSvepowSAgxmUABDoKAGgQEc5QUfZqtsY7TnKWs9f9eqAZ++65M6RW+s4Hn29OkoA6MygBIBARwkABVU6yl7dXK2OsvV6dZTL1rv1+avZvo8nV26PLnG2XB0lAHRmUAJAoKMEgIKhOsq1XVetdxiO9v3MVt1Gre3bar1n2Q5yz527953HvZ83r7VeHSUAdGZQAkCgowSAgk0d5WzX9OXKlStXrtwluYlLrwAQGJQAEOgoAaDg2lE6owSAwKAEgOBUd72O/vb6Xtth9DfS1FrvbNtBrtyX/91x4a5XABiCQQkAgbteAaDglG/mOWtHOcpXX3qvt9V2GH1/kDtnruOibm7i0isABAYlAAQ6SgAo2NRRru2gej/Hszen93r3doD31qujXJbb+4vrcuU6Lm63g44SAAZjUAJAoKMEgIJDOsq1nWTv53iOeo6yVVewtzu4tx3W5vTueNZ2wFv3s63772xdjNznyHVc6CgBYAgGJQAEOkoAKNBRTtBRtrqm3+p50lYdxOgdcO8uRu45cx0XOkoAqMKgBIBARwkABVU6yl7dXK2OsvV6W3WUtb7L2aujPOpdumfpYuSeI9dxoaMEgCYMSgAIdJQAUDBUR7m26zrqXaRH5bb6HuXWa+973wnZu4MY/Tuis3Uxcp8j13GhowSAIRiUABDoKAGgYFNHOds1Z7ly5cqVK3dJbuLSKwAEBiUABDpKACi4dpTOKAEgMCgBIHDXq1y5cuU+Qe7ob+YZ/Y0/iTNKAAgMSgAI3PUKAAXezCNXrly5E+ce9fWQWl+FavW1KR0lAHRmUAJAoKMEgAIdpVy5cuU+Ue7sHeWjznXpdtBRAkBjBiUABDpKACjQUcqVK1fuE+WO9q7XR/9u7d8v3Q46SgBozKAEgEBHCQAFOkq5cuXKfaLc0Z+j3Ptc5dLtoKMEgMYMSgAIdJQAUKCjlCtXrtwnyh29ozwqV0cJAIMxKAEg0FECQIGOUq5cuXInzj3qnayz5+ooAaAzgxIAAh0lABToKOXKlStXrtwFXHoFgMCgBIBARwkABdeO0hklAAQGJQAE7nqVK1euXLmnz02cUQJAYFACQOCuVwAo8GYeuXLlypUrdwGXXgEgMCgBINBRAkCBjlKuXLly5cpdwKVXAAgMSgAIdJQAUKCjlCtXrly5chdw6RUAAoMSAAIdJQAU6CjlypUrV67cBVx6BYDAoASAQEcJAAU6Srly5cqVK3cBl14BIDAoASDQUQJAgY5Srly5cuXKXcClVwAIDEoACHSUAFCgo5QrV65cuXIXcOkVAAKDEgACHSUAFFw7SmeUABAYlAAQGJQAEBiUABAYlAAQ3AzK610+AHBWL2dh8YzSsATgrF7PwJvnKAGAH3SUABAYlAAQfAO/ZhRv/JNdGgAAAABJRU5ErkJggg==;" vertex="1" parent="1">
          <mxGeometry x="850" y="240" width="221.61" height="75" as="geometry" />
        </mxCell>
        <mxCell id="qvL6NGc2K4KBVcJkoJch-34" value="" style="edgeStyle=orthogonalEdgeStyle;rounded=0;orthogonalLoop=1;jettySize=auto;html=1;" edge="1" parent="1" source="qvL6NGc2K4KBVcJkoJch-32" target="qvL6NGc2K4KBVcJkoJch-33">
          <mxGeometry relative="1" as="geometry" />
        </mxCell>
        <mxCell id="qvL6NGc2K4KBVcJkoJch-32" value="If the degree has changed" style="rounded=0;whiteSpace=wrap;html=1;fillColor=#d5e8d4;strokeColor=#82b366;" vertex="1" parent="1">
          <mxGeometry x="40" y="440" width="120" height="60" as="geometry" />
        </mxCell>
        <mxCell id="qvL6NGc2K4KBVcJkoJch-33" value="Refresh the lcd screen" style="rounded=0;whiteSpace=wrap;html=1;fillColor=#d5e8d4;strokeColor=#82b366;" vertex="1" parent="1">
          <mxGeometry x="240" y="440" width="120" height="60" as="geometry" />
        </mxCell>
        <mxCell id="qvL6NGc2K4KBVcJkoJch-36" style="edgeStyle=orthogonalEdgeStyle;rounded=0;orthogonalLoop=1;jettySize=auto;html=1;entryX=0;entryY=0.75;entryDx=0;entryDy=0;endArrow=classic;endFill=0;" edge="1" parent="1" source="qvL6NGc2K4KBVcJkoJch-35" target="qvL6NGc2K4KBVcJkoJch-31">
          <mxGeometry relative="1" as="geometry">
            <mxPoint x="740" y="310" as="targetPoint" />
            <Array as="points">
              <mxPoint x="700" y="540" />
              <mxPoint x="700" y="296" />
            </Array>
          </mxGeometry>
        </mxCell>
        <mxCell id="qvL6NGc2K4KBVcJkoJch-35" value="Get gyro data" style="rounded=0;whiteSpace=wrap;html=1;fillColor=#dae8fc;strokeColor=#6c8ebf;" vertex="1" parent="1">
          <mxGeometry x="40" y="510" width="120" height="60" as="geometry" />
        </mxCell>
      </root>
    </mxGraphModel>
  </diagram>
</mxfile>
